<?xml version="1.0" encoding="UTF-8" standalone="no"?>
<!-- Created with Inkscape (http://www.inkscape.org/) -->

<svg
   xmlns:osb="http://www.openswatchbook.org/uri/2009/osb"
   xmlns:dc="http://purl.org/dc/elements/1.1/"
   xmlns:cc="http://creativecommons.org/ns#"
   xmlns:rdf="http://www.w3.org/1999/02/22-rdf-syntax-ns#"
   xmlns:svg="http://www.w3.org/2000/svg"
   xmlns="http://www.w3.org/2000/svg"
   xmlns:xlink="http://www.w3.org/1999/xlink"
   xmlns:sodipodi="http://sodipodi.sourceforge.net/DTD/sodipodi-0.dtd"
   xmlns:inkscape="http://www.inkscape.org/namespaces/inkscape"
   width="700.35999"
   height="350.09"
   id="svg2"
   version="1.1"
   inkscape:version="0.48.2 r9819"
   sodipodi:docname="relay.svg">
  <defs
     id="defs4">
    <linearGradient
       id="linearGradient5830"
       osb:paint="solid">
      <stop
         style="stop-color:#000000;stop-opacity:1;"
         offset="0"
         id="stop5832" />
    </linearGradient>
    <marker
       inkscape:stockid="Arrow1Lend"
       orient="auto"
       refY="0.0"
       refX="0.0"
       id="Arrow1Lend"
       style="overflow:visible;">
      <path
         id="path3794"
         d="M 0.0,0.0 L 5.0,-5.0 L -12.5,0.0 L 5.0,5.0 L 0.0,0.0 z "
         style="fill-rule:evenodd;stroke:#000000;stroke-width:1.0pt;marker-start:none;"
         transform="scale(0.8) rotate(180) translate(12.5,0)" />
    </marker>
    <inkscape:perspective
       sodipodi:type="inkscape:persp3d"
       inkscape:vp_x="147.79685 : 550.28863 : 1"
       inkscape:vp_y="0 : 348.2315 : 0"
       inkscape:vp_z="426.71159 : 561.21383 : 1"
       inkscape:persp3d-origin="426.22051 : 426.54576 : 1"
       id="perspective2987" />
    <marker
       inkscape:stockid="Arrow1Lend"
       orient="auto"
       refY="0"
       refX="0"
       id="Arrow1Lend-3"
       style="overflow:visible">
      <path
         inkscape:connector-curvature="0"
         id="path3794-1"
         d="M 0,0 5,-5 -12.5,0 5,5 0,0 z"
         style="fill-rule:evenodd;stroke:#000000;stroke-width:1pt;marker-start:none"
         transform="matrix(-0.8,0,0,-0.8,-10,0)" />
    </marker>
    <marker
       inkscape:stockid="Arrow1Lend"
       orient="auto"
       refY="0"
       refX="0"
       id="Arrow1Lend-9"
       style="overflow:visible">
      <path
         inkscape:connector-curvature="0"
         id="path3794-0"
         d="M 0,0 5,-5 -12.5,0 5,5 0,0 z"
         style="fill-rule:evenodd;stroke:#000000;stroke-width:1pt;marker-start:none"
         transform="matrix(-0.8,0,0,-0.8,-10,0)" />
    </marker>
    <marker
       inkscape:stockid="Arrow1Lend"
       orient="auto"
       refY="0"
       refX="0"
       id="Arrow1Lend-93"
       style="overflow:visible">
      <path
         inkscape:connector-curvature="0"
         id="path3794-4"
         d="M 0,0 5,-5 -12.5,0 5,5 0,0 z"
         style="fill-rule:evenodd;stroke:#000000;stroke-width:1pt;marker-start:none"
         transform="matrix(-0.8,0,0,-0.8,-10,0)" />
    </marker>
    <path
       style="opacity:0;fill:none;stroke:#000000;stroke-width:1.10593963px;stroke-linecap:butt;stroke-linejoin:miter;stroke-opacity:1"
       d="m 165.22719,796.80919 119.21984,-35.41"
       id="path3906-9"
       inkscape:connector-curvature="0" />
    <path
       style="opacity:0;fill:none;stroke:#000000;stroke-width:1.10593963px;stroke-linecap:butt;stroke-linejoin:miter;stroke-opacity:1"
       d="m 165.22719,796.80919 119.21984,-35.41"
       id="path3906-3"
       inkscape:connector-curvature="0" />
    <path
       style="opacity:0;fill:none;stroke:#000000;stroke-width:1.10593963px;stroke-linecap:butt;stroke-linejoin:miter;stroke-opacity:1"
       d="m 165.22719,796.80919 119.21984,-35.41"
       id="path3906-1"
       inkscape:connector-curvature="0" />
    <marker
       inkscape:stockid="Arrow1Lend"
       orient="auto"
       refY="0"
       refX="0"
       id="Arrow1Lend-93-5"
       style="overflow:visible">
      <path
         inkscape:connector-curvature="0"
         id="path3794-4-6"
         d="M 0,0 5,-5 -12.5,0 5,5 0,0 z"
         style="fill-rule:evenodd;stroke:#000000;stroke-width:1pt;marker-start:none"
         transform="matrix(-0.8,0,0,-0.8,-10,0)" />
    </marker>
  </defs>
  <sodipodi:namedview
     id="base"
     pagecolor="#ffffff"
     bordercolor="#666666"
     borderopacity="1.0"
     inkscape:pageopacity="0.0"
     inkscape:pageshadow="2"
     inkscape:zoom="1.979899"
     inkscape:cx="318.8405"
     inkscape:cy="182.02341"
     inkscape:document-units="px"
     inkscape:current-layer="layer1"
     showgrid="true"
     inkscape:snap-nodes="false"
     inkscape:snap-grids="true"
     inkscape:snap-to-guides="true"
     inkscape:window-width="1920"
     inkscape:window-height="1025"
     inkscape:window-x="-3"
     inkscape:window-y="-3"
     inkscape:window-maximized="1"
     inkscape:snap-bbox="true">
    <inkscape:grid
       type="xygrid"
       id="grid2985"
       empspacing="5"
       visible="true"
       enabled="true"
       snapvisiblegridlinesonly="true" />
  </sodipodi:namedview>
  <metadata
     id="metadata7">
    <rdf:RDF>
      <cc:Work
         rdf:about="">
        <dc:format>image/svg+xml</dc:format>
        <dc:type
           rdf:resource="http://purl.org/dc/dcmitype/StillImage" />
        <dc:title />
      </cc:Work>
    </rdf:RDF>
  </metadata>
  <g
     inkscape:label="Camada 1"
     inkscape:groupmode="layer"
     id="layer1"
     transform="translate(0,-702.27217)">
    <g
       id="g4086">
      <path
         inkscape:connector-curvature="0"
         id="path4031"
         d="m 120,892.36214 -60,100 60,19.99996 z"
         style="fill:none;stroke:#000000;stroke-width:1px;stroke-linecap:butt;stroke-linejoin:miter;stroke-opacity:1" />
      <path
         inkscape:connector-curvature="0"
         id="path4033"
         d="m 120,892.36214 50,90 -50,29.99996"
         style="fill:none;stroke:#000000;stroke-width:1px;stroke-linecap:butt;stroke-linejoin:miter;stroke-opacity:1" />
    </g>
    <g
       id="g4090">
      <path
         inkscape:connector-curvature="0"
         id="path4031-8"
         d="M 402.72727,801.49258 370,858.01432 l 32.72727,11.30434 z"
         style="fill:none;stroke:#000000;stroke-width:0.55524802px;stroke-linecap:butt;stroke-linejoin:miter;stroke-opacity:1" />
      <path
         inkscape:connector-curvature="0"
         id="path4033-2"
         d="M 402.72727,801.49258 430,852.36214 402.72727,869.31866"
         style="fill:none;stroke:#000000;stroke-width:0.55524802px;stroke-linecap:butt;stroke-linejoin:miter;stroke-opacity:1" />
    </g>
    <text
       xml:space="preserve"
       style="font-size:16px;font-style:italic;font-variant:normal;font-weight:bold;font-stretch:normal;text-align:center;line-height:125%;letter-spacing:0px;word-spacing:0px;text-anchor:middle;fill:#000000;fill-opacity:1;stroke:none;font-family:LMRoman10;-inkscape-font-specification:LMRoman10 Bold Italic"
       x="121.6875"
       y="842.36218"
       id="text4156"
       sodipodi:linespacing="125%"><tspan
         sodipodi:role="line"
         x="121.6875"
         y="842.36218"
         id="tspan3044">Fonte</tspan></text>
    <text
       xml:space="preserve"
       style="font-size:16px;font-style:italic;font-variant:normal;font-weight:bold;font-stretch:normal;text-align:center;line-height:125%;letter-spacing:0px;word-spacing:0px;text-anchor:middle;fill:#000000;fill-opacity:1;stroke:none;font-family:LMRoman10;-inkscape-font-specification:LMRoman10 Bold Italic"
       x="397.21875"
       y="752.36218"
       id="text4160"
       sodipodi:linespacing="125%"><tspan
         sodipodi:role="line"
         x="397.21875"
         y="752.36218"
         id="tspan3091">Relay</tspan></text>
    <g
       id="g4094">
      <rect
         y="927.06805"
         x="555"
         height="58.235298"
         width="30"
         id="rect4164"
         style="fill:#ffffff;fill-opacity:1;fill-rule:nonzero;stroke:#000000;stroke-width:1.20659959;stroke-miterlimit:4;stroke-opacity:1;stroke-dasharray:none" />
      <rect
         y="933.53864"
         x="560"
         height="38.823532"
         width="20"
         id="rect4166"
         style="fill:#ffffff;fill-opacity:1;fill-rule:nonzero;stroke:#000000;stroke-width:0.80439967;stroke-miterlimit:4;stroke-opacity:1;stroke-dasharray:none" />
      <path
         transform="matrix(0.4,0,0,0.25882349,367,878.77303)"
         d="m 520,386.59448 c 0,6.90356 -5.59644,12.5 -12.5,12.5 -6.90356,0 -12.5,-5.59644 -12.5,-12.5 0,-6.90356 5.59644,-12.5 12.5,-12.5 6.90356,0 12.5,5.59644 12.5,12.5 z"
         sodipodi:ry="12.5"
         sodipodi:rx="12.5"
         sodipodi:cy="386.59448"
         sodipodi:cx="507.5"
         id="path4172"
         style="fill:#ffffff;fill-opacity:1;fill-rule:nonzero;stroke:#000000;stroke-width:1;stroke-miterlimit:4;stroke-opacity:1;stroke-dasharray:none"
         sodipodi:type="arc" />
    </g>
    <path
       style="fill:none;stroke:#000000;stroke-width:0.92477964999999995px;stroke-linecap:butt;stroke-linejoin:miter;stroke-opacity:1;marker-end:url(#Arrow1Lend)"
       d="M 402.86514,802.37013 572.84915,926.63987"
       id="path4174"
       inkscape:connector-curvature="0" />
    <text
       xml:space="preserve"
       style="font-size:16px;font-style:italic;font-variant:normal;font-weight:bold;font-stretch:normal;line-height:125%;letter-spacing:0px;word-spacing:0px;fill:#000000;fill-opacity:1;stroke:none;font-family:LMRoman10;-inkscape-font-specification:LMRoman10 Bold Italic"
       x="626.6875"
       y="902.36218"
       id="text4176"
       sodipodi:linespacing="125%"><tspan
         sodipodi:role="line"
         x="626.6875"
         y="902.36218"
         id="tspan3087"
         style="font-style:italic;font-variant:normal;font-weight:bold;font-stretch:normal;text-align:center;text-anchor:middle;font-family:LMRoman10;-inkscape-font-specification:LMRoman10 Bold Italic">Destino</tspan></text>
    <path
       style="fill:none;stroke:#000000;stroke-width:1;stroke-linecap:square;stroke-linejoin:bevel;stroke-opacity:1;marker-end:url(#Arrow1Lend-93);stroke-miterlimit:4;stroke-dasharray:1,1;stroke-dashoffset:0;fill-opacity:1"
       d="m 119.28571,894.50502 280,-90"
       id="path4154"
       inkscape:connector-curvature="0" />
    <text
       xml:space="preserve"
       style="font-size:16px;font-style:italic;font-variant:normal;font-weight:bold;font-stretch:normal;text-align:center;line-height:125%;letter-spacing:0px;word-spacing:0px;text-anchor:middle;fill:#000000;fill-opacity:1;stroke:none;font-family:LMRoman10;-inkscape-font-specification:LMRoman10 Bold Italic"
       id="text4156-6"
       sodipodi:linespacing="125%"
       transform="translate(48.653601,46.426502)"><textPath
         xlink:href="#path3906"
         startOffset="50%"
         id="textPath3908"></textPath></text>
    <path
       style="opacity:0;fill:none;stroke:#000000;stroke-width:1.10593963px;stroke-linecap:butt;stroke-linejoin:miter;stroke-opacity:1"
       d="m 165.22719,796.80919 119.21984,-35.41"
       id="path3906"
       inkscape:connector-curvature="0" />
    <path
       style="fill:none;stroke:#000000;stroke-width:0.66300000000000003;stroke-linecap:butt;stroke-linejoin:miter;stroke-opacity:1;marker-end:url(#Arrow1Lend);stroke-miterlimit:4;stroke-dasharray:none;opacity:0"
       d="m 498.37716,745.76219 124.1361,89.33663"
       id="path4154-7"
       inkscape:connector-curvature="0" />
    <text
       xml:space="preserve"
       style="font-size:16px;font-style:italic;font-variant:normal;font-weight:bold;font-stretch:normal;line-height:125%;letter-spacing:0px;word-spacing:0px;fill:#000000;fill-opacity:1;stroke:none;font-family:LMRoman10;-inkscape-font-specification:LMRoman10 Bold Italic"
       id="text4158-8"
       sodipodi:linespacing="125%"
       transform="matrix(0.80857665,0,0,-1.8168039,393.13432,2233.5262)"><textPath
         xlink:href="#path3906-3"
         id="textPath4197-2"></textPath></text>
    <text
       xml:space="preserve"
       style="font-size:16px;font-style:italic;font-variant:normal;font-weight:bold;font-stretch:normal;line-height:125%;letter-spacing:0px;word-spacing:0px;fill:#000000;fill-opacity:1;stroke:none;font-family:LMMathSymbols10;-inkscape-font-specification:LMMathSymbols10 Bold Italic"
       x="196.97975"
       y="27.851336"
       id="text6112"
       sodipodi:linespacing="125%"
       transform="translate(0,702.27217)"><tspan
         sodipodi:role="line"
         id="tspan6114" /></text>
    <path
       style="fill:none;stroke:#000000;stroke-width:1.00240111000000010;stroke-linecap:butt;stroke-linejoin:miter;stroke-miterlimit:4;stroke-opacity:1;stroke-dasharray:none;marker-mid:none;marker-end:url(#Arrow1Lend-93-5)"
       d="M 120.46203,894.4009 574.4988,926.86097"
       id="path3171"
       inkscape:connector-curvature="0" />
    <g
       id="g4062">
      <path
         transform="matrix(0.66666649,0,0,0.66666667,-31.66663,736.29915)"
         d="m 235,226.59448 c 0,4.14214 -3.35786,7.5 -7.5,7.5 -4.14214,0 -7.5,-3.35786 -7.5,-7.5 0,-4.14213 3.35786,-7.5 7.5,-7.5 4.14214,0 7.5,3.35787 7.5,7.5 z"
         sodipodi:ry="7.5"
         sodipodi:rx="7.5"
         sodipodi:cy="226.59448"
         sodipodi:cx="227.5"
         id="path4035"
         style="fill:#ffffff;fill-opacity:1;stroke:#000000;stroke-width:1;stroke-miterlimit:4;stroke-opacity:1;stroke-dasharray:none"
         sodipodi:type="arc" />
      <path
         sodipodi:open="true"
         sodipodi:end="2.9912326"
         sodipodi:start="0"
         transform="matrix(0,0.57142857,-0.57142857,0,231.62542,794.505)"
         d="m 180,221.59448 c 0,9.66499 -7.83502,17.5 -17.5,17.5 -8.65268,0 -16.00643,-6.32355 -17.30255,-14.8786"
         sodipodi:ry="17.5"
         sodipodi:rx="17.5"
         sodipodi:cy="221.59448"
         sodipodi:cx="162.5"
         id="path4043"
         style="fill:#ffffff;fill-opacity:1;fill-rule:nonzero;stroke:#000000;stroke-width:1;stroke-miterlimit:4;stroke-opacity:1;stroke-dasharray:none"
         sodipodi:type="arc" />
      <path
         sodipodi:open="true"
         sodipodi:end="2.9912326"
         sodipodi:start="0"
         transform="matrix(0,-0.57142857,0.57142857,0,8.37459,980.33211)"
         d="m 180,221.59448 c 0,9.66499 -7.83502,17.5 -17.5,17.5 -8.65268,0 -16.00643,-6.32355 -17.30255,-14.8786"
         sodipodi:ry="17.5"
         sodipodi:rx="17.5"
         sodipodi:cy="221.59448"
         sodipodi:cx="162.5"
         id="path4043-9"
         style="fill:#ffffff;fill-opacity:1;fill-rule:nonzero;stroke:#000000;stroke-width:1;stroke-miterlimit:4;stroke-opacity:1;stroke-dasharray:none"
         sodipodi:type="arc" />
      <path
         sodipodi:open="true"
         sodipodi:end="2.9912326"
         sodipodi:start="0"
         transform="matrix(0,1,-1,0,339.09448,537.36214)"
         d="m 370,251.59448 c 0,6.90356 -8.95431,12.5 -20,12.5 -9.88878,0 -18.29306,-4.51682 -19.77434,-10.62757"
         sodipodi:ry="12.5"
         sodipodi:rx="20"
         sodipodi:cy="251.59448"
         sodipodi:cx="350"
         id="path4081"
         style="fill:#ffffff;fill-opacity:1;fill-rule:nonzero;stroke:#000000;stroke-width:1;stroke-miterlimit:4;stroke-opacity:1;stroke-dasharray:none"
         sodipodi:type="arc" />
      <path
         sodipodi:open="true"
         sodipodi:end="2.9912326"
         sodipodi:start="0"
         transform="matrix(0,-1,1,0,-94.09448,1237.3622)"
         d="m 370,251.59448 c 0,6.90356 -8.95431,12.5 -20,12.5 -9.88878,0 -18.29306,-4.51682 -19.77434,-10.62757"
         sodipodi:ry="12.5"
         sodipodi:rx="20"
         sodipodi:cy="251.59448"
         sodipodi:cx="350"
         id="path4081-1"
         style="fill:#ffffff;fill-opacity:1;fill-rule:nonzero;stroke:#000000;stroke-width:1;stroke-miterlimit:4;stroke-opacity:1;stroke-dasharray:none"
         sodipodi:type="arc" />
      <path
         sodipodi:open="true"
         sodipodi:end="2.9912326"
         sodipodi:start="0"
         transform="matrix(0,-1.7356931,1.740935,0,-260.64048,1494.6634)"
         d="m 370,251.59448 c 0,6.90356 -8.95431,12.5 -20,12.5 -9.88878,0 -18.29306,-4.51682 -19.77434,-10.62757"
         sodipodi:ry="12.5"
         sodipodi:rx="20"
         sodipodi:cy="251.59448"
         sodipodi:cx="350"
         id="path4081-1-4"
         style="fill:none;stroke:#000000;stroke-width:0.5752707;stroke-miterlimit:4;stroke-opacity:1;stroke-dasharray:none"
         sodipodi:type="arc" />
      <path
         sodipodi:open="true"
         sodipodi:end="2.9912326"
         sodipodi:start="0"
         transform="matrix(0,1.968727,-3.9002767,0,1040.7881,203.43318)"
         d="m 370,251.59448 c 0,6.90356 -8.95431,12.5 -20,12.5 -9.88878,0 -18.29306,-4.51682 -19.77434,-10.62757"
         sodipodi:ry="12.5"
         sodipodi:rx="20"
         sodipodi:cy="251.59448"
         sodipodi:cx="350"
         id="path4081-18-5-2"
         style="fill:none;stroke:#000000;stroke-width:0.36087728;stroke-miterlimit:4;stroke-opacity:1;stroke-dasharray:none"
         sodipodi:type="arc" />
      <path
         sodipodi:open="true"
         sodipodi:end="2.9912326"
         sodipodi:start="0"
         transform="matrix(0,1.968727,3.9002767,0,-780.54156,202.738)"
         d="m 370,251.59448 c 0,6.90356 -8.95431,12.5 -20,12.5 -9.88878,0 -18.29306,-4.51682 -19.77434,-10.62757"
         sodipodi:ry="12.5"
         sodipodi:rx="20"
         sodipodi:cy="251.59448"
         sodipodi:cx="350"
         id="path4081-18-5-24"
         style="fill:none;stroke:#000000;stroke-width:0.36087728;stroke-miterlimit:4;stroke-opacity:1;stroke-dasharray:none"
         sodipodi:type="arc" />
      <path
         sodipodi:open="true"
         sodipodi:end="2.9912326"
         sodipodi:start="0"
         transform="matrix(0,-1.609986,-1.7438226,0,511.01587,1453.5389)"
         d="m 370,251.59448 c 0,6.90356 -8.95431,12.5 -20,12.5 -9.88878,0 -18.29306,-4.51682 -19.77434,-10.62757"
         sodipodi:ry="12.5"
         sodipodi:rx="20"
         sodipodi:cy="251.59448"
         sodipodi:cx="350"
         id="path4081-1-4-5"
         style="fill:none;stroke:#000000;stroke-width:0.57527071;stroke-miterlimit:4;stroke-opacity:1;stroke-dasharray:none"
         sodipodi:type="arc" />
    </g>
    <g
       id="g4073">
      <path
         transform="matrix(0.36363627,0,0,0.37681156,320.00002,713.28307)"
         d="m 235,226.59448 c 0,4.14214 -3.35786,7.5 -7.5,7.5 -4.14214,0 -7.5,-3.35786 -7.5,-7.5 0,-4.14213 3.35786,-7.5 7.5,-7.5 4.14214,0 7.5,3.35787 7.5,7.5 z"
         sodipodi:ry="7.5"
         sodipodi:rx="7.5"
         sodipodi:cy="226.59448"
         sodipodi:cx="227.5"
         id="path4035-6"
         style="fill:#ffffff;fill-opacity:1;stroke:#000000;stroke-width:1;stroke-miterlimit:4;stroke-opacity:1;stroke-dasharray:none"
         sodipodi:type="arc" />
      <path
         sodipodi:open="true"
         sodipodi:end="2.9912326"
         sodipodi:start="0"
         transform="matrix(0,0.32298133,-0.31168831,0,463.61387,746.18203)"
         d="m 180,221.59448 c 0,9.66499 -7.83502,17.5 -17.5,17.5 -8.65268,0 -16.00643,-6.32355 -17.30255,-14.8786"
         sodipodi:ry="17.5"
         sodipodi:rx="17.5"
         sodipodi:cy="221.59448"
         sodipodi:cx="162.5"
         id="path4043-6"
         style="fill:#ffffff;fill-opacity:1;fill-rule:nonzero;stroke:#000000;stroke-width:1;stroke-miterlimit:4;stroke-opacity:1;stroke-dasharray:none"
         sodipodi:type="arc" />
      <path
         sodipodi:open="true"
         sodipodi:end="2.9912326"
         sodipodi:start="0"
         transform="matrix(0,-0.32298133,0.31168831,0,341.84069,851.21473)"
         d="m 180,221.59448 c 0,9.66499 -7.83502,17.5 -17.5,17.5 -8.65268,0 -16.00643,-6.32355 -17.30255,-14.8786"
         sodipodi:ry="17.5"
         sodipodi:rx="17.5"
         sodipodi:cy="221.59448"
         sodipodi:cx="162.5"
         id="path4043-9-0"
         style="fill:#ffffff;fill-opacity:1;fill-rule:nonzero;stroke:#000000;stroke-width:1;stroke-miterlimit:4;stroke-opacity:1;stroke-dasharray:none"
         sodipodi:type="arc" />
      <path
         sodipodi:open="true"
         sodipodi:end="2.9912326"
         sodipodi:start="0"
         transform="matrix(0,0.56521734,-0.54545455,0,522.23335,600.84043)"
         d="m 370,251.59448 c 0,6.90356 -8.95431,12.5 -20,12.5 -9.88878,0 -18.29306,-4.51682 -19.77434,-10.62757"
         sodipodi:ry="12.5"
         sodipodi:rx="20"
         sodipodi:cy="251.59448"
         sodipodi:cx="350"
         id="path4081-3"
         style="fill:#ffffff;fill-opacity:1;fill-rule:nonzero;stroke:#000000;stroke-width:1;stroke-miterlimit:4;stroke-opacity:1;stroke-dasharray:none"
         sodipodi:type="arc" />
      <path
         sodipodi:open="true"
         sodipodi:end="2.9912326"
         sodipodi:start="0"
         transform="matrix(0,-0.56521734,0.54545455,0,285.94847,996.49257)"
         d="m 370,251.59448 c 0,6.90356 -8.95431,12.5 -20,12.5 -9.88878,0 -18.29306,-4.51682 -19.77434,-10.62757"
         sodipodi:ry="12.5"
         sodipodi:rx="20"
         sodipodi:cy="251.59448"
         sodipodi:cx="350"
         id="path4081-1-8"
         style="fill:#ffffff;fill-opacity:1;fill-rule:nonzero;stroke:#000000;stroke-width:1;stroke-miterlimit:4;stroke-opacity:1;stroke-dasharray:none"
         sodipodi:type="arc" />
      <path
         sodipodi:open="true"
         sodipodi:end="2.9912326"
         sodipodi:start="0"
         transform="matrix(0,-1,-1,0,624.59448,1152.0878)"
         d="m 370,251.59448 c 0,6.90356 -8.95431,12.5 -20,12.5 -9.88878,0 -18.29306,-4.51682 -19.77434,-10.62757"
         sodipodi:ry="12.5"
         sodipodi:rx="20"
         sodipodi:cy="251.59448"
         sodipodi:cx="350"
         id="path4081-1-0"
         style="fill:none;fill-opacity:1;fill-rule:nonzero;stroke:#000000;stroke-width:1;stroke-miterlimit:4;stroke-opacity:1;stroke-dasharray:none"
         sodipodi:type="arc" />
      <path
         sodipodi:open="true"
         sodipodi:end="2.9912326"
         sodipodi:start="0"
         transform="matrix(0,-1,1,0,188.90552,1152.0878)"
         d="m 370,251.59448 c 0,6.90356 -8.95431,12.5 -20,12.5 -9.88878,0 -18.29306,-4.51682 -19.77434,-10.62757"
         sodipodi:ry="12.5"
         sodipodi:rx="20"
         sodipodi:cy="251.59448"
         sodipodi:cx="350"
         id="path4081-1-0-6"
         style="fill:none;stroke:#000000;stroke-width:1;stroke-miterlimit:4;stroke-opacity:1;stroke-dasharray:none"
         sodipodi:type="arc" />
      <path
         sodipodi:open="true"
         sodipodi:end="2.9912326"
         sodipodi:start="0"
         transform="matrix(0,1.968727,3.9002767,0,-490.54156,113.43318)"
         d="m 370,251.59448 c 0,6.90356 -8.95431,12.5 -20,12.5 -9.88878,0 -18.29306,-4.51682 -19.77434,-10.62757"
         sodipodi:ry="12.5"
         sodipodi:rx="20"
         sodipodi:cy="251.59448"
         sodipodi:cx="350"
         id="path4081-18-5-24-8"
         style="fill:none;stroke:#000000;stroke-width:0.36087728;stroke-miterlimit:4;stroke-opacity:1;stroke-dasharray:none"
         sodipodi:type="arc" />
      <path
         sodipodi:open="true"
         sodipodi:end="2.9912326"
         sodipodi:start="0"
         transform="matrix(0,1.968727,-3.9002767,0,1325.5416,112.738)"
         d="m 370,251.59448 c 0,6.90356 -8.95431,12.5 -20,12.5 -9.88878,0 -18.29306,-4.51682 -19.77434,-10.62757"
         sodipodi:ry="12.5"
         sodipodi:rx="20"
         sodipodi:cy="251.59448"
         sodipodi:cx="350"
         id="path4081-18-5-24-8-0"
         style="fill:none;stroke:#000000;stroke-width:0.36087728;stroke-miterlimit:4;stroke-opacity:1;stroke-dasharray:none"
         sodipodi:type="arc" />
      <path
         sodipodi:open="true"
         sodipodi:end="2.9912326"
         sodipodi:start="0"
         transform="matrix(0,-1.609986,-1.7438226,0,791.01587,1363.5389)"
         d="m 370,251.59448 c 0,6.90356 -8.95431,12.5 -20,12.5 -9.88878,0 -18.29306,-4.51682 -19.77434,-10.62757"
         sodipodi:ry="12.5"
         sodipodi:rx="20"
         sodipodi:cy="251.59448"
         sodipodi:cx="350"
         id="path4081-1-4-5-2"
         style="fill:none;stroke:#000000;stroke-width:0.57527071;stroke-miterlimit:4;stroke-opacity:1;stroke-dasharray:none"
         sodipodi:type="arc" />
      <path
         sodipodi:open="true"
         sodipodi:end="2.9912326"
         sodipodi:start="0"
         transform="matrix(0,-1.609986,1.7438226,0,26.745799,1368.5389)"
         d="m 370,251.59448 c 0,6.90356 -8.95431,12.5 -20,12.5 -9.88878,0 -18.29306,-4.51682 -19.77434,-10.62757"
         sodipodi:ry="12.5"
         sodipodi:rx="20"
         sodipodi:cy="251.59448"
         sodipodi:cx="350"
         id="path4081-1-4-5-3"
         style="fill:none;stroke:#000000;stroke-width:0.57527071;stroke-miterlimit:4;stroke-opacity:1;stroke-dasharray:none"
         sodipodi:type="arc" />
    </g>
  </g>
</svg>
