<?xml version="1.0" encoding="UTF-8" standalone="no"?>
<!-- Created with Inkscape (http://www.inkscape.org/) -->

<svg
   xmlns:dc="http://purl.org/dc/elements/1.1/"
   xmlns:cc="http://creativecommons.org/ns#"
   xmlns:rdf="http://www.w3.org/1999/02/22-rdf-syntax-ns#"
   xmlns:svg="http://www.w3.org/2000/svg"
   xmlns="http://www.w3.org/2000/svg"
   xmlns:xlink="http://www.w3.org/1999/xlink"
   xmlns:sodipodi="http://sodipodi.sourceforge.net/DTD/sodipodi-0.dtd"
   xmlns:inkscape="http://www.inkscape.org/namespaces/inkscape"
   width="430.35999"
   height="200.09"
   id="svg2"
   version="1.1"
   inkscape:version="0.48.2 r9819"
   sodipodi:docname="schematic.svg">
  <sodipodi:namedview
     id="base"
     pagecolor="#ffffff"
     bordercolor="#666666"
     borderopacity="1.0"
     inkscape:pageopacity="0.0"
     inkscape:pageshadow="2"
     inkscape:zoom="1.4"
     inkscape:cx="303.14245"
     inkscape:cy="129.67336"
     inkscape:document-units="px"
     inkscape:current-layer="layer1"
     showgrid="true"
     inkscape:window-width="1280"
     inkscape:window-height="949"
     inkscape:window-x="0"
     inkscape:window-y="24"
     inkscape:window-maximized="1">
    <inkscape:grid
       snapvisiblegridlinesonly="true"
       enabled="true"
       visible="true"
       empspacing="5"
       id="grid2985"
       type="xygrid" />
  </sodipodi:namedview>
  <defs
     id="defs4">
    <marker
       inkscape:stockid="Arrow1Mend"
       orient="auto"
       refY="0"
       refX="0"
       id="Arrow1Mend"
       style="overflow:visible">
      <path
         id="path4034"
         d="M 0,0 5,-5 -12.5,0 5,5 0,0 z"
         style="fill-rule:evenodd;stroke:#000000;stroke-width:1pt;marker-start:none"
         transform="matrix(-0.4,0,0,-0.4,-4,0)"
         inkscape:connector-curvature="0" />
    </marker>
  </defs>
  <metadata
     id="metadata7">
    <rdf:RDF>
      <cc:Work
         rdf:about="">
        <dc:format>image/svg+xml</dc:format>
        <dc:type
           rdf:resource="http://purl.org/dc/dcmitype/StillImage" />
        <dc:title />
      </cc:Work>
    </rdf:RDF>
  </metadata>
  <g
     transform="translate(0,-852.27217)"
     id="layer1"
     inkscape:groupmode="layer"
     inkscape:label="Camada 1">
    <rect
       y="883.36212"
       x="11"
       height="130"
       width="70"
       id="rect2987"
       style="fill:#ffffff;fill-opacity:1;stroke:#000000;stroke-width:1.23153019;stroke-opacity:1" />
    <rect
       y="883.36212"
       x="131"
       height="130"
       width="70"
       id="rect2987-4"
       style="fill:#ffffff;fill-opacity:1;stroke:#000000;stroke-width:1.23153019;stroke-opacity:1" />
    <rect
       y="883.36212"
       x="251"
       height="130"
       width="70"
       id="rect2987-2"
       style="fill:#ffffff;fill-opacity:1;stroke:#000000;stroke-width:1.23153019;stroke-opacity:1" />
    <text
       xml:space="preserve"
       style="font-size:22px;font-style:italic;font-variant:normal;font-weight:bold;font-stretch:normal;line-height:125%;letter-spacing:0px;word-spacing:0px;fill:#000000;fill-opacity:1;stroke:none;font-family:LMMathSymbols10;-inkscape-font-specification:LMMathSymbols10 Bold Italic"
       x="21"
       y="908.36212"
       id="text3875"
       sodipodi:linespacing="125%"><tspan
         sodipodi:role="line"
         id="tspan3877"
         x="21"
         y="908.36212">ERB</tspan></text>
    <text
       xml:space="preserve"
       style="font-size:22px;font-style:italic;font-variant:normal;font-weight:bold;font-stretch:normal;line-height:125%;letter-spacing:0px;word-spacing:0px;fill:#000000;fill-opacity:1;stroke:none;font-family:LMMathSymbols10;-inkscape-font-specification:LMMathSymbols10 Bold Italic"
       x="271"
       y="908.36212"
       id="text3875-4"
       sodipodi:linespacing="125%"><tspan
         sodipodi:role="line"
         id="tspan3877-4"
         x="271"
         y="908.36212">EA</tspan></text>
    <path
       style="fill:none;stroke:#000000;stroke-width:1px;stroke-linecap:butt;stroke-linejoin:miter;stroke-opacity:1;marker-end:url(#Arrow1Mend)"
       d="m 81,893.36214 50,0"
       id="path3916"
       inkscape:connector-curvature="0" />
    <path
       style="fill:none;stroke:#000000;stroke-width:1px;stroke-linecap:butt;stroke-linejoin:miter;stroke-opacity:1;marker-end:url(#Arrow1Mend)"
       d="m 81,923.36214 50,0"
       id="path3918"
       inkscape:connector-curvature="0" />
    <path
       style="fill:none;stroke:#000000;stroke-width:1px;stroke-linecap:butt;stroke-linejoin:miter;stroke-opacity:1;marker-end:url(#Arrow1Mend)"
       d="m 81,953.36214 50,0"
       id="path3920"
       inkscape:connector-curvature="0" />
    <path
       style="fill:none;stroke:#000000;stroke-width:1;stroke-linecap:butt;stroke-linejoin:miter;stroke-miterlimit:4;stroke-opacity:1;stroke-dasharray:1, 1;stroke-dashoffset:0"
       d="m 91,958.36214 0,30"
       id="path3922"
       inkscape:connector-curvature="0" />
    <path
       style="fill:none;stroke:#000000;stroke-width:1;stroke-linecap:butt;stroke-linejoin:miter;stroke-miterlimit:4;stroke-opacity:1;stroke-dasharray:1, 1;stroke-dashoffset:0"
       d="m 121,958.36214 0,30"
       id="path3924"
       inkscape:connector-curvature="0" />
    <path
       style="fill:none;stroke:#000000;stroke-width:1;stroke-linecap:butt;stroke-linejoin:miter;stroke-miterlimit:4;stroke-opacity:1;stroke-dasharray:1, 1;stroke-dashoffset:0"
       d="m 211,958.36214 0,30"
       id="path3922-0"
       inkscape:connector-curvature="0" />
    <path
       style="fill:none;stroke:#000000;stroke-width:1;stroke-linecap:butt;stroke-linejoin:miter;stroke-miterlimit:4;stroke-opacity:1;stroke-dasharray:1, 1;stroke-dashoffset:0"
       d="m 241,958.36214 0,30"
       id="path3924-5"
       inkscape:connector-curvature="0" />
    <path
       style="fill:none;stroke:#000000;stroke-width:1px;stroke-linecap:butt;stroke-linejoin:miter;stroke-opacity:1;marker-mid:none;marker-end:url(#Arrow1Mend)"
       d="m 201,893.36214 50,0"
       id="path3916-1"
       inkscape:connector-curvature="0" />
    <path
       style="fill:none;stroke:#000000;stroke-width:1px;stroke-linecap:butt;stroke-linejoin:miter;stroke-opacity:1;marker-mid:none;marker-end:url(#Arrow1Mend)"
       d="m 201,923.36214 50,0"
       id="path3918-1"
       inkscape:connector-curvature="0" />
    <path
       style="fill:none;stroke:#000000;stroke-width:1px;stroke-linecap:butt;stroke-linejoin:miter;stroke-opacity:1;marker-mid:none;marker-end:url(#Arrow1Mend)"
       d="m 201,953.36214 50,0"
       id="path3920-4"
       inkscape:connector-curvature="0" />
    <path
       style="fill:none;stroke:#000000;stroke-width:1px;stroke-linecap:butt;stroke-linejoin:miter;stroke-opacity:1;marker-end:url(#Arrow1Mend)"
       d="m 81,1003.3622 50,0"
       id="path3971"
       inkscape:connector-curvature="0" />
    <path
       style="fill:none;stroke:#000000;stroke-width:1px;stroke-linecap:butt;stroke-linejoin:miter;stroke-opacity:1;marker-end:url(#Arrow1Mend)"
       d="m 201,1003.3622 50,0"
       id="path3973"
       inkscape:connector-curvature="0" />
    <path
       style="fill:none;stroke:#ff0000;stroke-width:1;stroke-linecap:butt;stroke-linejoin:miter;stroke-miterlimit:4;stroke-opacity:1;stroke-dasharray:1, 1;stroke-dashoffset:0"
       d="m 131,893.36214 70,110.00006"
       id="path3975"
       inkscape:connector-curvature="0" />
    <path
       style="fill:none;stroke:#ff0000;stroke-width:1;stroke-linecap:butt;stroke-linejoin:miter;stroke-miterlimit:4;stroke-opacity:1;stroke-dasharray:1, 1;stroke-dashoffset:0"
       d="m 131,923.36214 70,30"
       id="path3977"
       inkscape:connector-curvature="0" />
    <path
       style="fill:none;stroke:#ff0000;stroke-width:1;stroke-linecap:butt;stroke-linejoin:miter;stroke-miterlimit:4;stroke-opacity:1;stroke-dasharray:1, 1;stroke-dashoffset:0"
       d="m 131,953.36214 70,-30"
       id="path3979"
       inkscape:connector-curvature="0" />
    <path
       style="fill:none;stroke:#ff0000;stroke-width:1;stroke-linecap:butt;stroke-linejoin:miter;stroke-miterlimit:4;stroke-opacity:1;stroke-dasharray:1, 1;stroke-dashoffset:0"
       d="M 131,1003.3622 201,893.36214"
       id="path3981"
       inkscape:connector-curvature="0" />
    <text
       xml:space="preserve"
       style="font-size:22px;font-style:italic;font-variant:normal;font-weight:bold;font-stretch:normal;line-height:125%;letter-spacing:0px;word-spacing:0px;fill:#000000;fill-opacity:1;stroke:none;font-family:LMMathSymbols10;-inkscape-font-specification:LMMathSymbols10 Bold Italic"
       x="146"
       y="908.36212"
       id="text3875-0"
       sodipodi:linespacing="125%"><tspan
         sodipodi:role="line"
         id="tspan3877-5"
         x="146"
         y="908.36212">ER</tspan></text>
    <g
       transform="matrix(1.7795822,0,0,1.7719861,-40.11785,774.05669)"
       id="equation_00"
       style="fill:#000000">
      <defs
         id="defs5046">
        <path
           inkscape:connector-curvature="0"
           d="m 3.017,-2.632 c -0.182,0.042 -0.294,0.189 -0.294,0.329 0,0.161 0.14,0.224 0.231,0.224 0.07,0 0.336,-0.042 0.336,-0.399 0,-0.455 -0.504,-0.609 -0.931,-0.609 -1.092,0 -1.288,0.805 -1.288,1.022 0,0.259 0.147,0.427 0.245,0.511 0.182,0.14 0.308,0.168 0.791,0.252 0.147,0.028 0.595,0.112 0.595,0.462 0,0.119 -0.077,0.385 -0.371,0.56 -0.273,0.154 -0.616,0.154 -0.7,0.154 -0.28,0 -0.679,-0.063 -0.84,-0.294 0.231,-0.028 0.385,-0.203 0.385,-0.399 0,-0.175 -0.126,-0.259 -0.273,-0.259 -0.203,0 -0.406,0.161 -0.406,0.469 0,0.42 0.448,0.679 1.127,0.679 1.288,0 1.526,-0.882 1.526,-1.155 0,-0.644 -0.707,-0.77 -0.966,-0.819 C 2.121,-1.918 1.946,-1.946 1.904,-1.96 1.645,-2.009 1.519,-2.156 1.519,-2.31 c 0,-0.161 0.126,-0.35 0.28,-0.448 0.189,-0.119 0.434,-0.133 0.553,-0.133 0.147,0 0.511,0.021 0.665,0.259 z"
           id="equation_00_00" />
        <path
           inkscape:connector-curvature="0"
           d="m 2.65,-3.73 h 1.13 c -0.33,1.48 -0.42,1.91 -0.42,2.58 0,0.15 0,0.42 0.08,0.76 0.1,0.44 0.21,0.5 0.36,0.5 0.2,0 0.41,-0.18 0.41,-0.38 0,-0.06 0,-0.08 -0.06,-0.22 -0.29,-0.72 -0.29,-1.37 -0.29,-1.65 0,-0.53 0.07,-1.07 0.18,-1.59 h 1.14 c 0.13,0 0.49,0 0.49,-0.34 0,-0.24 -0.21,-0.24 -0.4,-0.24 H 1.92 c -0.22,0 -0.6,0 -1.04,0.47 -0.35,0.39 -0.61,0.85 -0.61,0.9 0,0.01 0,0.1 0.12,0.1 0.08,0 0.1,-0.04 0.16,-0.12 0.49,-0.77 1.07,-0.77 1.27,-0.77 h 0.57 c -0.32,1.21 -0.86,2.42 -1.28,3.33 -0.08,0.15 -0.08,0.17 -0.08,0.24 0,0.19 0.16,0.27 0.29,0.27 0.3,0 0.38,-0.28 0.5,-0.65 C 1.96,-1 1.96,-1.02 2.09,-1.52 l 0.56,-2.21 z"
           id="equation_00_01" />
        <path
           inkscape:connector-curvature="0"
           d="m 2.345,-4.452 c 0,-0.189 -0.014,-0.196 -0.21,-0.196 C 1.687,-4.207 1.05,-4.2 0.763,-4.2 v 0.252 c 0.168,0 0.63,0 1.015,-0.196 v 3.57 c 0,0.231 0,0.322 -0.7,0.322 H 0.812 V 0 c 0.126,-0.007 0.987,-0.028 1.246,-0.028 0.217,0 1.099,0.021 1.253,0.028 V -0.252 H 3.045 c -0.7,0 -0.7,-0.091 -0.7,-0.322 v -3.878 z"
           id="equation_00_02" />
      </defs>
      <g
         id="equation_00_g">
        <use
           height="744.09448"
           width="1052.3622"
           x="77"
           xlink:href="#equation_00_01"
           y="63"
           id="use5052" />
        <use
           height="744.09448"
           width="1052.3622"
           x="83.059097"
           xlink:href="#equation_00_00"
           y="59.371101"
           id="use5054" />
        <use
           height="744.09448"
           width="1052.3622"
           x="82.700302"
           xlink:href="#equation_00_02"
           y="65.482101"
           id="use5056" />
      </g>
    </g>
    <g
       transform="matrix(1.7795822,0,0,1.7720156,-41.49204,803.84059)"
       style="fill:#000000"
       id="equation_01">
      <defs
         id="defs5189">
        <path
           inkscape:connector-curvature="0"
           id="equation_01_00"
           d="m 3.017,-2.632 c -0.182,0.042 -0.294,0.189 -0.294,0.329 0,0.161 0.14,0.224 0.231,0.224 0.07,0 0.336,-0.042 0.336,-0.399 0,-0.455 -0.504,-0.609 -0.931,-0.609 -1.092,0 -1.288,0.805 -1.288,1.022 0,0.259 0.147,0.427 0.245,0.511 0.182,0.14 0.308,0.168 0.791,0.252 0.147,0.028 0.595,0.112 0.595,0.462 0,0.119 -0.077,0.385 -0.371,0.56 -0.273,0.154 -0.616,0.154 -0.7,0.154 -0.28,0 -0.679,-0.063 -0.84,-0.294 0.231,-0.028 0.385,-0.203 0.385,-0.399 0,-0.175 -0.126,-0.259 -0.273,-0.259 -0.203,0 -0.406,0.161 -0.406,0.469 0,0.42 0.448,0.679 1.127,0.679 1.288,0 1.526,-0.882 1.526,-1.155 0,-0.644 -0.707,-0.77 -0.966,-0.819 C 2.121,-1.918 1.946,-1.946 1.904,-1.96 1.645,-2.009 1.519,-2.156 1.519,-2.31 c 0,-0.161 0.126,-0.35 0.28,-0.448 0.189,-0.119 0.434,-0.133 0.553,-0.133 0.147,0 0.511,0.021 0.665,0.259 z" />
        <path
           inkscape:connector-curvature="0"
           id="equation_01_01"
           d="m 2.65,-3.73 h 1.13 c -0.33,1.48 -0.42,1.91 -0.42,2.58 0,0.15 0,0.42 0.08,0.76 0.1,0.44 0.21,0.5 0.36,0.5 0.2,0 0.41,-0.18 0.41,-0.38 0,-0.06 0,-0.08 -0.06,-0.22 -0.29,-0.72 -0.29,-1.37 -0.29,-1.65 0,-0.53 0.07,-1.07 0.18,-1.59 h 1.14 c 0.13,0 0.49,0 0.49,-0.34 0,-0.24 -0.21,-0.24 -0.4,-0.24 H 1.92 c -0.22,0 -0.6,0 -1.04,0.47 -0.35,0.39 -0.61,0.85 -0.61,0.9 0,0.01 0,0.1 0.12,0.1 0.08,0 0.1,-0.04 0.16,-0.12 0.49,-0.77 1.07,-0.77 1.27,-0.77 h 0.57 c -0.32,1.21 -0.86,2.42 -1.28,3.33 -0.08,0.15 -0.08,0.17 -0.08,0.24 0,0.19 0.16,0.27 0.29,0.27 0.3,0 0.38,-0.28 0.5,-0.65 C 1.96,-1 1.96,-1.02 2.09,-1.52 l 0.56,-2.21 z" />
        <path
           inkscape:connector-curvature="0"
           id="equation_01_02"
           d="M 3.535,-1.274 H 3.297 C 3.276,-1.12 3.206,-0.707 3.115,-0.637 3.059,-0.595 2.52,-0.595 2.422,-0.595 H 1.134 c 0.735,-0.651 0.98,-0.847 1.4,-1.176 0.518,-0.413 1.001,-0.847 1.001,-1.512 0,-0.847 -0.742,-1.365 -1.638,-1.365 -0.868,0 -1.456,0.609 -1.456,1.253 0,0.357 0.301,0.392 0.371,0.392 0.168,0 0.371,-0.119 0.371,-0.371 0,-0.126 -0.049,-0.371 -0.413,-0.371 0.217,-0.497 0.693,-0.651 1.022,-0.651 0.7,0 1.064,0.546 1.064,1.113 0,0.609 -0.434,1.092 -0.658,1.344 L 0.511,-0.273 C 0.441,-0.21 0.441,-0.196 0.441,0 h 2.884 l 0.21,-1.274 z" />
      </defs>
      <g
         id="equation_01_g">
        <use
           height="1052.3622"
           width="744.09448"
           id="use5195"
           y="63"
           xlink:href="#equation_01_01"
           x="77" />
        <use
           height="1052.3622"
           width="744.09448"
           id="use5197"
           y="59.371101"
           xlink:href="#equation_01_00"
           x="83.059097" />
        <use
           height="1052.3622"
           width="744.09448"
           id="use5199"
           y="65.482101"
           xlink:href="#equation_01_02"
           x="82.700302" />
      </g>
    </g>
    <g
       id="equation_02"
       style="fill:#000000"
       transform="matrix(1.7795822,0,0,1.7454487,-43.8458,834.70043)">
      <defs
         id="defs5350">
        <path
           d="m 3.017,-2.632 c -0.182,0.042 -0.294,0.189 -0.294,0.329 0,0.161 0.14,0.224 0.231,0.224 0.07,0 0.336,-0.042 0.336,-0.399 0,-0.455 -0.504,-0.609 -0.931,-0.609 -1.092,0 -1.288,0.805 -1.288,1.022 0,0.259 0.147,0.427 0.245,0.511 0.182,0.14 0.308,0.168 0.791,0.252 0.147,0.028 0.595,0.112 0.595,0.462 0,0.119 -0.077,0.385 -0.371,0.56 -0.273,0.154 -0.616,0.154 -0.7,0.154 -0.28,0 -0.679,-0.063 -0.84,-0.294 0.231,-0.028 0.385,-0.203 0.385,-0.399 0,-0.175 -0.126,-0.259 -0.273,-0.259 -0.203,0 -0.406,0.161 -0.406,0.469 0,0.42 0.448,0.679 1.127,0.679 1.288,0 1.526,-0.882 1.526,-1.155 0,-0.644 -0.707,-0.77 -0.966,-0.819 C 2.121,-1.918 1.946,-1.946 1.904,-1.96 1.645,-2.009 1.519,-2.156 1.519,-2.31 c 0,-0.161 0.126,-0.35 0.28,-0.448 0.189,-0.119 0.434,-0.133 0.553,-0.133 0.147,0 0.511,0.021 0.665,0.259 z"
           id="equation_02_00"
           inkscape:connector-curvature="0" />
        <path
           d="m 2.65,-3.73 h 1.13 c -0.33,1.48 -0.42,1.91 -0.42,2.58 0,0.15 0,0.42 0.08,0.76 0.1,0.44 0.21,0.5 0.36,0.5 0.2,0 0.41,-0.18 0.41,-0.38 0,-0.06 0,-0.08 -0.06,-0.22 -0.29,-0.72 -0.29,-1.37 -0.29,-1.65 0,-0.53 0.07,-1.07 0.18,-1.59 h 1.14 c 0.13,0 0.49,0 0.49,-0.34 0,-0.24 -0.21,-0.24 -0.4,-0.24 H 1.92 c -0.22,0 -0.6,0 -1.04,0.47 -0.35,0.39 -0.61,0.85 -0.61,0.9 0,0.01 0,0.1 0.12,0.1 0.08,0 0.1,-0.04 0.16,-0.12 0.49,-0.77 1.07,-0.77 1.27,-0.77 h 0.57 c -0.32,1.21 -0.86,2.42 -1.28,3.33 -0.08,0.15 -0.08,0.17 -0.08,0.24 0,0.19 0.16,0.27 0.29,0.27 0.3,0 0.38,-0.28 0.5,-0.65 C 1.96,-1 1.96,-1.02 2.09,-1.52 l 0.56,-2.21 z"
           id="equation_02_01"
           inkscape:connector-curvature="0" />
        <path
           d="m 1.911,-2.338 c 0.546,0 0.938,0.378 0.938,1.127 0,0.868 -0.504,1.127 -0.91,1.127 -0.28,0 -0.896,-0.077 -1.19,-0.49 0.329,-0.014 0.406,-0.245 0.406,-0.392 0,-0.224 -0.168,-0.385 -0.385,-0.385 -0.196,0 -0.392,0.119 -0.392,0.406 0,0.658 0.728,1.085 1.575,1.085 0.973,0 1.645,-0.651 1.645,-1.351 0,-0.546 -0.448,-1.092 -1.218,-1.253 0.735,-0.266 1.001,-0.791 1.001,-1.218 0,-0.553 -0.637,-0.966 -1.414,-0.966 -0.777,0 -1.372,0.378 -1.372,0.938 0,0.238 0.154,0.371 0.364,0.371 0.217,0 0.357,-0.161 0.357,-0.357 0,-0.203 -0.14,-0.35 -0.357,-0.364 0.245,-0.308 0.728,-0.385 0.987,-0.385 0.315,0 0.756,0.154 0.756,0.763 0,0.294 -0.098,0.616 -0.28,0.833 -0.231,0.266 -0.427,0.28 -0.777,0.301 -0.175,0.014 -0.189,0.014 -0.224,0.021 -0.014,0 -0.07,0.014 -0.07,0.091 0,0.098 0.063,0.098 0.182,0.098 h 0.378 z"
           id="equation_02_02"
           inkscape:connector-curvature="0" />
      </defs>
      <g
         id="equation_02_g">
        <use
           x="77"
           xlink:href="#equation_02_01"
           y="63"
           id="use5356"
           width="744.09448"
           height="1052.3622" />
        <use
           x="83.059097"
           xlink:href="#equation_02_00"
           y="59.371101"
           id="use5358"
           width="744.09448"
           height="1052.3622" />
        <use
           x="82.700302"
           xlink:href="#equation_02_02"
           y="65.482101"
           id="use5360"
           width="744.09448"
           height="1052.3622" />
      </g>
    </g>
    <g
       transform="matrix(1.7237632,0,0,1.7454487,84.4497,833.17014)"
       style="fill:#000000"
       id="equation_05">
      <defs
         id="defs5941">
        <path
           inkscape:connector-curvature="0"
           id="equation_05_00"
           d="m 1.645,-1.414 c 0.007,-0.042 0.168,-0.672 0.182,-0.707 0.014,-0.056 0.217,-0.406 0.441,-0.574 0.077,-0.056 0.266,-0.196 0.567,-0.196 0.07,0 0.245,0.007 0.385,0.098 -0.224,0.063 -0.308,0.259 -0.308,0.385 0,0.154 0.119,0.259 0.28,0.259 0.161,0 0.392,-0.133 0.392,-0.427 0,-0.364 -0.385,-0.511 -0.742,-0.511 -0.364,0 -0.679,0.147 -0.987,0.497 -0.126,-0.427 -0.553,-0.497 -0.721,-0.497 -0.259,0 -0.434,0.161 -0.546,0.357 -0.161,0.273 -0.259,0.679 -0.259,0.714 0,0.091 0.098,0.091 0.119,0.091 0.098,0 0.105,-0.021 0.154,-0.21 0.105,-0.427 0.238,-0.756 0.511,-0.756 0.182,0 0.231,0.154 0.231,0.343 0,0.133 -0.063,0.392 -0.112,0.581 -0.049,0.189 -0.119,0.476 -0.154,0.63 l -0.224,0.896 c -0.028,0.091 -0.07,0.266 -0.07,0.287 0,0.154 0.126,0.224 0.238,0.224 0.105,0 0.245,-0.063 0.301,-0.203 0.014,-0.042 0.091,-0.35 0.133,-0.525 l 0.189,-0.756 z" />
        <path
           inkscape:connector-curvature="0"
           id="equation_05_01"
           d="m 2.65,-3.73 h 1.13 c -0.33,1.48 -0.42,1.91 -0.42,2.58 0,0.15 0,0.42 0.08,0.76 0.1,0.44 0.21,0.5 0.36,0.5 0.2,0 0.41,-0.18 0.41,-0.38 0,-0.06 0,-0.08 -0.06,-0.22 -0.29,-0.72 -0.29,-1.37 -0.29,-1.65 0,-0.53 0.07,-1.07 0.18,-1.59 h 1.14 c 0.13,0 0.49,0 0.49,-0.34 0,-0.24 -0.21,-0.24 -0.4,-0.24 H 1.92 c -0.22,0 -0.6,0 -1.04,0.47 -0.35,0.39 -0.61,0.85 -0.61,0.9 0,0.01 0,0.1 0.12,0.1 0.08,0 0.1,-0.04 0.16,-0.12 0.49,-0.77 1.07,-0.77 1.27,-0.77 h 0.57 c -0.32,1.21 -0.86,2.42 -1.28,3.33 -0.08,0.15 -0.08,0.17 -0.08,0.24 0,0.19 0.16,0.27 0.29,0.27 0.3,0 0.38,-0.28 0.5,-0.65 C 1.96,-1 1.96,-1.02 2.09,-1.52 l 0.56,-2.21 z" />
        <path
           inkscape:connector-curvature="0"
           id="equation_05_02"
           d="m 1.911,-2.338 c 0.546,0 0.938,0.378 0.938,1.127 0,0.868 -0.504,1.127 -0.91,1.127 -0.28,0 -0.896,-0.077 -1.19,-0.49 0.329,-0.014 0.406,-0.245 0.406,-0.392 0,-0.224 -0.168,-0.385 -0.385,-0.385 -0.196,0 -0.392,0.119 -0.392,0.406 0,0.658 0.728,1.085 1.575,1.085 0.973,0 1.645,-0.651 1.645,-1.351 0,-0.546 -0.448,-1.092 -1.218,-1.253 0.735,-0.266 1.001,-0.791 1.001,-1.218 0,-0.553 -0.637,-0.966 -1.414,-0.966 -0.777,0 -1.372,0.378 -1.372,0.938 0,0.238 0.154,0.371 0.364,0.371 0.217,0 0.357,-0.161 0.357,-0.357 0,-0.203 -0.14,-0.35 -0.357,-0.364 0.245,-0.308 0.728,-0.385 0.987,-0.385 0.315,0 0.756,0.154 0.756,0.763 0,0.294 -0.098,0.616 -0.28,0.833 -0.231,0.266 -0.427,0.28 -0.777,0.301 -0.175,0.014 -0.189,0.014 -0.224,0.021 -0.014,0 -0.07,0.014 -0.07,0.091 0,0.098 0.063,0.098 0.182,0.098 h 0.378 z" />
      </defs>
      <g
         id="equation_05_g">
        <use
           height="1052.3622"
           width="744.09448"
           id="use5947"
           y="63"
           xlink:href="#equation_05_01"
           x="77" />
        <use
           height="1052.3622"
           width="744.09448"
           id="use5949"
           y="59.371101"
           xlink:href="#equation_05_00"
           x="83.059097" />
        <use
           height="1052.3622"
           width="744.09448"
           id="use5951"
           y="65.482101"
           xlink:href="#equation_05_02"
           x="82.700302" />
      </g>
    </g>
    <g
       id="equation_06"
       style="fill:#000000"
       transform="matrix(1.7237632,0,0,1.7720156,83.74296,803.84059)">
      <defs
         id="defs6174">
        <path
           d="m 1.645,-1.414 c 0.007,-0.042 0.168,-0.672 0.182,-0.707 0.014,-0.056 0.217,-0.406 0.441,-0.574 0.077,-0.056 0.266,-0.196 0.567,-0.196 0.07,0 0.245,0.007 0.385,0.098 -0.224,0.063 -0.308,0.259 -0.308,0.385 0,0.154 0.119,0.259 0.28,0.259 0.161,0 0.392,-0.133 0.392,-0.427 0,-0.364 -0.385,-0.511 -0.742,-0.511 -0.364,0 -0.679,0.147 -0.987,0.497 -0.126,-0.427 -0.553,-0.497 -0.721,-0.497 -0.259,0 -0.434,0.161 -0.546,0.357 -0.161,0.273 -0.259,0.679 -0.259,0.714 0,0.091 0.098,0.091 0.119,0.091 0.098,0 0.105,-0.021 0.154,-0.21 0.105,-0.427 0.238,-0.756 0.511,-0.756 0.182,0 0.231,0.154 0.231,0.343 0,0.133 -0.063,0.392 -0.112,0.581 -0.049,0.189 -0.119,0.476 -0.154,0.63 l -0.224,0.896 c -0.028,0.091 -0.07,0.266 -0.07,0.287 0,0.154 0.126,0.224 0.238,0.224 0.105,0 0.245,-0.063 0.301,-0.203 0.014,-0.042 0.091,-0.35 0.133,-0.525 l 0.189,-0.756 z"
           id="equation_06_00"
           inkscape:connector-curvature="0" />
        <path
           d="m 2.65,-3.73 h 1.13 c -0.33,1.48 -0.42,1.91 -0.42,2.58 0,0.15 0,0.42 0.08,0.76 0.1,0.44 0.21,0.5 0.36,0.5 0.2,0 0.41,-0.18 0.41,-0.38 0,-0.06 0,-0.08 -0.06,-0.22 -0.29,-0.72 -0.29,-1.37 -0.29,-1.65 0,-0.53 0.07,-1.07 0.18,-1.59 h 1.14 c 0.13,0 0.49,0 0.49,-0.34 0,-0.24 -0.21,-0.24 -0.4,-0.24 H 1.92 c -0.22,0 -0.6,0 -1.04,0.47 -0.35,0.39 -0.61,0.85 -0.61,0.9 0,0.01 0,0.1 0.12,0.1 0.08,0 0.1,-0.04 0.16,-0.12 0.49,-0.77 1.07,-0.77 1.27,-0.77 h 0.57 c -0.32,1.21 -0.86,2.42 -1.28,3.33 -0.08,0.15 -0.08,0.17 -0.08,0.24 0,0.19 0.16,0.27 0.29,0.27 0.3,0 0.38,-0.28 0.5,-0.65 C 1.96,-1 1.96,-1.02 2.09,-1.52 l 0.56,-2.21 z"
           id="equation_06_01"
           inkscape:connector-curvature="0" />
        <path
           d="M 3.535,-1.274 H 3.297 C 3.276,-1.12 3.206,-0.707 3.115,-0.637 3.059,-0.595 2.52,-0.595 2.422,-0.595 H 1.134 c 0.735,-0.651 0.98,-0.847 1.4,-1.176 0.518,-0.413 1.001,-0.847 1.001,-1.512 0,-0.847 -0.742,-1.365 -1.638,-1.365 -0.868,0 -1.456,0.609 -1.456,1.253 0,0.357 0.301,0.392 0.371,0.392 0.168,0 0.371,-0.119 0.371,-0.371 0,-0.126 -0.049,-0.371 -0.413,-0.371 0.217,-0.497 0.693,-0.651 1.022,-0.651 0.7,0 1.064,0.546 1.064,1.113 0,0.609 -0.434,1.092 -0.658,1.344 L 0.511,-0.273 C 0.441,-0.21 0.441,-0.196 0.441,0 h 2.884 l 0.21,-1.274 z"
           id="equation_06_02"
           inkscape:connector-curvature="0" />
      </defs>
      <g
         id="equation_06_g">
        <use
           x="77"
           xlink:href="#equation_06_01"
           y="63"
           id="use6180"
           width="744.09448"
           height="1052.3622" />
        <use
           x="83.059097"
           xlink:href="#equation_06_00"
           y="59.371101"
           id="use6182"
           width="744.09448"
           height="1052.3622" />
        <use
           x="82.700302"
           xlink:href="#equation_06_02"
           y="65.482101"
           id="use6184"
           width="744.09448"
           height="1052.3622" />
      </g>
    </g>
    <g
       transform="matrix(1.7237632,0,0,1.7720156,84.4497,773.16722)"
       style="fill:#000000"
       id="equation_07">
      <defs
         id="defs6425">
        <path
           inkscape:connector-curvature="0"
           id="equation_07_00"
           d="m 1.645,-1.414 c 0.007,-0.042 0.168,-0.672 0.182,-0.707 0.014,-0.056 0.217,-0.406 0.441,-0.574 0.077,-0.056 0.266,-0.196 0.567,-0.196 0.07,0 0.245,0.007 0.385,0.098 -0.224,0.063 -0.308,0.259 -0.308,0.385 0,0.154 0.119,0.259 0.28,0.259 0.161,0 0.392,-0.133 0.392,-0.427 0,-0.364 -0.385,-0.511 -0.742,-0.511 -0.364,0 -0.679,0.147 -0.987,0.497 -0.126,-0.427 -0.553,-0.497 -0.721,-0.497 -0.259,0 -0.434,0.161 -0.546,0.357 -0.161,0.273 -0.259,0.679 -0.259,0.714 0,0.091 0.098,0.091 0.119,0.091 0.098,0 0.105,-0.021 0.154,-0.21 0.105,-0.427 0.238,-0.756 0.511,-0.756 0.182,0 0.231,0.154 0.231,0.343 0,0.133 -0.063,0.392 -0.112,0.581 -0.049,0.189 -0.119,0.476 -0.154,0.63 l -0.224,0.896 c -0.028,0.091 -0.07,0.266 -0.07,0.287 0,0.154 0.126,0.224 0.238,0.224 0.105,0 0.245,-0.063 0.301,-0.203 0.014,-0.042 0.091,-0.35 0.133,-0.525 l 0.189,-0.756 z" />
        <path
           inkscape:connector-curvature="0"
           id="equation_07_01"
           d="m 2.65,-3.73 h 1.13 c -0.33,1.48 -0.42,1.91 -0.42,2.58 0,0.15 0,0.42 0.08,0.76 0.1,0.44 0.21,0.5 0.36,0.5 0.2,0 0.41,-0.18 0.41,-0.38 0,-0.06 0,-0.08 -0.06,-0.22 -0.29,-0.72 -0.29,-1.37 -0.29,-1.65 0,-0.53 0.07,-1.07 0.18,-1.59 h 1.14 c 0.13,0 0.49,0 0.49,-0.34 0,-0.24 -0.21,-0.24 -0.4,-0.24 H 1.92 c -0.22,0 -0.6,0 -1.04,0.47 -0.35,0.39 -0.61,0.85 -0.61,0.9 0,0.01 0,0.1 0.12,0.1 0.08,0 0.1,-0.04 0.16,-0.12 0.49,-0.77 1.07,-0.77 1.27,-0.77 h 0.57 c -0.32,1.21 -0.86,2.42 -1.28,3.33 -0.08,0.15 -0.08,0.17 -0.08,0.24 0,0.19 0.16,0.27 0.29,0.27 0.3,0 0.38,-0.28 0.5,-0.65 C 1.96,-1 1.96,-1.02 2.09,-1.52 l 0.56,-2.21 z" />
        <path
           inkscape:connector-curvature="0"
           id="equation_07_02"
           d="m 2.345,-4.452 c 0,-0.189 -0.014,-0.196 -0.21,-0.196 C 1.687,-4.207 1.05,-4.2 0.763,-4.2 v 0.252 c 0.168,0 0.63,0 1.015,-0.196 v 3.57 c 0,0.231 0,0.322 -0.7,0.322 H 0.812 V 0 c 0.126,-0.007 0.987,-0.028 1.246,-0.028 0.217,0 1.099,0.021 1.253,0.028 V -0.252 H 3.045 c -0.7,0 -0.7,-0.091 -0.7,-0.322 v -3.878 z" />
      </defs>
      <g
         id="equation_07_g">
        <use
           height="1052.3622"
           width="744.09448"
           id="use6431"
           y="63"
           xlink:href="#equation_07_01"
           x="77" />
        <use
           height="1052.3622"
           width="744.09448"
           id="use6433"
           y="59.371101"
           xlink:href="#equation_07_00"
           x="83.059097" />
        <use
           height="1052.3622"
           width="744.09448"
           id="use6435"
           y="65.482101"
           xlink:href="#equation_07_02"
           x="82.700302" />
      </g>
    </g>
    <g
       id="equation_08"
       style="fill:#000000"
       transform="matrix(1.7189574,0,0,1.6946353,84.46624,890.21268)">
      <defs
         id="defs6694">
        <path
           d="m 2.191,-4.648 c 0.007,-0.014 0.028,-0.105 0.028,-0.112 0,-0.035 -0.028,-0.098 -0.112,-0.098 -0.14,0 -0.721,0.056 -0.896,0.07 -0.056,0.007 -0.154,0.014 -0.154,0.161 0,0.098 0.098,0.098 0.182,0.098 0.336,0 0.336,0.049 0.336,0.105 0,0.049 -0.014,0.091 -0.028,0.154 L 0.56,-0.308 c -0.035,0.126 -0.035,0.14 -0.035,0.154 0,0.105 0.084,0.224 0.238,0.224 0.189,0 0.28,-0.14 0.322,-0.294 0.014,-0.028 0.315,-1.26 0.343,-1.358 0.497,0.049 0.896,0.21 0.896,0.574 0,0.035 0,0.07 -0.014,0.14 -0.028,0.105 -0.028,0.14 -0.028,0.217 0,0.497 0.406,0.721 0.742,0.721 0.679,0 0.889,-1.064 0.889,-1.071 0,-0.091 -0.091,-0.091 -0.112,-0.091 -0.098,0 -0.105,0.035 -0.14,0.168 -0.084,0.301 -0.273,0.798 -0.616,0.798 -0.189,0 -0.245,-0.175 -0.245,-0.364 0,-0.119 0,-0.133 0.042,-0.315 0.007,-0.021 0.035,-0.14 0.035,-0.217 0,-0.623 -0.84,-0.721 -1.134,-0.742 0.203,-0.126 0.462,-0.357 0.581,-0.462 0.357,-0.336 0.707,-0.665 1.099,-0.665 0.084,0 0.175,0.021 0.231,0.091 -0.301,0.049 -0.364,0.287 -0.364,0.392 0,0.154 0.119,0.259 0.28,0.259 0.189,0 0.399,-0.154 0.399,-0.448 0,-0.231 -0.168,-0.49 -0.539,-0.49 -0.399,0 -0.763,0.287 -1.12,0.616 -0.294,0.28 -0.525,0.497 -0.812,0.616 l 0.693,-2.793 z"
           id="equation_08_00"
           inkscape:connector-curvature="0" />
        <path
           d="m 1.645,-1.414 c 0.007,-0.042 0.168,-0.672 0.182,-0.707 0.014,-0.056 0.217,-0.406 0.441,-0.574 0.077,-0.056 0.266,-0.196 0.567,-0.196 0.07,0 0.245,0.007 0.385,0.098 -0.224,0.063 -0.308,0.259 -0.308,0.385 0,0.154 0.119,0.259 0.28,0.259 0.161,0 0.392,-0.133 0.392,-0.427 0,-0.364 -0.385,-0.511 -0.742,-0.511 -0.364,0 -0.679,0.147 -0.987,0.497 -0.126,-0.427 -0.553,-0.497 -0.721,-0.497 -0.259,0 -0.434,0.161 -0.546,0.357 -0.161,0.273 -0.259,0.679 -0.259,0.714 0,0.091 0.098,0.091 0.119,0.091 0.098,0 0.105,-0.021 0.154,-0.21 0.105,-0.427 0.238,-0.756 0.511,-0.756 0.182,0 0.231,0.154 0.231,0.343 0,0.133 -0.063,0.392 -0.112,0.581 -0.049,0.189 -0.119,0.476 -0.154,0.63 l -0.224,0.896 c -0.028,0.091 -0.07,0.266 -0.07,0.287 0,0.154 0.126,0.224 0.238,0.224 0.105,0 0.245,-0.063 0.301,-0.203 0.014,-0.042 0.091,-0.35 0.133,-0.525 l 0.189,-0.756 z"
           id="equation_08_01"
           inkscape:connector-curvature="0" />
        <path
           d="m 2.65,-3.73 h 1.13 c -0.33,1.48 -0.42,1.91 -0.42,2.58 0,0.15 0,0.42 0.08,0.76 0.1,0.44 0.21,0.5 0.36,0.5 0.2,0 0.41,-0.18 0.41,-0.38 0,-0.06 0,-0.08 -0.06,-0.22 -0.29,-0.72 -0.29,-1.37 -0.29,-1.65 0,-0.53 0.07,-1.07 0.18,-1.59 h 1.14 c 0.13,0 0.49,0 0.49,-0.34 0,-0.24 -0.21,-0.24 -0.4,-0.24 H 1.92 c -0.22,0 -0.6,0 -1.04,0.47 -0.35,0.39 -0.61,0.85 -0.61,0.9 0,0.01 0,0.1 0.12,0.1 0.08,0 0.1,-0.04 0.16,-0.12 0.49,-0.77 1.07,-0.77 1.27,-0.77 h 0.57 c -0.32,1.21 -0.86,2.42 -1.28,3.33 -0.08,0.15 -0.08,0.17 -0.08,0.24 0,0.19 0.16,0.27 0.29,0.27 0.3,0 0.38,-0.28 0.5,-0.65 C 1.96,-1 1.96,-1.02 2.09,-1.52 l 0.56,-2.21 z"
           id="equation_08_02"
           inkscape:connector-curvature="0" />
      </defs>
      <g
         id="equation_08_g">
        <use
           x="77"
           xlink:href="#equation_08_02"
           y="63"
           id="use6700"
           width="744.09448"
           height="1052.3622" />
        <use
           x="83.059097"
           xlink:href="#equation_08_01"
           y="59.371101"
           id="use6702"
           width="744.09448"
           height="1052.3622" />
        <use
           x="82.700302"
           xlink:href="#equation_08_00"
           y="65.8321"
           id="use6704"
           width="744.09448"
           height="1052.3622" />
      </g>
    </g>
    <g
       transform="matrix(1.7189574,0,0,1.6946353,-35.53376,890.21268)"
       style="fill:#000000"
       id="equation_03">
      <defs
         id="defs6975">
        <path
           inkscape:connector-curvature="0"
           id="equation_03_00"
           d="m 2.191,-4.648 c 0.007,-0.014 0.028,-0.105 0.028,-0.112 0,-0.035 -0.028,-0.098 -0.112,-0.098 -0.14,0 -0.721,0.056 -0.896,0.07 -0.056,0.007 -0.154,0.014 -0.154,0.161 0,0.098 0.098,0.098 0.182,0.098 0.336,0 0.336,0.049 0.336,0.105 0,0.049 -0.014,0.091 -0.028,0.154 L 0.56,-0.308 c -0.035,0.126 -0.035,0.14 -0.035,0.154 0,0.105 0.084,0.224 0.238,0.224 0.189,0 0.28,-0.14 0.322,-0.294 0.014,-0.028 0.315,-1.26 0.343,-1.358 0.497,0.049 0.896,0.21 0.896,0.574 0,0.035 0,0.07 -0.014,0.14 -0.028,0.105 -0.028,0.14 -0.028,0.217 0,0.497 0.406,0.721 0.742,0.721 0.679,0 0.889,-1.064 0.889,-1.071 0,-0.091 -0.091,-0.091 -0.112,-0.091 -0.098,0 -0.105,0.035 -0.14,0.168 -0.084,0.301 -0.273,0.798 -0.616,0.798 -0.189,0 -0.245,-0.175 -0.245,-0.364 0,-0.119 0,-0.133 0.042,-0.315 0.007,-0.021 0.035,-0.14 0.035,-0.217 0,-0.623 -0.84,-0.721 -1.134,-0.742 0.203,-0.126 0.462,-0.357 0.581,-0.462 0.357,-0.336 0.707,-0.665 1.099,-0.665 0.084,0 0.175,0.021 0.231,0.091 -0.301,0.049 -0.364,0.287 -0.364,0.392 0,0.154 0.119,0.259 0.28,0.259 0.189,0 0.399,-0.154 0.399,-0.448 0,-0.231 -0.168,-0.49 -0.539,-0.49 -0.399,0 -0.763,0.287 -1.12,0.616 -0.294,0.28 -0.525,0.497 -0.812,0.616 l 0.693,-2.793 z" />
        <path
           inkscape:connector-curvature="0"
           id="equation_03_01"
           d="m 3.017,-2.632 c -0.182,0.042 -0.294,0.189 -0.294,0.329 0,0.161 0.14,0.224 0.231,0.224 0.07,0 0.336,-0.042 0.336,-0.399 0,-0.455 -0.504,-0.609 -0.931,-0.609 -1.092,0 -1.288,0.805 -1.288,1.022 0,0.259 0.147,0.427 0.245,0.511 0.182,0.14 0.308,0.168 0.791,0.252 0.147,0.028 0.595,0.112 0.595,0.462 0,0.119 -0.077,0.385 -0.371,0.56 -0.273,0.154 -0.616,0.154 -0.7,0.154 -0.28,0 -0.679,-0.063 -0.84,-0.294 0.231,-0.028 0.385,-0.203 0.385,-0.399 0,-0.175 -0.126,-0.259 -0.273,-0.259 -0.203,0 -0.406,0.161 -0.406,0.469 0,0.42 0.448,0.679 1.127,0.679 1.288,0 1.526,-0.882 1.526,-1.155 0,-0.644 -0.707,-0.77 -0.966,-0.819 C 2.121,-1.918 1.946,-1.946 1.904,-1.96 1.645,-2.009 1.519,-2.156 1.519,-2.31 c 0,-0.161 0.126,-0.35 0.28,-0.448 0.189,-0.119 0.434,-0.133 0.553,-0.133 0.147,0 0.511,0.021 0.665,0.259 z" />
        <path
           inkscape:connector-curvature="0"
           id="equation_03_02"
           d="m 2.65,-3.73 h 1.13 c -0.33,1.48 -0.42,1.91 -0.42,2.58 0,0.15 0,0.42 0.08,0.76 0.1,0.44 0.21,0.5 0.36,0.5 0.2,0 0.41,-0.18 0.41,-0.38 0,-0.06 0,-0.08 -0.06,-0.22 -0.29,-0.72 -0.29,-1.37 -0.29,-1.65 0,-0.53 0.07,-1.07 0.18,-1.59 h 1.14 c 0.13,0 0.49,0 0.49,-0.34 0,-0.24 -0.21,-0.24 -0.4,-0.24 H 1.92 c -0.22,0 -0.6,0 -1.04,0.47 -0.35,0.39 -0.61,0.85 -0.61,0.9 0,0.01 0,0.1 0.12,0.1 0.08,0 0.1,-0.04 0.16,-0.12 0.49,-0.77 1.07,-0.77 1.27,-0.77 h 0.57 c -0.32,1.21 -0.86,2.42 -1.28,3.33 -0.08,0.15 -0.08,0.17 -0.08,0.24 0,0.19 0.16,0.27 0.29,0.27 0.3,0 0.38,-0.28 0.5,-0.65 C 1.96,-1 1.96,-1.02 2.09,-1.52 l 0.56,-2.21 z" />
      </defs>
      <g
         id="equation_03_g">
        <use
           height="1052.3622"
           width="744.09448"
           id="use6981"
           y="63"
           xlink:href="#equation_03_02"
           x="77" />
        <use
           height="1052.3622"
           width="744.09448"
           id="use6983"
           y="59.371101"
           xlink:href="#equation_03_01"
           x="83.059097" />
        <use
           height="1052.3622"
           width="744.09448"
           id="use6985"
           y="65.8321"
           xlink:href="#equation_03_00"
           x="82.700302" />
      </g>
    </g>
    <g
       id="equation_04"
       style="fill:#000000"
       transform="matrix(1.2354048,0,0,1.6377886,-59.20106,928.18199)">
      <defs
         id="defs7244">
        <path
           d="m 2.191,-4.648 c 0.007,-0.014 0.028,-0.105 0.028,-0.112 0,-0.035 -0.028,-0.098 -0.112,-0.098 -0.14,0 -0.721,0.056 -0.896,0.07 -0.056,0.007 -0.154,0.014 -0.154,0.161 0,0.098 0.098,0.098 0.182,0.098 0.336,0 0.336,0.049 0.336,0.105 0,0.049 -0.014,0.091 -0.028,0.154 L 0.56,-0.308 c -0.035,0.126 -0.035,0.14 -0.035,0.154 0,0.105 0.084,0.224 0.238,0.224 0.189,0 0.28,-0.14 0.322,-0.294 0.014,-0.028 0.315,-1.26 0.343,-1.358 0.497,0.049 0.896,0.21 0.896,0.574 0,0.035 0,0.07 -0.014,0.14 -0.028,0.105 -0.028,0.14 -0.028,0.217 0,0.497 0.406,0.721 0.742,0.721 0.679,0 0.889,-1.064 0.889,-1.071 0,-0.091 -0.091,-0.091 -0.112,-0.091 -0.098,0 -0.105,0.035 -0.14,0.168 -0.084,0.301 -0.273,0.798 -0.616,0.798 -0.189,0 -0.245,-0.175 -0.245,-0.364 0,-0.119 0,-0.133 0.042,-0.315 0.007,-0.021 0.035,-0.14 0.035,-0.217 0,-0.623 -0.84,-0.721 -1.134,-0.742 0.203,-0.126 0.462,-0.357 0.581,-0.462 0.357,-0.336 0.707,-0.665 1.099,-0.665 0.084,0 0.175,0.021 0.231,0.091 -0.301,0.049 -0.364,0.287 -0.364,0.392 0,0.154 0.119,0.259 0.28,0.259 0.189,0 0.399,-0.154 0.399,-0.448 0,-0.231 -0.168,-0.49 -0.539,-0.49 -0.399,0 -0.763,0.287 -1.12,0.616 -0.294,0.28 -0.525,0.497 -0.812,0.616 l 0.693,-2.793 z"
           id="equation_04_00"
           inkscape:connector-curvature="0" />
        <path
           d="m 2.65,-3.73 h 1.13 c -0.33,1.48 -0.42,1.91 -0.42,2.58 0,0.15 0,0.42 0.08,0.76 0.1,0.44 0.21,0.5 0.36,0.5 0.2,0 0.41,-0.18 0.41,-0.38 0,-0.06 0,-0.08 -0.06,-0.22 -0.29,-0.72 -0.29,-1.37 -0.29,-1.65 0,-0.53 0.07,-1.07 0.18,-1.59 h 1.14 c 0.13,0 0.49,0 0.49,-0.34 0,-0.24 -0.21,-0.24 -0.4,-0.24 H 1.92 c -0.22,0 -0.6,0 -1.04,0.47 -0.35,0.39 -0.61,0.85 -0.61,0.9 0,0.01 0,0.1 0.12,0.1 0.08,0 0.1,-0.04 0.16,-0.12 0.49,-0.77 1.07,-0.77 1.27,-0.77 h 0.57 c -0.32,1.21 -0.86,2.42 -1.28,3.33 -0.08,0.15 -0.08,0.17 -0.08,0.24 0,0.19 0.16,0.27 0.29,0.27 0.3,0 0.38,-0.28 0.5,-0.65 C 1.96,-1 1.96,-1.02 2.09,-1.52 l 0.56,-2.21 z"
           id="equation_04_01"
           inkscape:connector-curvature="0" />
        <path
           d="m 2.94,-6.4 c 0,-0.24 0,-0.26 -0.23,-0.26 -0.62,0.64 -1.5,0.64 -1.82,0.64 v 0.31 c 0.2,0 0.79,0 1.31,-0.26 v 5.18 c 0,0.36 -0.03,0.48 -0.93,0.48 H 0.95 V 0 c 0.35,-0.03 1.22,-0.03 1.62,-0.03 0.4,0 1.27,0 1.62,0.03 V -0.31 H 3.87 c -0.9,0 -0.93,-0.11 -0.93,-0.48 V -6.4 z"
           id="equation_04_02"
           inkscape:connector-curvature="0" />
        <path
           d="m 6.87,-3.27 c 0.15,0 0.34,0 0.34,-0.2 0,-0.2 -0.19,-0.2 -0.33,-0.2 H 0.89 c -0.14,0 -0.33,0 -0.33,0.2 0,0.2 0.19,0.2 0.34,0.2 h 5.97 z m 0.01,1.94 c 0.14,0 0.33,0 0.33,-0.2 0,-0.2 -0.19,-0.2 -0.34,-0.2 H 0.9 c -0.15,0 -0.34,0 -0.34,0.2 0,0.2 0.19,0.2 0.33,0.2 h 5.99 z"
           id="equation_04_03"
           inkscape:connector-curvature="0" />
        <path
           d="m 2.345,-4.452 c 0,-0.189 -0.014,-0.196 -0.21,-0.196 C 1.687,-4.207 1.05,-4.2 0.763,-4.2 v 0.252 c 0.168,0 0.63,0 1.015,-0.196 v 3.57 c 0,0.231 0,0.322 -0.7,0.322 H 0.812 V 0 c 0.126,-0.007 0.987,-0.028 1.246,-0.028 0.217,0 1.099,0.021 1.253,0.028 V -0.252 H 3.045 c -0.7,0 -0.7,-0.091 -0.7,-0.322 v -3.878 z"
           id="equation_04_04"
           inkscape:connector-curvature="0" />
      </defs>
      <g
         id="equation_04_g">
        <use
           x="77"
           xlink:href="#equation_04_01"
           y="63"
           id="use7252"
           width="744.09448"
           height="1052.3622" />
        <use
           x="82.700302"
           xlink:href="#equation_04_04"
           y="64.5"
           id="use7254"
           width="744.09448"
           height="1052.3622" />
        <use
           x="86.686401"
           xlink:href="#equation_04_00"
           y="64.5"
           id="use7256"
           width="744.09448"
           height="1052.3622" />
        <use
           x="94.3843"
           xlink:href="#equation_04_03"
           y="63"
           id="use7258"
           width="744.09448"
           height="1052.3622" />
        <use
           x="104.94"
           xlink:href="#equation_04_02"
           y="63"
           id="use7260"
           width="744.09448"
           height="1052.3622" />
      </g>
    </g>
    <g
       transform="matrix(1.2524662,0,0,1.6239468,7.36112,927.72299)"
       style="fill:#000000"
       id="equation_09">
      <defs
         id="defs7561">
        <path
           inkscape:connector-curvature="0"
           id="equation_09_00"
           d="m 2.94,-6.4 c 0,-0.24 0,-0.26 -0.23,-0.26 -0.62,0.64 -1.5,0.64 -1.82,0.64 v 0.31 c 0.2,0 0.79,0 1.31,-0.26 v 5.18 c 0,0.36 -0.03,0.48 -0.93,0.48 H 0.95 V 0 c 0.35,-0.03 1.22,-0.03 1.62,-0.03 0.4,0 1.27,0 1.62,0.03 V -0.31 H 3.87 c -0.9,0 -0.93,-0.11 -0.93,-0.48 V -6.4 z" />
        <path
           inkscape:connector-curvature="0"
           id="equation_09_01"
           d="m 6.87,-3.27 c 0.15,0 0.34,0 0.34,-0.2 0,-0.2 -0.19,-0.2 -0.33,-0.2 H 0.89 c -0.14,0 -0.33,0 -0.33,0.2 0,0.2 0.19,0.2 0.34,0.2 h 5.97 z m 0.01,1.94 c 0.14,0 0.33,0 0.33,-0.2 0,-0.2 -0.19,-0.2 -0.34,-0.2 H 0.9 c -0.15,0 -0.34,0 -0.34,0.2 0,0.2 0.19,0.2 0.33,0.2 h 5.99 z" />
        <path
           inkscape:connector-curvature="0"
           id="equation_09_02"
           d="m 2.65,-3.73 h 1.13 c -0.33,1.48 -0.42,1.91 -0.42,2.58 0,0.15 0,0.42 0.08,0.76 0.1,0.44 0.21,0.5 0.36,0.5 0.2,0 0.41,-0.18 0.41,-0.38 0,-0.06 0,-0.08 -0.06,-0.22 -0.29,-0.72 -0.29,-1.37 -0.29,-1.65 0,-0.53 0.07,-1.07 0.18,-1.59 h 1.14 c 0.13,0 0.49,0 0.49,-0.34 0,-0.24 -0.21,-0.24 -0.4,-0.24 H 1.92 c -0.22,0 -0.6,0 -1.04,0.47 -0.35,0.39 -0.61,0.85 -0.61,0.9 0,0.01 0,0.1 0.12,0.1 0.08,0 0.1,-0.04 0.16,-0.12 0.49,-0.77 1.07,-0.77 1.27,-0.77 h 0.57 c -0.32,1.21 -0.86,2.42 -1.28,3.33 -0.08,0.15 -0.08,0.17 -0.08,0.24 0,0.19 0.16,0.27 0.29,0.27 0.3,0 0.38,-0.28 0.5,-0.65 C 1.96,-1 1.96,-1.02 2.09,-1.52 l 0.56,-2.21 z" />
        <path
           inkscape:connector-curvature="0"
           id="equation_09_03"
           d="M 3.535,-1.274 H 3.297 C 3.276,-1.12 3.206,-0.707 3.115,-0.637 3.059,-0.595 2.52,-0.595 2.422,-0.595 H 1.134 c 0.735,-0.651 0.98,-0.847 1.4,-1.176 0.518,-0.413 1.001,-0.847 1.001,-1.512 0,-0.847 -0.742,-1.365 -1.638,-1.365 -0.868,0 -1.456,0.609 -1.456,1.253 0,0.357 0.301,0.392 0.371,0.392 0.168,0 0.371,-0.119 0.371,-0.371 0,-0.126 -0.049,-0.371 -0.413,-0.371 0.217,-0.497 0.693,-0.651 1.022,-0.651 0.7,0 1.064,0.546 1.064,1.113 0,0.609 -0.434,1.092 -0.658,1.344 L 0.511,-0.273 C 0.441,-0.21 0.441,-0.196 0.441,0 h 2.884 l 0.21,-1.274 z" />
        <path
           inkscape:connector-curvature="0"
           id="equation_09_04"
           d="m 1.911,-2.338 c 0.546,0 0.938,0.378 0.938,1.127 0,0.868 -0.504,1.127 -0.91,1.127 -0.28,0 -0.896,-0.077 -1.19,-0.49 0.329,-0.014 0.406,-0.245 0.406,-0.392 0,-0.224 -0.168,-0.385 -0.385,-0.385 -0.196,0 -0.392,0.119 -0.392,0.406 0,0.658 0.728,1.085 1.575,1.085 0.973,0 1.645,-0.651 1.645,-1.351 0,-0.546 -0.448,-1.092 -1.218,-1.253 0.735,-0.266 1.001,-0.791 1.001,-1.218 0,-0.553 -0.637,-0.966 -1.414,-0.966 -0.777,0 -1.372,0.378 -1.372,0.938 0,0.238 0.154,0.371 0.364,0.371 0.217,0 0.357,-0.161 0.357,-0.357 0,-0.203 -0.14,-0.35 -0.357,-0.364 0.245,-0.308 0.728,-0.385 0.987,-0.385 0.315,0 0.756,0.154 0.756,0.763 0,0.294 -0.098,0.616 -0.28,0.833 -0.231,0.266 -0.427,0.28 -0.777,0.301 -0.175,0.014 -0.189,0.014 -0.224,0.021 -0.014,0 -0.07,0.014 -0.07,0.091 0,0.098 0.063,0.098 0.182,0.098 h 0.378 z" />
      </defs>
      <g
         id="equation_09_g">
        <use
           height="1052.3622"
           width="744.09448"
           id="use7569"
           y="63"
           xlink:href="#equation_09_02"
           x="77" />
        <use
           height="1052.3622"
           width="744.09448"
           id="use7571"
           y="64.5"
           xlink:href="#equation_09_03"
           x="82.700302" />
        <use
           height="1052.3622"
           width="744.09448"
           id="use7573"
           y="64.5"
           xlink:href="#equation_09_04"
           x="86.686401" />
        <use
           height="1052.3622"
           width="744.09448"
           id="use7575"
           y="63"
           xlink:href="#equation_09_01"
           x="93.950203" />
        <use
           height="1052.3622"
           width="744.09448"
           id="use7577"
           y="63"
           xlink:href="#equation_09_00"
           x="104.506" />
      </g>
    </g>
    <g
       id="equation_10"
       style="fill:#000000"
       transform="matrix(1.2524662,0,0,1.6239759,75.33213,927.67427)">
      <defs
         id="defs7904">
        <path
           d="m 2.94,-6.4 c 0,-0.24 0,-0.26 -0.23,-0.26 -0.62,0.64 -1.5,0.64 -1.82,0.64 v 0.31 c 0.2,0 0.79,0 1.31,-0.26 v 5.18 c 0,0.36 -0.03,0.48 -0.93,0.48 H 0.95 V 0 c 0.35,-0.03 1.22,-0.03 1.62,-0.03 0.4,0 1.27,0 1.62,0.03 V -0.31 H 3.87 c -0.9,0 -0.93,-0.11 -0.93,-0.48 V -6.4 z"
           id="equation_10_00"
           inkscape:connector-curvature="0" />
        <path
           d="m 6.87,-3.27 c 0.15,0 0.34,0 0.34,-0.2 0,-0.2 -0.19,-0.2 -0.33,-0.2 H 0.89 c -0.14,0 -0.33,0 -0.33,0.2 0,0.2 0.19,0.2 0.34,0.2 h 5.97 z m 0.01,1.94 c 0.14,0 0.33,0 0.33,-0.2 0,-0.2 -0.19,-0.2 -0.34,-0.2 H 0.9 c -0.15,0 -0.34,0 -0.34,0.2 0,0.2 0.19,0.2 0.33,0.2 h 5.99 z"
           id="equation_10_01"
           inkscape:connector-curvature="0" />
        <path
           d="m 2.65,-3.73 h 1.13 c -0.33,1.48 -0.42,1.91 -0.42,2.58 0,0.15 0,0.42 0.08,0.76 0.1,0.44 0.21,0.5 0.36,0.5 0.2,0 0.41,-0.18 0.41,-0.38 0,-0.06 0,-0.08 -0.06,-0.22 -0.29,-0.72 -0.29,-1.37 -0.29,-1.65 0,-0.53 0.07,-1.07 0.18,-1.59 h 1.14 c 0.13,0 0.49,0 0.49,-0.34 0,-0.24 -0.21,-0.24 -0.4,-0.24 H 1.92 c -0.22,0 -0.6,0 -1.04,0.47 -0.35,0.39 -0.61,0.85 -0.61,0.9 0,0.01 0,0.1 0.12,0.1 0.08,0 0.1,-0.04 0.16,-0.12 0.49,-0.77 1.07,-0.77 1.27,-0.77 h 0.57 c -0.32,1.21 -0.86,2.42 -1.28,3.33 -0.08,0.15 -0.08,0.17 -0.08,0.24 0,0.19 0.16,0.27 0.29,0.27 0.3,0 0.38,-0.28 0.5,-0.65 C 1.96,-1 1.96,-1.02 2.09,-1.52 l 0.56,-2.21 z"
           id="equation_10_02"
           inkscape:connector-curvature="0" />
        <path
           d="M 3.535,-1.274 H 3.297 C 3.276,-1.12 3.206,-0.707 3.115,-0.637 3.059,-0.595 2.52,-0.595 2.422,-0.595 H 1.134 c 0.735,-0.651 0.98,-0.847 1.4,-1.176 0.518,-0.413 1.001,-0.847 1.001,-1.512 0,-0.847 -0.742,-1.365 -1.638,-1.365 -0.868,0 -1.456,0.609 -1.456,1.253 0,0.357 0.301,0.392 0.371,0.392 0.168,0 0.371,-0.119 0.371,-0.371 0,-0.126 -0.049,-0.371 -0.413,-0.371 0.217,-0.497 0.693,-0.651 1.022,-0.651 0.7,0 1.064,0.546 1.064,1.113 0,0.609 -0.434,1.092 -0.658,1.344 L 0.511,-0.273 C 0.441,-0.21 0.441,-0.196 0.441,0 h 2.884 l 0.21,-1.274 z"
           id="equation_10_03"
           inkscape:connector-curvature="0" />
        <path
           d="m 1.911,-2.338 c 0.546,0 0.938,0.378 0.938,1.127 0,0.868 -0.504,1.127 -0.91,1.127 -0.28,0 -0.896,-0.077 -1.19,-0.49 0.329,-0.014 0.406,-0.245 0.406,-0.392 0,-0.224 -0.168,-0.385 -0.385,-0.385 -0.196,0 -0.392,0.119 -0.392,0.406 0,0.658 0.728,1.085 1.575,1.085 0.973,0 1.645,-0.651 1.645,-1.351 0,-0.546 -0.448,-1.092 -1.218,-1.253 0.735,-0.266 1.001,-0.791 1.001,-1.218 0,-0.553 -0.637,-0.966 -1.414,-0.966 -0.777,0 -1.372,0.378 -1.372,0.938 0,0.238 0.154,0.371 0.364,0.371 0.217,0 0.357,-0.161 0.357,-0.357 0,-0.203 -0.14,-0.35 -0.357,-0.364 0.245,-0.308 0.728,-0.385 0.987,-0.385 0.315,0 0.756,0.154 0.756,0.763 0,0.294 -0.098,0.616 -0.28,0.833 -0.231,0.266 -0.427,0.28 -0.777,0.301 -0.175,0.014 -0.189,0.014 -0.224,0.021 -0.014,0 -0.07,0.014 -0.07,0.091 0,0.098 0.063,0.098 0.182,0.098 h 0.378 z"
           id="equation_10_04"
           inkscape:connector-curvature="0" />
      </defs>
      <g
         id="equation_10_g">
        <use
           x="77"
           xlink:href="#equation_10_02"
           y="63"
           id="use7912"
           width="744.09448"
           height="1052.3622" />
        <use
           x="82.700302"
           xlink:href="#equation_10_04"
           y="64.5"
           id="use7914"
           width="744.09448"
           height="1052.3622" />
        <use
           x="86.686401"
           xlink:href="#equation_10_03"
           y="64.5"
           id="use7916"
           width="744.09448"
           height="1052.3622" />
        <use
           x="93.950203"
           xlink:href="#equation_10_01"
           y="63"
           id="use7918"
           width="744.09448"
           height="1052.3622" />
        <use
           x="104.506"
           xlink:href="#equation_10_00"
           y="63"
           id="use7920"
           width="744.09448"
           height="1052.3622" />
      </g>
    </g>
    <g
       transform="matrix(1.2354048,0,0,1.6377886,152.51277,926.19552)"
       style="fill:#000000"
       id="equation_11">
      <defs
         id="defs8273">
        <path
           inkscape:connector-curvature="0"
           id="equation_11_00"
           d="m 2.191,-4.648 c 0.007,-0.014 0.028,-0.105 0.028,-0.112 0,-0.035 -0.028,-0.098 -0.112,-0.098 -0.14,0 -0.721,0.056 -0.896,0.07 -0.056,0.007 -0.154,0.014 -0.154,0.161 0,0.098 0.098,0.098 0.182,0.098 0.336,0 0.336,0.049 0.336,0.105 0,0.049 -0.014,0.091 -0.028,0.154 L 0.56,-0.308 c -0.035,0.126 -0.035,0.14 -0.035,0.154 0,0.105 0.084,0.224 0.238,0.224 0.189,0 0.28,-0.14 0.322,-0.294 0.014,-0.028 0.315,-1.26 0.343,-1.358 0.497,0.049 0.896,0.21 0.896,0.574 0,0.035 0,0.07 -0.014,0.14 -0.028,0.105 -0.028,0.14 -0.028,0.217 0,0.497 0.406,0.721 0.742,0.721 0.679,0 0.889,-1.064 0.889,-1.071 0,-0.091 -0.091,-0.091 -0.112,-0.091 -0.098,0 -0.105,0.035 -0.14,0.168 -0.084,0.301 -0.273,0.798 -0.616,0.798 -0.189,0 -0.245,-0.175 -0.245,-0.364 0,-0.119 0,-0.133 0.042,-0.315 0.007,-0.021 0.035,-0.14 0.035,-0.217 0,-0.623 -0.84,-0.721 -1.134,-0.742 0.203,-0.126 0.462,-0.357 0.581,-0.462 0.357,-0.336 0.707,-0.665 1.099,-0.665 0.084,0 0.175,0.021 0.231,0.091 -0.301,0.049 -0.364,0.287 -0.364,0.392 0,0.154 0.119,0.259 0.28,0.259 0.189,0 0.399,-0.154 0.399,-0.448 0,-0.231 -0.168,-0.49 -0.539,-0.49 -0.399,0 -0.763,0.287 -1.12,0.616 -0.294,0.28 -0.525,0.497 -0.812,0.616 l 0.693,-2.793 z" />
        <path
           inkscape:connector-curvature="0"
           id="equation_11_01"
           d="m 2.65,-3.73 h 1.13 c -0.33,1.48 -0.42,1.91 -0.42,2.58 0,0.15 0,0.42 0.08,0.76 0.1,0.44 0.21,0.5 0.36,0.5 0.2,0 0.41,-0.18 0.41,-0.38 0,-0.06 0,-0.08 -0.06,-0.22 -0.29,-0.72 -0.29,-1.37 -0.29,-1.65 0,-0.53 0.07,-1.07 0.18,-1.59 h 1.14 c 0.13,0 0.49,0 0.49,-0.34 0,-0.24 -0.21,-0.24 -0.4,-0.24 H 1.92 c -0.22,0 -0.6,0 -1.04,0.47 -0.35,0.39 -0.61,0.85 -0.61,0.9 0,0.01 0,0.1 0.12,0.1 0.08,0 0.1,-0.04 0.16,-0.12 0.49,-0.77 1.07,-0.77 1.27,-0.77 h 0.57 c -0.32,1.21 -0.86,2.42 -1.28,3.33 -0.08,0.15 -0.08,0.17 -0.08,0.24 0,0.19 0.16,0.27 0.29,0.27 0.3,0 0.38,-0.28 0.5,-0.65 C 1.96,-1 1.96,-1.02 2.09,-1.52 l 0.56,-2.21 z" />
        <path
           inkscape:connector-curvature="0"
           id="equation_11_02"
           d="m 2.94,-6.4 c 0,-0.24 0,-0.26 -0.23,-0.26 -0.62,0.64 -1.5,0.64 -1.82,0.64 v 0.31 c 0.2,0 0.79,0 1.31,-0.26 v 5.18 c 0,0.36 -0.03,0.48 -0.93,0.48 H 0.95 V 0 c 0.35,-0.03 1.22,-0.03 1.62,-0.03 0.4,0 1.27,0 1.62,0.03 V -0.31 H 3.87 c -0.9,0 -0.93,-0.11 -0.93,-0.48 V -6.4 z" />
        <path
           inkscape:connector-curvature="0"
           id="equation_11_03"
           d="m 6.87,-3.27 c 0.15,0 0.34,0 0.34,-0.2 0,-0.2 -0.19,-0.2 -0.33,-0.2 H 0.89 c -0.14,0 -0.33,0 -0.33,0.2 0,0.2 0.19,0.2 0.34,0.2 h 5.97 z m 0.01,1.94 c 0.14,0 0.33,0 0.33,-0.2 0,-0.2 -0.19,-0.2 -0.34,-0.2 H 0.9 c -0.15,0 -0.34,0 -0.34,0.2 0,0.2 0.19,0.2 0.33,0.2 h 5.99 z" />
        <path
           inkscape:connector-curvature="0"
           id="equation_11_04"
           d="m 2.345,-4.452 c 0,-0.189 -0.014,-0.196 -0.21,-0.196 C 1.687,-4.207 1.05,-4.2 0.763,-4.2 v 0.252 c 0.168,0 0.63,0 1.015,-0.196 v 3.57 c 0,0.231 0,0.322 -0.7,0.322 H 0.812 V 0 c 0.126,-0.007 0.987,-0.028 1.246,-0.028 0.217,0 1.099,0.021 1.253,0.028 V -0.252 H 3.045 c -0.7,0 -0.7,-0.091 -0.7,-0.322 v -3.878 z" />
      </defs>
      <g
         id="equation_11_g">
        <use
           height="1052.3622"
           width="744.09448"
           id="use8281"
           y="63"
           xlink:href="#equation_11_01"
           x="77" />
        <use
           height="1052.3622"
           width="744.09448"
           id="use8283"
           y="64.5"
           xlink:href="#equation_11_00"
           x="82.700302" />
        <use
           height="1052.3622"
           width="744.09448"
           id="use8285"
           y="64.5"
           xlink:href="#equation_11_04"
           x="87.120399" />
        <use
           height="1052.3622"
           width="744.09448"
           id="use8287"
           y="63"
           xlink:href="#equation_11_03"
           x="94.3843" />
        <use
           height="1052.3622"
           width="744.09448"
           id="use8289"
           y="63"
           xlink:href="#equation_11_02"
           x="104.94" />
      </g>
    </g>
    <path
       style="fill:none;stroke:#000000;stroke-width:1;stroke-linecap:butt;stroke-linejoin:miter;stroke-miterlimit:4;stroke-opacity:1;stroke-dasharray:1, 1;stroke-dashoffset:0"
       d="m 221,1028.3622 20,0"
       id="path8510"
       inkscape:connector-curvature="0" />
    <g
       id="equation_12"
       style="fill:#000000"
       transform="matrix(1.1589322,0,0,1.4097938,243.58504,807.22386)">
      <defs
         id="defs8671">
        <path
           d="m 2.65,-3.73 h 1.13 c -0.33,1.48 -0.42,1.91 -0.42,2.58 0,0.15 0,0.42 0.08,0.76 0.1,0.44 0.21,0.5 0.36,0.5 0.2,0 0.41,-0.18 0.41,-0.38 0,-0.06 0,-0.08 -0.06,-0.22 -0.29,-0.72 -0.29,-1.37 -0.29,-1.65 0,-0.53 0.07,-1.07 0.18,-1.59 h 1.14 c 0.13,0 0.49,0 0.49,-0.34 0,-0.24 -0.21,-0.24 -0.4,-0.24 H 1.92 c -0.22,0 -0.6,0 -1.04,0.47 -0.35,0.39 -0.61,0.85 -0.61,0.9 0,0.01 0,0.1 0.12,0.1 0.08,0 0.1,-0.04 0.16,-0.12 0.49,-0.77 1.07,-0.77 1.27,-0.77 h 0.57 c -0.32,1.21 -0.86,2.42 -1.28,3.33 -0.08,0.15 -0.08,0.17 -0.08,0.24 0,0.19 0.16,0.27 0.29,0.27 0.3,0 0.38,-0.28 0.5,-0.65 C 1.96,-1 1.96,-1.02 2.09,-1.52 l 0.56,-2.21 z"
           id="equation_12_00"
           inkscape:connector-curvature="0" />
        <path
           d="m 2.03,-0.01 c 0,-0.66 -0.25,-1.05 -0.64,-1.05 -0.33,0 -0.53,0.25 -0.53,0.53 0,0.27 0.2,0.53 0.53,0.53 0.12,0 0.25,-0.04 0.35,-0.13 0.03,-0.02 0.04,-0.03 0.05,-0.03 0.01,0 0.02,0.01 0.02,0.15 0,0.74 -0.35,1.34 -0.68,1.67 -0.11,0.11 -0.11,0.13 -0.11,0.16 0,0.07 0.05,0.11 0.1,0.11 0.11,0 0.91,-0.77 0.91,-1.94 z"
           id="equation_12_01"
           inkscape:connector-curvature="0" />
        <path
           d="m 3.97,-6.25 c 0,-0.19 -0.14,-0.36 -0.38,-0.36 -0.23,0 -0.53,0.23 -0.53,0.53 0,0.2 0.14,0.36 0.37,0.36 0.27,0 0.54,-0.26 0.54,-0.53 z M 1.96,0.5 C 1.77,1.26 1.29,1.83 0.73,1.83 0.67,1.83 0.52,1.83 0.34,1.74 0.64,1.67 0.79,1.41 0.79,1.21 0.79,1.05 0.68,0.86 0.41,0.86 c -0.25,0 -0.54,0.21 -0.54,0.57 0,0.4 0.4,0.62 0.88,0.62 0.7,0 1.63,-0.53 1.88,-1.52 L 3.55,-3.13 C 3.6,-3.33 3.6,-3.47 3.6,-3.5 c 0,-0.57 -0.42,-0.92 -0.92,-0.92 -1.02,0 -1.59,1.45 -1.59,1.54 0,0.1 0.1,0.1 0.12,0.1 0.09,0 0.1,-0.01 0.18,-0.2 0.25,-0.61 0.71,-1.22 1.26,-1.22 0.14,0 0.32,0.04 0.32,0.46 0,0.23 -0.03,0.34 -0.07,0.51 L 1.96,0.5 z"
           id="equation_12_02"
           inkscape:connector-curvature="0" />
        <path
           d="m 2.87,-6.83 c 0,-0.01 0,-0.11 -0.13,-0.11 -0.23,0 -0.96,0.08 -1.22,0.1 -0.08,0.01 -0.19,0.02 -0.19,0.2 0,0.12 0.09,0.12 0.24,0.12 0.48,0 0.5,0.07 0.5,0.17 l -0.03,0.2 -1.45,5.76 c -0.04,0.14 -0.04,0.16 -0.04,0.22 0,0.23 0.2,0.28 0.29,0.28 0.13,0 0.28,-0.09 0.34,-0.21 0.05,-0.09 0.5,-1.94 0.56,-2.19 0.34,0.03 1.16,0.19 1.16,0.85 0,0.07 0,0.11 -0.03,0.21 -0.02,0.12 -0.04,0.24 -0.04,0.35 0,0.59 0.4,0.99 0.92,0.99 0.3,0 0.57,-0.16 0.79,-0.53 0.25,-0.44 0.36,-0.99 0.36,-1.01 0,-0.1 -0.09,-0.1 -0.12,-0.1 -0.1,0 -0.11,0.04 -0.14,0.18 -0.2,0.73 -0.43,1.24 -0.87,1.24 -0.19,0 -0.32,-0.11 -0.32,-0.47 0,-0.17 0.04,-0.4 0.08,-0.56 C 3.57,-1.31 3.57,-1.35 3.57,-1.45 3.57,-2.1 2.94,-2.39 2.09,-2.5 2.4,-2.68 2.72,-3 2.95,-3.24 3.43,-3.77 3.89,-4.2 4.38,-4.2 c 0.06,0 0.07,0 0.09,0.01 0.12,0.02 0.13,0.02 0.21,0.08 0.02,0.01 0.02,0.02 0.04,0.04 -0.48,0.03 -0.57,0.42 -0.57,0.54 0,0.16 0.11,0.35 0.38,0.35 0.26,0 0.55,-0.22 0.55,-0.61 0,-0.3 -0.23,-0.63 -0.68,-0.63 -0.28,0 -0.74,0.08 -1.46,0.88 -0.34,0.38 -0.73,0.78 -1.11,0.93 l 1.04,-4.22 z"
           id="equation_12_03"
           inkscape:connector-curvature="0" />
        <path
           d="m 6.3,-6.77 c 0.08,-0.14 0.08,-0.16 0.08,-0.19 0,-0.07 -0.06,-0.2 -0.2,-0.2 -0.12,0 -0.15,0.06 -0.22,0.2 L 1.47,1.77 C 1.39,1.91 1.39,1.93 1.39,1.96 c 0,0.08 0.07,0.2 0.2,0.2 0.12,0 0.15,-0.06 0.22,-0.2 L 6.3,-6.77 z"
           id="equation_12_04"
           inkscape:connector-curvature="0" />
        <path
           d="m 5.51,-6.56 c 0.05,-0.11 0.05,-0.13 0.05,-0.18 0,-0.1 -0.08,-0.2 -0.2,-0.2 -0.13,0 -0.19,0.12 -0.23,0.23 L 4.3,-4.51 H 1.26 L 0.43,-6.71 C 0.38,-6.85 0.33,-6.94 0.2,-6.94 c -0.1,0 -0.2,0.1 -0.2,0.2 0,0.02 0,0.04 0.06,0.18 l 2.49,6.55 C 2.6,0.13 2.65,0.22 2.78,0.22 2.92,0.22 2.96,0.11 3,0.01 L 5.51,-6.56 z M 1.42,-4.11 H 4.14 L 2.78,-0.55 1.42,-4.11 z"
           id="equation_12_05"
           inkscape:connector-curvature="0" />
        <path
           d="m 3.073,-4.375 c 0,-0.119 -0.091,-0.266 -0.28,-0.266 -0.203,0 -0.392,0.196 -0.392,0.385 0,0.112 0.084,0.266 0.28,0.266 0.189,0 0.392,-0.182 0.392,-0.385 z M 1.589,0.343 C 1.47,0.826 1.099,1.232 0.686,1.232 0.595,1.232 0.511,1.218 0.434,1.19 0.616,1.106 0.672,0.938 0.672,0.833 0.672,0.665 0.539,0.574 0.399,0.574 0.182,0.574 0,0.763 0,0.987 c 0,0.266 0.273,0.441 0.693,0.441 0.42,0 1.239,-0.252 1.456,-1.106 l 0.63,-2.506 c 0.021,-0.077 0.035,-0.14 0.035,-0.245 0,-0.385 -0.329,-0.658 -0.749,-0.658 -0.777,0 -1.225,0.973 -1.225,1.071 0,0.091 0.098,0.091 0.119,0.091 0.084,0 0.091,-0.021 0.14,-0.126 0.175,-0.406 0.539,-0.84 0.945,-0.84 0.175,0 0.238,0.119 0.238,0.343 0,0.077 -0.014,0.175 -0.021,0.21 L 1.589,0.343 z"
           id="equation_12_06"
           inkscape:connector-curvature="0" />
        <path
           d="M 4.6,-3.2 C 4.6,-4 4.55,-4.8 4.2,-5.54 3.74,-6.5 2.92,-6.66 2.5,-6.66 1.9,-6.66 1.17,-6.4 0.76,-5.47 0.44,-4.78 0.39,-4 0.39,-3.2 c 0,0.75 0.04,1.65 0.45,2.41 C 1.27,0.02 2,0.22 2.49,0.22 3.03,0.22 3.79,0.01 4.23,-0.94 4.55,-1.63 4.6,-2.41 4.6,-3.2 z M 2.49,0 C 2.1,0 1.51,-0.25 1.33,-1.21 1.22,-1.81 1.22,-2.73 1.22,-3.32 c 0,-0.64 0,-1.3 0.08,-1.84 0.19,-1.19 0.94,-1.28 1.19,-1.28 0.33,0 0.99,0.18 1.18,1.17 0.1,0.56 0.1,1.32 0.1,1.95 0,0.75 0,1.43 -0.11,2.07 C 3.51,-0.3 2.94,0 2.49,0 z"
           id="equation_12_07"
           inkscape:connector-curvature="0" />
        <path
           d="m 6.87,-3.27 c 0.15,0 0.34,0 0.34,-0.2 0,-0.2 -0.19,-0.2 -0.33,-0.2 H 0.89 c -0.14,0 -0.33,0 -0.33,0.2 0,0.2 0.19,0.2 0.34,0.2 h 5.97 z m 0.01,1.94 c 0.14,0 0.33,0 0.33,-0.2 0,-0.2 -0.19,-0.2 -0.34,-0.2 H 0.9 c -0.15,0 -0.34,0 -0.34,0.2 0,0.2 0.19,0.2 0.33,0.2 h 5.99 z"
           id="equation_12_08"
           inkscape:connector-curvature="0" />
        <path
           d="m 2.345,-4.452 c 0,-0.189 -0.014,-0.196 -0.21,-0.196 C 1.687,-4.207 1.05,-4.2 0.763,-4.2 v 0.252 c 0.168,0 0.63,0 1.015,-0.196 v 3.57 c 0,0.231 0,0.322 -0.7,0.322 H 0.812 V 0 c 0.126,-0.007 0.987,-0.028 1.246,-0.028 0.217,0 1.099,0.021 1.253,0.028 V -0.252 H 3.045 c -0.7,0 -0.7,-0.091 -0.7,-0.322 v -3.878 z"
           id="equation_12_09"
           inkscape:connector-curvature="0" />
      </defs>
      <g
         id="equation_12_g">
        <use
           x="77"
           xlink:href="#equation_12_00"
           y="63"
           id="use8684"
           width="744.09448"
           height="1052.3622" />
        <use
           x="82.700302"
           xlink:href="#equation_12_09"
           y="64.5"
           id="use8686"
           width="744.09448"
           height="1052.3622" />
        <use
           x="86.686401"
           xlink:href="#equation_12_06"
           y="64.5"
           id="use8688"
           width="744.09448"
           height="1052.3622" />
        <use
           x="93.677696"
           xlink:href="#equation_12_08"
           y="63"
           id="use8690"
           width="744.09448"
           height="1052.3622" />
        <use
           x="104.233"
           xlink:href="#equation_12_07"
           y="63"
           id="use8692"
           width="744.09448"
           height="1052.3622" />
        <use
           x="109.233"
           xlink:href="#equation_12_01"
           y="63"
           id="use8694"
           width="744.09448"
           height="1052.3622" />
        <use
           x="113.678"
           xlink:href="#equation_12_05"
           y="63"
           id="use8696"
           width="744.09448"
           height="1052.3622" />
        <use
           x="119.233"
           xlink:href="#equation_12_02"
           y="63"
           id="use8698"
           width="744.09448"
           height="1052.3622" />
        <use
           x="126.701"
           xlink:href="#equation_12_04"
           y="63"
           id="use8700"
           width="744.09448"
           height="1052.3622" />
        <use
           x="126.701"
           xlink:href="#equation_12_08"
           y="63"
           id="use8702"
           width="744.09448"
           height="1052.3622" />
        <use
           x="137.257"
           xlink:href="#equation_12_03"
           y="63"
           id="use8704"
           width="744.09448"
           height="1052.3622" />
      </g>
    </g>
    <g
       transform="matrix(1.1680878,0,0,1.4097938,245.3963,836.22631)"
       style="fill:#000000"
       id="equation_13">
      <defs
         id="defs9178">
        <path
           inkscape:connector-curvature="0"
           id="equation_13_00"
           d="m 2.65,-3.73 h 1.13 c -0.33,1.48 -0.42,1.91 -0.42,2.58 0,0.15 0,0.42 0.08,0.76 0.1,0.44 0.21,0.5 0.36,0.5 0.2,0 0.41,-0.18 0.41,-0.38 0,-0.06 0,-0.08 -0.06,-0.22 -0.29,-0.72 -0.29,-1.37 -0.29,-1.65 0,-0.53 0.07,-1.07 0.18,-1.59 h 1.14 c 0.13,0 0.49,0 0.49,-0.34 0,-0.24 -0.21,-0.24 -0.4,-0.24 H 1.92 c -0.22,0 -0.6,0 -1.04,0.47 -0.35,0.39 -0.61,0.85 -0.61,0.9 0,0.01 0,0.1 0.12,0.1 0.08,0 0.1,-0.04 0.16,-0.12 0.49,-0.77 1.07,-0.77 1.27,-0.77 h 0.57 c -0.32,1.21 -0.86,2.42 -1.28,3.33 -0.08,0.15 -0.08,0.17 -0.08,0.24 0,0.19 0.16,0.27 0.29,0.27 0.3,0 0.38,-0.28 0.5,-0.65 C 1.96,-1 1.96,-1.02 2.09,-1.52 l 0.56,-2.21 z" />
        <path
           inkscape:connector-curvature="0"
           id="equation_13_01"
           d="m 2.03,-0.01 c 0,-0.66 -0.25,-1.05 -0.64,-1.05 -0.33,0 -0.53,0.25 -0.53,0.53 0,0.27 0.2,0.53 0.53,0.53 0.12,0 0.25,-0.04 0.35,-0.13 0.03,-0.02 0.04,-0.03 0.05,-0.03 0.01,0 0.02,0.01 0.02,0.15 0,0.74 -0.35,1.34 -0.68,1.67 -0.11,0.11 -0.11,0.13 -0.11,0.16 0,0.07 0.05,0.11 0.1,0.11 0.11,0 0.91,-0.77 0.91,-1.94 z" />
        <path
           inkscape:connector-curvature="0"
           id="equation_13_02"
           d="m 3.97,-6.25 c 0,-0.19 -0.14,-0.36 -0.38,-0.36 -0.23,0 -0.53,0.23 -0.53,0.53 0,0.2 0.14,0.36 0.37,0.36 0.27,0 0.54,-0.26 0.54,-0.53 z M 1.96,0.5 C 1.77,1.26 1.29,1.83 0.73,1.83 0.67,1.83 0.52,1.83 0.34,1.74 0.64,1.67 0.79,1.41 0.79,1.21 0.79,1.05 0.68,0.86 0.41,0.86 c -0.25,0 -0.54,0.21 -0.54,0.57 0,0.4 0.4,0.62 0.88,0.62 0.7,0 1.63,-0.53 1.88,-1.52 L 3.55,-3.13 C 3.6,-3.33 3.6,-3.47 3.6,-3.5 c 0,-0.57 -0.42,-0.92 -0.92,-0.92 -1.02,0 -1.59,1.45 -1.59,1.54 0,0.1 0.1,0.1 0.12,0.1 0.09,0 0.1,-0.01 0.18,-0.2 0.25,-0.61 0.71,-1.22 1.26,-1.22 0.14,0 0.32,0.04 0.32,0.46 0,0.23 -0.03,0.34 -0.07,0.51 L 1.96,0.5 z" />
        <path
           inkscape:connector-curvature="0"
           id="equation_13_03"
           d="m 6.3,-6.77 c 0.08,-0.14 0.08,-0.16 0.08,-0.19 0,-0.07 -0.06,-0.2 -0.2,-0.2 -0.12,0 -0.15,0.06 -0.22,0.2 L 1.47,1.77 C 1.39,1.91 1.39,1.93 1.39,1.96 c 0,0.08 0.07,0.2 0.2,0.2 0.12,0 0.15,-0.06 0.22,-0.2 L 6.3,-6.77 z" />
        <path
           inkscape:connector-curvature="0"
           id="equation_13_04"
           d="m 5.51,-6.56 c 0.05,-0.11 0.05,-0.13 0.05,-0.18 0,-0.1 -0.08,-0.2 -0.2,-0.2 -0.13,0 -0.19,0.12 -0.23,0.23 L 4.3,-4.51 H 1.26 L 0.43,-6.71 C 0.38,-6.85 0.33,-6.94 0.2,-6.94 c -0.1,0 -0.2,0.1 -0.2,0.2 0,0.02 0,0.04 0.06,0.18 l 2.49,6.55 C 2.6,0.13 2.65,0.22 2.78,0.22 2.92,0.22 2.96,0.11 3,0.01 L 5.51,-6.56 z M 1.42,-4.11 H 4.14 L 2.78,-0.55 1.42,-4.11 z" />
        <path
           inkscape:connector-curvature="0"
           id="equation_13_05"
           d="m 3.073,-4.375 c 0,-0.119 -0.091,-0.266 -0.28,-0.266 -0.203,0 -0.392,0.196 -0.392,0.385 0,0.112 0.084,0.266 0.28,0.266 0.189,0 0.392,-0.182 0.392,-0.385 z M 1.589,0.343 C 1.47,0.826 1.099,1.232 0.686,1.232 0.595,1.232 0.511,1.218 0.434,1.19 0.616,1.106 0.672,0.938 0.672,0.833 0.672,0.665 0.539,0.574 0.399,0.574 0.182,0.574 0,0.763 0,0.987 c 0,0.266 0.273,0.441 0.693,0.441 0.42,0 1.239,-0.252 1.456,-1.106 l 0.63,-2.506 c 0.021,-0.077 0.035,-0.14 0.035,-0.245 0,-0.385 -0.329,-0.658 -0.749,-0.658 -0.777,0 -1.225,0.973 -1.225,1.071 0,0.091 0.098,0.091 0.119,0.091 0.084,0 0.091,-0.021 0.14,-0.126 0.175,-0.406 0.539,-0.84 0.945,-0.84 0.175,0 0.238,0.119 0.238,0.343 0,0.077 -0.014,0.175 -0.021,0.21 L 1.589,0.343 z" />
        <path
           inkscape:connector-curvature="0"
           id="equation_13_06"
           d="M 4.6,-3.2 C 4.6,-4 4.55,-4.8 4.2,-5.54 3.74,-6.5 2.92,-6.66 2.5,-6.66 1.9,-6.66 1.17,-6.4 0.76,-5.47 0.44,-4.78 0.39,-4 0.39,-3.2 c 0,0.75 0.04,1.65 0.45,2.41 C 1.27,0.02 2,0.22 2.49,0.22 3.03,0.22 3.79,0.01 4.23,-0.94 4.55,-1.63 4.6,-2.41 4.6,-3.2 z M 2.49,0 C 2.1,0 1.51,-0.25 1.33,-1.21 1.22,-1.81 1.22,-2.73 1.22,-3.32 c 0,-0.64 0,-1.3 0.08,-1.84 0.19,-1.19 0.94,-1.28 1.19,-1.28 0.33,0 0.99,0.18 1.18,1.17 0.1,0.56 0.1,1.32 0.1,1.95 0,0.75 0,1.43 -0.11,2.07 C 3.51,-0.3 2.94,0 2.49,0 z" />
        <path
           inkscape:connector-curvature="0"
           id="equation_13_07"
           d="m 2.9,-3.52 c 0.82,-0.27 1.4,-0.97 1.4,-1.76 0,-0.82 -0.88,-1.38 -1.84,-1.38 -1.01,0 -1.77,0.6 -1.77,1.36 0,0.33 0.22,0.52 0.51,0.52 0.31,0 0.51,-0.22 0.51,-0.51 0,-0.5 -0.47,-0.5 -0.62,-0.5 0.31,-0.49 0.97,-0.62 1.33,-0.62 0.41,0 0.96,0.22 0.96,1.12 0,0.12 -0.02,0.7 -0.28,1.14 -0.3,0.48 -0.64,0.51 -0.89,0.52 -0.08,0.01 -0.32,0.03 -0.39,0.03 -0.08,0.01 -0.15,0.02 -0.15,0.12 0,0.11 0.07,0.11 0.24,0.11 h 0.44 c 0.82,0 1.19,0.68 1.19,1.66 0,1.36 -0.69,1.65 -1.13,1.65 -0.43,0 -1.18,-0.17 -1.53,-0.76 0.35,0.05 0.66,-0.17 0.66,-0.55 0,-0.36 -0.27,-0.56 -0.56,-0.56 -0.24,0 -0.56,0.14 -0.56,0.58 0,0.91 0.93,1.57 2.02,1.57 1.22,0 2.13,-0.91 2.13,-1.93 0,-0.82 -0.63,-1.6 -1.67,-1.81 z" />
        <path
           inkscape:connector-curvature="0"
           id="equation_13_08"
           d="m 6.87,-3.27 c 0.15,0 0.34,0 0.34,-0.2 0,-0.2 -0.19,-0.2 -0.33,-0.2 H 0.89 c -0.14,0 -0.33,0 -0.33,0.2 0,0.2 0.19,0.2 0.34,0.2 h 5.97 z m 0.01,1.94 c 0.14,0 0.33,0 0.33,-0.2 0,-0.2 -0.19,-0.2 -0.34,-0.2 H 0.9 c -0.15,0 -0.34,0 -0.34,0.2 0,0.2 0.19,0.2 0.33,0.2 h 5.99 z" />
        <path
           inkscape:connector-curvature="0"
           id="equation_13_09"
           d="M 3.535,-1.274 H 3.297 C 3.276,-1.12 3.206,-0.707 3.115,-0.637 3.059,-0.595 2.52,-0.595 2.422,-0.595 H 1.134 c 0.735,-0.651 0.98,-0.847 1.4,-1.176 0.518,-0.413 1.001,-0.847 1.001,-1.512 0,-0.847 -0.742,-1.365 -1.638,-1.365 -0.868,0 -1.456,0.609 -1.456,1.253 0,0.357 0.301,0.392 0.371,0.392 0.168,0 0.371,-0.119 0.371,-0.371 0,-0.126 -0.049,-0.371 -0.413,-0.371 0.217,-0.497 0.693,-0.651 1.022,-0.651 0.7,0 1.064,0.546 1.064,1.113 0,0.609 -0.434,1.092 -0.658,1.344 L 0.511,-0.273 C 0.441,-0.21 0.441,-0.196 0.441,0 h 2.884 l 0.21,-1.274 z" />
      </defs>
      <g
         id="equation_13_g">
        <use
           height="1052.3622"
           width="744.09448"
           id="use9191"
           y="63"
           xlink:href="#equation_13_00"
           x="77" />
        <use
           height="1052.3622"
           width="744.09448"
           id="use9193"
           y="64.5"
           xlink:href="#equation_13_09"
           x="82.700302" />
        <use
           height="1052.3622"
           width="744.09448"
           id="use9195"
           y="64.5"
           xlink:href="#equation_13_05"
           x="86.686401" />
        <use
           height="1052.3622"
           width="744.09448"
           id="use9197"
           y="63"
           xlink:href="#equation_13_08"
           x="93.677696" />
        <use
           height="1052.3622"
           width="744.09448"
           id="use9199"
           y="63"
           xlink:href="#equation_13_06"
           x="104.233" />
        <use
           height="1052.3622"
           width="744.09448"
           id="use9201"
           y="63"
           xlink:href="#equation_13_01"
           x="109.233" />
        <use
           height="1052.3622"
           width="744.09448"
           id="use9203"
           y="63"
           xlink:href="#equation_13_04"
           x="113.678" />
        <use
           height="1052.3622"
           width="744.09448"
           id="use9205"
           y="63"
           xlink:href="#equation_13_02"
           x="119.233" />
        <use
           height="1052.3622"
           width="744.09448"
           id="use9207"
           y="63"
           xlink:href="#equation_13_03"
           x="126.701" />
        <use
           height="1052.3622"
           width="744.09448"
           id="use9209"
           y="63"
           xlink:href="#equation_13_08"
           x="126.701" />
        <use
           height="1052.3622"
           width="744.09448"
           id="use9211"
           y="63"
           xlink:href="#equation_13_07"
           x="137.257" />
      </g>
    </g>
    <g
       id="equation_14"
       style="fill:#000000"
       transform="matrix(1.1695371,0,0,1.4097938,247.0172,866.18613)">
      <defs
         id="defs9733">
        <path
           d="m 2.65,-3.73 h 1.13 c -0.33,1.48 -0.42,1.91 -0.42,2.58 0,0.15 0,0.42 0.08,0.76 0.1,0.44 0.21,0.5 0.36,0.5 0.2,0 0.41,-0.18 0.41,-0.38 0,-0.06 0,-0.08 -0.06,-0.22 -0.29,-0.72 -0.29,-1.37 -0.29,-1.65 0,-0.53 0.07,-1.07 0.18,-1.59 h 1.14 c 0.13,0 0.49,0 0.49,-0.34 0,-0.24 -0.21,-0.24 -0.4,-0.24 H 1.92 c -0.22,0 -0.6,0 -1.04,0.47 -0.35,0.39 -0.61,0.85 -0.61,0.9 0,0.01 0,0.1 0.12,0.1 0.08,0 0.1,-0.04 0.16,-0.12 0.49,-0.77 1.07,-0.77 1.27,-0.77 h 0.57 c -0.32,1.21 -0.86,2.42 -1.28,3.33 -0.08,0.15 -0.08,0.17 -0.08,0.24 0,0.19 0.16,0.27 0.29,0.27 0.3,0 0.38,-0.28 0.5,-0.65 C 1.96,-1 1.96,-1.02 2.09,-1.52 l 0.56,-2.21 z"
           id="equation_14_00"
           inkscape:connector-curvature="0" />
        <path
           d="m 2.03,-0.01 c 0,-0.66 -0.25,-1.05 -0.64,-1.05 -0.33,0 -0.53,0.25 -0.53,0.53 0,0.27 0.2,0.53 0.53,0.53 0.12,0 0.25,-0.04 0.35,-0.13 0.03,-0.02 0.04,-0.03 0.05,-0.03 0.01,0 0.02,0.01 0.02,0.15 0,0.74 -0.35,1.34 -0.68,1.67 -0.11,0.11 -0.11,0.13 -0.11,0.16 0,0.07 0.05,0.11 0.1,0.11 0.11,0 0.91,-0.77 0.91,-1.94 z"
           id="equation_14_01"
           inkscape:connector-curvature="0" />
        <path
           d="m 3.97,-6.25 c 0,-0.19 -0.14,-0.36 -0.38,-0.36 -0.23,0 -0.53,0.23 -0.53,0.53 0,0.2 0.14,0.36 0.37,0.36 0.27,0 0.54,-0.26 0.54,-0.53 z M 1.96,0.5 C 1.77,1.26 1.29,1.83 0.73,1.83 0.67,1.83 0.52,1.83 0.34,1.74 0.64,1.67 0.79,1.41 0.79,1.21 0.79,1.05 0.68,0.86 0.41,0.86 c -0.25,0 -0.54,0.21 -0.54,0.57 0,0.4 0.4,0.62 0.88,0.62 0.7,0 1.63,-0.53 1.88,-1.52 L 3.55,-3.13 C 3.6,-3.33 3.6,-3.47 3.6,-3.5 c 0,-0.57 -0.42,-0.92 -0.92,-0.92 -1.02,0 -1.59,1.45 -1.59,1.54 0,0.1 0.1,0.1 0.12,0.1 0.09,0 0.1,-0.01 0.18,-0.2 0.25,-0.61 0.71,-1.22 1.26,-1.22 0.14,0 0.32,0.04 0.32,0.46 0,0.23 -0.03,0.34 -0.07,0.51 L 1.96,0.5 z"
           id="equation_14_02"
           inkscape:connector-curvature="0" />
        <path
           d="m 6.3,-6.77 c 0.08,-0.14 0.08,-0.16 0.08,-0.19 0,-0.07 -0.06,-0.2 -0.2,-0.2 -0.12,0 -0.15,0.06 -0.22,0.2 L 1.47,1.77 C 1.39,1.91 1.39,1.93 1.39,1.96 c 0,0.08 0.07,0.2 0.2,0.2 0.12,0 0.15,-0.06 0.22,-0.2 L 6.3,-6.77 z"
           id="equation_14_03"
           inkscape:connector-curvature="0" />
        <path
           d="m 5.51,-6.56 c 0.05,-0.11 0.05,-0.13 0.05,-0.18 0,-0.1 -0.08,-0.2 -0.2,-0.2 -0.13,0 -0.19,0.12 -0.23,0.23 L 4.3,-4.51 H 1.26 L 0.43,-6.71 C 0.38,-6.85 0.33,-6.94 0.2,-6.94 c -0.1,0 -0.2,0.1 -0.2,0.2 0,0.02 0,0.04 0.06,0.18 l 2.49,6.55 C 2.6,0.13 2.65,0.22 2.78,0.22 2.92,0.22 2.96,0.11 3,0.01 L 5.51,-6.56 z M 1.42,-4.11 H 4.14 L 2.78,-0.55 1.42,-4.11 z"
           id="equation_14_04"
           inkscape:connector-curvature="0" />
        <path
           d="m 3.073,-4.375 c 0,-0.119 -0.091,-0.266 -0.28,-0.266 -0.203,0 -0.392,0.196 -0.392,0.385 0,0.112 0.084,0.266 0.28,0.266 0.189,0 0.392,-0.182 0.392,-0.385 z M 1.589,0.343 C 1.47,0.826 1.099,1.232 0.686,1.232 0.595,1.232 0.511,1.218 0.434,1.19 0.616,1.106 0.672,0.938 0.672,0.833 0.672,0.665 0.539,0.574 0.399,0.574 0.182,0.574 0,0.763 0,0.987 c 0,0.266 0.273,0.441 0.693,0.441 0.42,0 1.239,-0.252 1.456,-1.106 l 0.63,-2.506 c 0.021,-0.077 0.035,-0.14 0.035,-0.245 0,-0.385 -0.329,-0.658 -0.749,-0.658 -0.777,0 -1.225,0.973 -1.225,1.071 0,0.091 0.098,0.091 0.119,0.091 0.084,0 0.091,-0.021 0.14,-0.126 0.175,-0.406 0.539,-0.84 0.945,-0.84 0.175,0 0.238,0.119 0.238,0.343 0,0.077 -0.014,0.175 -0.021,0.21 L 1.589,0.343 z"
           id="equation_14_05"
           inkscape:connector-curvature="0" />
        <path
           d="M 4.6,-3.2 C 4.6,-4 4.55,-4.8 4.2,-5.54 3.74,-6.5 2.92,-6.66 2.5,-6.66 1.9,-6.66 1.17,-6.4 0.76,-5.47 0.44,-4.78 0.39,-4 0.39,-3.2 c 0,0.75 0.04,1.65 0.45,2.41 C 1.27,0.02 2,0.22 2.49,0.22 3.03,0.22 3.79,0.01 4.23,-0.94 4.55,-1.63 4.6,-2.41 4.6,-3.2 z M 2.49,0 C 2.1,0 1.51,-0.25 1.33,-1.21 1.22,-1.81 1.22,-2.73 1.22,-3.32 c 0,-0.64 0,-1.3 0.08,-1.84 0.19,-1.19 0.94,-1.28 1.19,-1.28 0.33,0 0.99,0.18 1.18,1.17 0.1,0.56 0.1,1.32 0.1,1.95 0,0.75 0,1.43 -0.11,2.07 C 3.51,-0.3 2.94,0 2.49,0 z"
           id="equation_14_06"
           inkscape:connector-curvature="0" />
        <path
           d="M 1.27,-0.77 2.33,-1.8 c 1.56,-1.38 2.16,-1.92 2.16,-2.92 0,-1.14 -0.9,-1.94 -2.12,-1.94 -1.13,0 -1.87,0.92 -1.87,1.81 0,0.56 0.5,0.56 0.53,0.56 0.17,0 0.52,-0.12 0.52,-0.53 0,-0.26 -0.18,-0.52 -0.53,-0.52 -0.08,0 -0.1,0 -0.13,0.01 0.23,-0.65 0.77,-1.02 1.35,-1.02 0.91,0 1.34,0.81 1.34,1.63 0,0.8 -0.5,1.59 -1.05,2.21 L 0.61,-0.37 C 0.5,-0.26 0.5,-0.24 0.5,0 H 4.21 L 4.49,-1.74 H 4.24 C 4.19,-1.44 4.12,-1 4.02,-0.85 3.95,-0.77 3.29,-0.77 3.07,-0.77 h -1.8 z"
           id="equation_14_07"
           inkscape:connector-curvature="0" />
        <path
           d="m 6.87,-3.27 c 0.15,0 0.34,0 0.34,-0.2 0,-0.2 -0.19,-0.2 -0.33,-0.2 H 0.89 c -0.14,0 -0.33,0 -0.33,0.2 0,0.2 0.19,0.2 0.34,0.2 h 5.97 z m 0.01,1.94 c 0.14,0 0.33,0 0.33,-0.2 0,-0.2 -0.19,-0.2 -0.34,-0.2 H 0.9 c -0.15,0 -0.34,0 -0.34,0.2 0,0.2 0.19,0.2 0.33,0.2 h 5.99 z"
           id="equation_14_08"
           inkscape:connector-curvature="0" />
        <path
           d="m 1.911,-2.338 c 0.546,0 0.938,0.378 0.938,1.127 0,0.868 -0.504,1.127 -0.91,1.127 -0.28,0 -0.896,-0.077 -1.19,-0.49 0.329,-0.014 0.406,-0.245 0.406,-0.392 0,-0.224 -0.168,-0.385 -0.385,-0.385 -0.196,0 -0.392,0.119 -0.392,0.406 0,0.658 0.728,1.085 1.575,1.085 0.973,0 1.645,-0.651 1.645,-1.351 0,-0.546 -0.448,-1.092 -1.218,-1.253 0.735,-0.266 1.001,-0.791 1.001,-1.218 0,-0.553 -0.637,-0.966 -1.414,-0.966 -0.777,0 -1.372,0.378 -1.372,0.938 0,0.238 0.154,0.371 0.364,0.371 0.217,0 0.357,-0.161 0.357,-0.357 0,-0.203 -0.14,-0.35 -0.357,-0.364 0.245,-0.308 0.728,-0.385 0.987,-0.385 0.315,0 0.756,0.154 0.756,0.763 0,0.294 -0.098,0.616 -0.28,0.833 -0.231,0.266 -0.427,0.28 -0.777,0.301 -0.175,0.014 -0.189,0.014 -0.224,0.021 -0.014,0 -0.07,0.014 -0.07,0.091 0,0.098 0.063,0.098 0.182,0.098 h 0.378 z"
           id="equation_14_09"
           inkscape:connector-curvature="0" />
      </defs>
      <g
         id="equation_14_g">
        <use
           x="77"
           xlink:href="#equation_14_00"
           y="63"
           id="use9746"
           width="744.09448"
           height="1052.3622" />
        <use
           x="82.700302"
           xlink:href="#equation_14_09"
           y="64.5"
           id="use9748"
           width="744.09448"
           height="1052.3622" />
        <use
           x="86.686401"
           xlink:href="#equation_14_05"
           y="64.5"
           id="use9750"
           width="744.09448"
           height="1052.3622" />
        <use
           x="93.677696"
           xlink:href="#equation_14_08"
           y="63"
           id="use9752"
           width="744.09448"
           height="1052.3622" />
        <use
           x="104.233"
           xlink:href="#equation_14_06"
           y="63"
           id="use9754"
           width="744.09448"
           height="1052.3622" />
        <use
           x="109.233"
           xlink:href="#equation_14_01"
           y="63"
           id="use9756"
           width="744.09448"
           height="1052.3622" />
        <use
           x="113.678"
           xlink:href="#equation_14_04"
           y="63"
           id="use9758"
           width="744.09448"
           height="1052.3622" />
        <use
           x="119.233"
           xlink:href="#equation_14_02"
           y="63"
           id="use9760"
           width="744.09448"
           height="1052.3622" />
        <use
           x="126.701"
           xlink:href="#equation_14_03"
           y="63"
           id="use9762"
           width="744.09448"
           height="1052.3622" />
        <use
           x="126.701"
           xlink:href="#equation_14_08"
           y="63"
           id="use9764"
           width="744.09448"
           height="1052.3622" />
        <use
           x="137.257"
           xlink:href="#equation_14_07"
           y="63"
           id="use9766"
           width="744.09448"
           height="1052.3622" />
      </g>
    </g>
    <path
       inkscape:connector-curvature="0"
       id="path10105"
       d="m 370,965.07566 0,27.2865"
       style="fill:none;stroke:#000000;stroke-width:1.10779381;stroke-linecap:butt;stroke-linejoin:miter;stroke-miterlimit:4;stroke-opacity:1;stroke-dasharray:1.10779379, 1.10779379;stroke-dashoffset:0" />
    <g
       id="equation_14-8"
       style="fill:#000000"
       transform="matrix(1.1671118,0,0,1.8062973,258.25947,900.07576)">
      <defs
         id="defs9733-4">
        <path
           d="m 2.65,-3.73 h 1.13 c -0.33,1.48 -0.42,1.91 -0.42,2.58 0,0.15 0,0.42 0.08,0.76 0.1,0.44 0.21,0.5 0.36,0.5 0.2,0 0.41,-0.18 0.41,-0.38 0,-0.06 0,-0.08 -0.06,-0.22 -0.29,-0.72 -0.29,-1.37 -0.29,-1.65 0,-0.53 0.07,-1.07 0.18,-1.59 h 1.14 c 0.13,0 0.49,0 0.49,-0.34 0,-0.24 -0.21,-0.24 -0.4,-0.24 H 1.92 c -0.22,0 -0.6,0 -1.04,0.47 -0.35,0.39 -0.61,0.85 -0.61,0.9 0,0.01 0,0.1 0.12,0.1 0.08,0 0.1,-0.04 0.16,-0.12 0.49,-0.77 1.07,-0.77 1.27,-0.77 h 0.57 c -0.32,1.21 -0.86,2.42 -1.28,3.33 -0.08,0.15 -0.08,0.17 -0.08,0.24 0,0.19 0.16,0.27 0.29,0.27 0.3,0 0.38,-0.28 0.5,-0.65 C 1.96,-1 1.96,-1.02 2.09,-1.52 l 0.56,-2.21 z"
           id="equation_14_00-9"
           inkscape:connector-curvature="0" />
        <path
           d="m 2.03,-0.01 c 0,-0.66 -0.25,-1.05 -0.64,-1.05 -0.33,0 -0.53,0.25 -0.53,0.53 0,0.27 0.2,0.53 0.53,0.53 0.12,0 0.25,-0.04 0.35,-0.13 0.03,-0.02 0.04,-0.03 0.05,-0.03 0.01,0 0.02,0.01 0.02,0.15 0,0.74 -0.35,1.34 -0.68,1.67 -0.11,0.11 -0.11,0.13 -0.11,0.16 0,0.07 0.05,0.11 0.1,0.11 0.11,0 0.91,-0.77 0.91,-1.94 z"
           id="equation_14_01-4"
           inkscape:connector-curvature="0" />
        <path
           d="m 3.97,-6.25 c 0,-0.19 -0.14,-0.36 -0.38,-0.36 -0.23,0 -0.53,0.23 -0.53,0.53 0,0.2 0.14,0.36 0.37,0.36 0.27,0 0.54,-0.26 0.54,-0.53 z M 1.96,0.5 C 1.77,1.26 1.29,1.83 0.73,1.83 0.67,1.83 0.52,1.83 0.34,1.74 0.64,1.67 0.79,1.41 0.79,1.21 0.79,1.05 0.68,0.86 0.41,0.86 c -0.25,0 -0.54,0.21 -0.54,0.57 0,0.4 0.4,0.62 0.88,0.62 0.7,0 1.63,-0.53 1.88,-1.52 L 3.55,-3.13 C 3.6,-3.33 3.6,-3.47 3.6,-3.5 c 0,-0.57 -0.42,-0.92 -0.92,-0.92 -1.02,0 -1.59,1.45 -1.59,1.54 0,0.1 0.1,0.1 0.12,0.1 0.09,0 0.1,-0.01 0.18,-0.2 0.25,-0.61 0.71,-1.22 1.26,-1.22 0.14,0 0.32,0.04 0.32,0.46 0,0.23 -0.03,0.34 -0.07,0.51 L 1.96,0.5 z"
           id="equation_14_02-3"
           inkscape:connector-curvature="0" />
        <path
           d="m 6.3,-6.77 c 0.08,-0.14 0.08,-0.16 0.08,-0.19 0,-0.07 -0.06,-0.2 -0.2,-0.2 -0.12,0 -0.15,0.06 -0.22,0.2 L 1.47,1.77 C 1.39,1.91 1.39,1.93 1.39,1.96 c 0,0.08 0.07,0.2 0.2,0.2 0.12,0 0.15,-0.06 0.22,-0.2 L 6.3,-6.77 z"
           id="equation_14_03-2"
           inkscape:connector-curvature="0" />
        <path
           d="m 5.51,-6.56 c 0.05,-0.11 0.05,-0.13 0.05,-0.18 0,-0.1 -0.08,-0.2 -0.2,-0.2 -0.13,0 -0.19,0.12 -0.23,0.23 L 4.3,-4.51 H 1.26 L 0.43,-6.71 C 0.38,-6.85 0.33,-6.94 0.2,-6.94 c -0.1,0 -0.2,0.1 -0.2,0.2 0,0.02 0,0.04 0.06,0.18 l 2.49,6.55 C 2.6,0.13 2.65,0.22 2.78,0.22 2.92,0.22 2.96,0.11 3,0.01 L 5.51,-6.56 z M 1.42,-4.11 H 4.14 L 2.78,-0.55 1.42,-4.11 z"
           id="equation_14_04-1"
           inkscape:connector-curvature="0" />
        <path
           d="m 3.073,-4.375 c 0,-0.119 -0.091,-0.266 -0.28,-0.266 -0.203,0 -0.392,0.196 -0.392,0.385 0,0.112 0.084,0.266 0.28,0.266 0.189,0 0.392,-0.182 0.392,-0.385 z M 1.589,0.343 C 1.47,0.826 1.099,1.232 0.686,1.232 0.595,1.232 0.511,1.218 0.434,1.19 0.616,1.106 0.672,0.938 0.672,0.833 0.672,0.665 0.539,0.574 0.399,0.574 0.182,0.574 0,0.763 0,0.987 c 0,0.266 0.273,0.441 0.693,0.441 0.42,0 1.239,-0.252 1.456,-1.106 l 0.63,-2.506 c 0.021,-0.077 0.035,-0.14 0.035,-0.245 0,-0.385 -0.329,-0.658 -0.749,-0.658 -0.777,0 -1.225,0.973 -1.225,1.071 0,0.091 0.098,0.091 0.119,0.091 0.084,0 0.091,-0.021 0.14,-0.126 0.175,-0.406 0.539,-0.84 0.945,-0.84 0.175,0 0.238,0.119 0.238,0.343 0,0.077 -0.014,0.175 -0.021,0.21 L 1.589,0.343 z"
           id="equation_14_05-9"
           inkscape:connector-curvature="0" />
        <path
           d="M 4.6,-3.2 C 4.6,-4 4.55,-4.8 4.2,-5.54 3.74,-6.5 2.92,-6.66 2.5,-6.66 1.9,-6.66 1.17,-6.4 0.76,-5.47 0.44,-4.78 0.39,-4 0.39,-3.2 c 0,0.75 0.04,1.65 0.45,2.41 C 1.27,0.02 2,0.22 2.49,0.22 3.03,0.22 3.79,0.01 4.23,-0.94 4.55,-1.63 4.6,-2.41 4.6,-3.2 z M 2.49,0 C 2.1,0 1.51,-0.25 1.33,-1.21 1.22,-1.81 1.22,-2.73 1.22,-3.32 c 0,-0.64 0,-1.3 0.08,-1.84 0.19,-1.19 0.94,-1.28 1.19,-1.28 0.33,0 0.99,0.18 1.18,1.17 0.1,0.56 0.1,1.32 0.1,1.95 0,0.75 0,1.43 -0.11,2.07 C 3.51,-0.3 2.94,0 2.49,0 z"
           id="equation_14_06-8"
           inkscape:connector-curvature="0" />
        <path
           d="M 1.27,-0.77 2.33,-1.8 c 1.56,-1.38 2.16,-1.92 2.16,-2.92 0,-1.14 -0.9,-1.94 -2.12,-1.94 -1.13,0 -1.87,0.92 -1.87,1.81 0,0.56 0.5,0.56 0.53,0.56 0.17,0 0.52,-0.12 0.52,-0.53 0,-0.26 -0.18,-0.52 -0.53,-0.52 -0.08,0 -0.1,0 -0.13,0.01 0.23,-0.65 0.77,-1.02 1.35,-1.02 0.91,0 1.34,0.81 1.34,1.63 0,0.8 -0.5,1.59 -1.05,2.21 L 0.61,-0.37 C 0.5,-0.26 0.5,-0.24 0.5,0 H 4.21 L 4.49,-1.74 H 4.24 C 4.19,-1.44 4.12,-1 4.02,-0.85 3.95,-0.77 3.29,-0.77 3.07,-0.77 h -1.8 z"
           id="equation_14_07-0"
           inkscape:connector-curvature="0" />
        <path
           d="m 6.87,-3.27 c 0.15,0 0.34,0 0.34,-0.2 0,-0.2 -0.19,-0.2 -0.33,-0.2 H 0.89 c -0.14,0 -0.33,0 -0.33,0.2 0,0.2 0.19,0.2 0.34,0.2 h 5.97 z m 0.01,1.94 c 0.14,0 0.33,0 0.33,-0.2 0,-0.2 -0.19,-0.2 -0.34,-0.2 H 0.9 c -0.15,0 -0.34,0 -0.34,0.2 0,0.2 0.19,0.2 0.33,0.2 h 5.99 z"
           id="equation_14_08-1"
           inkscape:connector-curvature="0" />
        <path
           d="m 1.911,-2.338 c 0.546,0 0.938,0.378 0.938,1.127 0,0.868 -0.504,1.127 -0.91,1.127 -0.28,0 -0.896,-0.077 -1.19,-0.49 0.329,-0.014 0.406,-0.245 0.406,-0.392 0,-0.224 -0.168,-0.385 -0.385,-0.385 -0.196,0 -0.392,0.119 -0.392,0.406 0,0.658 0.728,1.085 1.575,1.085 0.973,0 1.645,-0.651 1.645,-1.351 0,-0.546 -0.448,-1.092 -1.218,-1.253 0.735,-0.266 1.001,-0.791 1.001,-1.218 0,-0.553 -0.637,-0.966 -1.414,-0.966 -0.777,0 -1.372,0.378 -1.372,0.938 0,0.238 0.154,0.371 0.364,0.371 0.217,0 0.357,-0.161 0.357,-0.357 0,-0.203 -0.14,-0.35 -0.357,-0.364 0.245,-0.308 0.728,-0.385 0.987,-0.385 0.315,0 0.756,0.154 0.756,0.763 0,0.294 -0.098,0.616 -0.28,0.833 -0.231,0.266 -0.427,0.28 -0.777,0.301 -0.175,0.014 -0.189,0.014 -0.224,0.021 -0.014,0 -0.07,0.014 -0.07,0.091 0,0.098 0.063,0.098 0.182,0.098 h 0.378 z"
           id="equation_14_09-4"
           inkscape:connector-curvature="0" />
      </defs>
      <g
         id="equation_14_g-5"
         transform="matrix(1,0,0,0.78048825,0,13.938557)">
        <g
           style="fill:#000000"
           id="equation_15"
           transform="translate(-7.8069124,-2.4300028)">
          <defs
             id="defs10439">
            <path
               id="equation_15_00"
               d="m 2.65,-3.73 h 1.13 c -0.33,1.48 -0.42,1.91 -0.42,2.58 0,0.15 0,0.42 0.08,0.76 0.1,0.44 0.21,0.5 0.36,0.5 0.2,0 0.41,-0.18 0.41,-0.38 0,-0.06 0,-0.08 -0.06,-0.22 -0.29,-0.72 -0.29,-1.37 -0.29,-1.65 0,-0.53 0.07,-1.07 0.18,-1.59 h 1.14 c 0.13,0 0.49,0 0.49,-0.34 0,-0.24 -0.21,-0.24 -0.4,-0.24 H 1.92 c -0.22,0 -0.6,0 -1.04,0.47 -0.35,0.39 -0.61,0.85 -0.61,0.9 0,0.01 0,0.1 0.12,0.1 0.08,0 0.1,-0.04 0.16,-0.12 0.49,-0.77 1.07,-0.77 1.27,-0.77 h 0.57 c -0.32,1.21 -0.86,2.42 -1.28,3.33 -0.08,0.15 -0.08,0.17 -0.08,0.24 0,0.19 0.16,0.27 0.29,0.27 0.3,0 0.38,-0.28 0.5,-0.65 C 1.96,-1 1.96,-1.02 2.09,-1.52 l 0.56,-2.21 z"
               inkscape:connector-curvature="0" />
            <path
               id="equation_15_01"
               d="m 2.03,-0.01 c 0,-0.66 -0.25,-1.05 -0.64,-1.05 -0.33,0 -0.53,0.25 -0.53,0.53 0,0.27 0.2,0.53 0.53,0.53 0.12,0 0.25,-0.04 0.35,-0.13 0.03,-0.02 0.04,-0.03 0.05,-0.03 0.01,0 0.02,0.01 0.02,0.15 0,0.74 -0.35,1.34 -0.68,1.67 -0.11,0.11 -0.11,0.13 -0.11,0.16 0,0.07 0.05,0.11 0.1,0.11 0.11,0 0.91,-0.77 0.91,-1.94 z"
               inkscape:connector-curvature="0" />
            <path
               id="equation_15_02"
               d="m 3.97,-6.25 c 0,-0.19 -0.14,-0.36 -0.38,-0.36 -0.23,0 -0.53,0.23 -0.53,0.53 0,0.2 0.14,0.36 0.37,0.36 0.27,0 0.54,-0.26 0.54,-0.53 z M 1.96,0.5 C 1.77,1.26 1.29,1.83 0.73,1.83 0.67,1.83 0.52,1.83 0.34,1.74 0.64,1.67 0.79,1.41 0.79,1.21 0.79,1.05 0.68,0.86 0.41,0.86 c -0.25,0 -0.54,0.21 -0.54,0.57 0,0.4 0.4,0.62 0.88,0.62 0.7,0 1.63,-0.53 1.88,-1.52 L 3.55,-3.13 C 3.6,-3.33 3.6,-3.47 3.6,-3.5 c 0,-0.57 -0.42,-0.92 -0.92,-0.92 -1.02,0 -1.59,1.45 -1.59,1.54 0,0.1 0.1,0.1 0.12,0.1 0.09,0 0.1,-0.01 0.18,-0.2 0.25,-0.61 0.71,-1.22 1.26,-1.22 0.14,0 0.32,0.04 0.32,0.46 0,0.23 -0.03,0.34 -0.07,0.51 L 1.96,0.5 z"
               inkscape:connector-curvature="0" />
            <path
               id="equation_15_03"
               d="m 6.3,-6.77 c 0.08,-0.14 0.08,-0.16 0.08,-0.19 0,-0.07 -0.06,-0.2 -0.2,-0.2 -0.12,0 -0.15,0.06 -0.22,0.2 L 1.47,1.77 C 1.39,1.91 1.39,1.93 1.39,1.96 c 0,0.08 0.07,0.2 0.2,0.2 0.12,0 0.15,-0.06 0.22,-0.2 L 6.3,-6.77 z"
               inkscape:connector-curvature="0" />
            <path
               id="equation_15_04"
               d="m 5.51,-6.56 c 0.05,-0.11 0.05,-0.13 0.05,-0.18 0,-0.1 -0.08,-0.2 -0.2,-0.2 -0.13,0 -0.19,0.12 -0.23,0.23 L 4.3,-4.51 H 1.26 L 0.43,-6.71 C 0.38,-6.85 0.33,-6.94 0.2,-6.94 c -0.1,0 -0.2,0.1 -0.2,0.2 0,0.02 0,0.04 0.06,0.18 l 2.49,6.55 C 2.6,0.13 2.65,0.22 2.78,0.22 2.92,0.22 2.96,0.11 3,0.01 L 5.51,-6.56 z M 1.42,-4.11 H 4.14 L 2.78,-0.55 1.42,-4.11 z"
               inkscape:connector-curvature="0" />
            <path
               id="equation_15_05"
               d="m 3.073,-4.375 c 0,-0.119 -0.091,-0.266 -0.28,-0.266 -0.203,0 -0.392,0.196 -0.392,0.385 0,0.112 0.084,0.266 0.28,0.266 0.189,0 0.392,-0.182 0.392,-0.385 z M 1.589,0.343 C 1.47,0.826 1.099,1.232 0.686,1.232 0.595,1.232 0.511,1.218 0.434,1.19 0.616,1.106 0.672,0.938 0.672,0.833 0.672,0.665 0.539,0.574 0.399,0.574 0.182,0.574 0,0.763 0,0.987 c 0,0.266 0.273,0.441 0.693,0.441 0.42,0 1.239,-0.252 1.456,-1.106 l 0.63,-2.506 c 0.021,-0.077 0.035,-0.14 0.035,-0.245 0,-0.385 -0.329,-0.658 -0.749,-0.658 -0.777,0 -1.225,0.973 -1.225,1.071 0,0.091 0.098,0.091 0.119,0.091 0.084,0 0.091,-0.021 0.14,-0.126 0.175,-0.406 0.539,-0.84 0.945,-0.84 0.175,0 0.238,0.119 0.238,0.343 0,0.077 -0.014,0.175 -0.021,0.21 L 1.589,0.343 z"
               inkscape:connector-curvature="0" />
            <path
               id="equation_15_06"
               d="m 2.191,-4.648 c 0.007,-0.014 0.028,-0.105 0.028,-0.112 0,-0.035 -0.028,-0.098 -0.112,-0.098 -0.14,0 -0.721,0.056 -0.896,0.07 -0.056,0.007 -0.154,0.014 -0.154,0.161 0,0.098 0.098,0.098 0.182,0.098 0.336,0 0.336,0.049 0.336,0.105 0,0.049 -0.014,0.091 -0.028,0.154 L 0.56,-0.308 c -0.035,0.126 -0.035,0.14 -0.035,0.154 0,0.105 0.084,0.224 0.238,0.224 0.189,0 0.28,-0.14 0.322,-0.294 0.014,-0.028 0.315,-1.26 0.343,-1.358 0.497,0.049 0.896,0.21 0.896,0.574 0,0.035 0,0.07 -0.014,0.14 -0.028,0.105 -0.028,0.14 -0.028,0.217 0,0.497 0.406,0.721 0.742,0.721 0.679,0 0.889,-1.064 0.889,-1.071 0,-0.091 -0.091,-0.091 -0.112,-0.091 -0.098,0 -0.105,0.035 -0.14,0.168 -0.084,0.301 -0.273,0.798 -0.616,0.798 -0.189,0 -0.245,-0.175 -0.245,-0.364 0,-0.119 0,-0.133 0.042,-0.315 0.007,-0.021 0.035,-0.14 0.035,-0.217 0,-0.623 -0.84,-0.721 -1.134,-0.742 0.203,-0.126 0.462,-0.357 0.581,-0.462 0.357,-0.336 0.707,-0.665 1.099,-0.665 0.084,0 0.175,0.021 0.231,0.091 -0.301,0.049 -0.364,0.287 -0.364,0.392 0,0.154 0.119,0.259 0.28,0.259 0.189,0 0.399,-0.154 0.399,-0.448 0,-0.231 -0.168,-0.49 -0.539,-0.49 -0.399,0 -0.763,0.287 -1.12,0.616 -0.294,0.28 -0.525,0.497 -0.812,0.616 l 0.693,-2.793 z"
               inkscape:connector-curvature="0" />
            <path
               id="equation_15_07"
               d="M 4.6,-3.2 C 4.6,-4 4.55,-4.8 4.2,-5.54 3.74,-6.5 2.92,-6.66 2.5,-6.66 1.9,-6.66 1.17,-6.4 0.76,-5.47 0.44,-4.78 0.39,-4 0.39,-3.2 c 0,0.75 0.04,1.65 0.45,2.41 C 1.27,0.02 2,0.22 2.49,0.22 3.03,0.22 3.79,0.01 4.23,-0.94 4.55,-1.63 4.6,-2.41 4.6,-3.2 z M 2.49,0 C 2.1,0 1.51,-0.25 1.33,-1.21 1.22,-1.81 1.22,-2.73 1.22,-3.32 c 0,-0.64 0,-1.3 0.08,-1.84 0.19,-1.19 0.94,-1.28 1.19,-1.28 0.33,0 0.99,0.18 1.18,1.17 0.1,0.56 0.1,1.32 0.1,1.95 0,0.75 0,1.43 -0.11,2.07 C 3.51,-0.3 2.94,0 2.49,0 z"
               inkscape:connector-curvature="0" />
            <path
               id="equation_15_08"
               d="m 2.94,-6.4 c 0,-0.24 0,-0.26 -0.23,-0.26 -0.62,0.64 -1.5,0.64 -1.82,0.64 v 0.31 c 0.2,0 0.79,0 1.31,-0.26 v 5.18 c 0,0.36 -0.03,0.48 -0.93,0.48 H 0.95 V 0 c 0.35,-0.03 1.22,-0.03 1.62,-0.03 0.4,0 1.27,0 1.62,0.03 V -0.31 H 3.87 c -0.9,0 -0.93,-0.11 -0.93,-0.48 V -6.4 z"
               inkscape:connector-curvature="0" />
            <path
               id="equation_15_09"
               d="m 6.87,-3.27 c 0.15,0 0.34,0 0.34,-0.2 0,-0.2 -0.19,-0.2 -0.33,-0.2 H 0.89 c -0.14,0 -0.33,0 -0.33,0.2 0,0.2 0.19,0.2 0.34,0.2 h 5.97 z m 0.01,1.94 c 0.14,0 0.33,0 0.33,-0.2 0,-0.2 -0.19,-0.2 -0.34,-0.2 H 0.9 c -0.15,0 -0.34,0 -0.34,0.2 0,0.2 0.19,0.2 0.33,0.2 h 5.99 z"
               inkscape:connector-curvature="0" />
          </defs>
          <g
             id="equation_15_g">
            <use
               id="use10452"
               y="63"
               xlink:href="#equation_15_00"
               x="77"
               width="1052.3622"
               height="744.09448" />
            <use
               id="use10454"
               y="64.5"
               xlink:href="#equation_15_06"
               x="82.700302"
               width="1052.3622"
               height="744.09448" />
            <use
               id="use10456"
               y="64.5"
               xlink:href="#equation_15_05"
               x="87.120399"
               width="1052.3622"
               height="744.09448" />
            <use
               id="use10458"
               y="63"
               xlink:href="#equation_15_09"
               x="94.111702"
               width="1052.3622"
               height="744.09448" />
            <use
               id="use10460"
               y="63"
               xlink:href="#equation_15_07"
               x="104.667"
               width="1052.3622"
               height="744.09448" />
            <use
               id="use10462"
               y="63"
               xlink:href="#equation_15_01"
               x="109.667"
               width="1052.3622"
               height="744.09448" />
            <use
               id="use10464"
               y="63"
               xlink:href="#equation_15_04"
               x="114.112"
               width="1052.3622"
               height="744.09448" />
            <use
               id="use10466"
               y="63"
               xlink:href="#equation_15_02"
               x="119.667"
               width="1052.3622"
               height="744.09448" />
            <use
               id="use10468"
               y="63"
               xlink:href="#equation_15_03"
               x="127.135"
               width="1052.3622"
               height="744.09448" />
            <use
               id="use10470"
               y="63"
               xlink:href="#equation_15_09"
               x="127.135"
               width="1052.3622"
               height="744.09448" />
            <use
               id="use10472"
               y="63"
               xlink:href="#equation_15_08"
               x="137.69099"
               width="1052.3622"
               height="744.09448" />
          </g>
        </g>
      </g>
    </g>
  </g>
</svg>
