<?xml version="1.0" encoding="UTF-8" standalone="no"?>
<!-- Created with Inkscape (http://www.inkscape.org/) -->

<svg
   xmlns:dc="http://purl.org/dc/elements/1.1/"
   xmlns:cc="http://creativecommons.org/ns#"
   xmlns:rdf="http://www.w3.org/1999/02/22-rdf-syntax-ns#"
   xmlns:svg="http://www.w3.org/2000/svg"
   xmlns="http://www.w3.org/2000/svg"
   xmlns:sodipodi="http://sodipodi.sourceforge.net/DTD/sodipodi-0.dtd"
   xmlns:inkscape="http://www.inkscape.org/namespaces/inkscape"
   width="850.35999"
   height="180.09"
   id="svg2"
   version="1.1"
   inkscape:version="0.48.2 r9819"
   sodipodi:docname="time_disper.svg">
  <sodipodi:namedview
     id="base"
     pagecolor="#ffffff"
     bordercolor="#666666"
     borderopacity="1.0"
     inkscape:pageopacity="0.0"
     inkscape:pageshadow="2"
     inkscape:zoom="0.98994949"
     inkscape:cx="499.91587"
     inkscape:cy="47.482156"
     inkscape:document-units="px"
     inkscape:current-layer="svg2"
     showgrid="true"
     inkscape:window-width="1280"
     inkscape:window-height="949"
     inkscape:window-x="0"
     inkscape:window-y="24"
     inkscape:window-maximized="1">
    <inkscape:grid
       snapvisiblegridlinesonly="true"
       enabled="true"
       visible="true"
       empspacing="5"
       type="xygrid"
       id="grid2985" />
  </sodipodi:namedview>
  <defs
     id="defs4">
    <marker
       inkscape:stockid="Arrow1Lend"
       orient="auto"
       refY="0"
       refX="0"
       id="Arrow1Lend"
       style="overflow:visible">
      <path
         id="path4132"
         d="M 0,0 5,-5 -12.5,0 5,5 0,0 z"
         style="fill-rule:evenodd;stroke:#000000;stroke-width:1pt;marker-start:none"
         transform="matrix(-0.8,0,0,-0.8,-10,0)"
         inkscape:connector-curvature="0" />
    </marker>
    <marker
       inkscape:stockid="Arrow1Lstart"
       orient="auto"
       refY="0"
       refX="0"
       id="Arrow1Lstart"
       style="overflow:visible">
      <path
         id="path4129"
         d="M 0,0 5,-5 -12.5,0 5,5 0,0 z"
         style="fill-rule:evenodd;stroke:#000000;stroke-width:1pt;marker-start:none"
         transform="matrix(0.8,0,0,0.8,10,0)"
         inkscape:connector-curvature="0" />
    </marker>
    <marker
       inkscape:stockid="Arrow1Lstart"
       orient="auto"
       refY="0"
       refX="0"
       id="Arrow1Lstart-1"
       style="overflow:visible">
      <path
         inkscape:connector-curvature="0"
         id="path4129-8"
         d="M 0,0 5,-5 -12.5,0 5,5 0,0 z"
         style="fill-rule:evenodd;stroke:#000000;stroke-width:1pt;marker-start:none"
         transform="matrix(0.8,0,0,0.8,10,0)" />
    </marker>
    <marker
       inkscape:stockid="Arrow1Lend"
       orient="auto"
       refY="0"
       refX="0"
       id="Arrow1Lend-2"
       style="overflow:visible">
      <path
         inkscape:connector-curvature="0"
         id="path4132-6"
         d="M 0,0 5,-5 -12.5,0 5,5 0,0 z"
         style="fill-rule:evenodd;stroke:#000000;stroke-width:1pt;marker-start:none"
         transform="matrix(-0.8,0,0,-0.8,-10,0)" />
    </marker>
  </defs>
  <metadata
     id="metadata7">
    <rdf:RDF>
      <cc:Work
         rdf:about="">
        <dc:format>image/svg+xml</dc:format>
        <dc:type
           rdf:resource="http://purl.org/dc/dcmitype/StillImage" />
        <dc:title />
      </cc:Work>
    </rdf:RDF>
  </metadata>
  <g
     transform="translate(0,-872.27218)"
     inkscape:label="Camada 1"
     inkscape:groupmode="layer"
     id="layer1" />
  <path
     style="fill:none;stroke:#000000;stroke-width:1.47097623;stroke-linecap:butt;stroke-linejoin:miter;stroke-miterlimit:4;stroke-opacity:1;stroke-dasharray:none;marker-start:url(#Arrow1Lstart);marker-end:url(#Arrow1Lend)"
     d="m 505.64812,22.236159 0,130.909081 290.54544,0"
     id="path4122"
     inkscape:connector-curvature="0" />
  <g
     id="g4850"
     transform="translate(-4.351889,-166.94475)">
    <rect
       y="203.72636"
       x="550"
       height="116.36364"
       width="50"
       id="rect5302"
       style="opacity:0.36679538;fill:#ffffff;fill-opacity:1;fill-rule:nonzero;stroke:#000000;stroke-width:1.66450071;stroke-opacity:1" />
    <text
       transform="matrix(0,-0.66093225,1.5130144,0,0,0)"
       sodipodi:linespacing="100%"
       id="text5304"
       y="376.73138"
       x="-393.5199"
       style="font-size:13.14015484px;font-style:normal;font-variant:normal;font-weight:normal;font-stretch:normal;text-align:center;line-height:100%;letter-spacing:0px;word-spacing:0px;text-anchor:middle;fill:#000000;fill-opacity:1;stroke:none;font-family:LMMathSymbols10;-inkscape-font-specification:LMMathSymbols10"
       xml:space="preserve"><tspan
         style="font-size:13.14015484px;font-style:oblique;font-weight:bold;text-align:center;line-height:100%;text-anchor:middle;font-family:LMMathSymbols10;-inkscape-font-specification:LMMathSymbols10"
         y="376.73138"
         x="-393.5199"
         id="tspan5306"
         sodipodi:role="line">Sinal de Banda Estreita</tspan><tspan
         id="tspan5316"
         style="font-size:13.14015484px;font-style:oblique;font-weight:bold;text-align:center;line-height:100%;text-anchor:middle;font-family:LMMathSymbols10;-inkscape-font-specification:LMMathSymbols10"
         y="394.20749"
         x="-393.5199"
         sodipodi:role="line">Canal Plano</tspan></text>
  </g>
  <g
     id="g4856"
     transform="translate(27.566455,-139.39288)">
    <rect
       y="232.53812"
       x="588.08167"
       height="59.054955"
       width="163.9209"
       id="rect5318"
       style="opacity:0.36679538;fill:#ffffff;fill-opacity:1;fill-rule:nonzero;stroke:#000000;stroke-width:1.28534496;stroke-miterlimit:4;stroke-opacity:1;stroke-dasharray:none" />
    <text
       transform="scale(0.68426712,1.4614176)"
       sodipodi:linespacing="125%"
       id="text5320"
       y="171.12836"
       x="979.14978"
       style="font-size:13.399086px;font-style:normal;font-variant:normal;font-weight:normal;font-stretch:normal;line-height:125%;letter-spacing:0px;word-spacing:0px;fill:#000000;fill-opacity:1;stroke:none;font-family:LMMathSymbols10;-inkscape-font-specification:LMMathSymbols10"
       xml:space="preserve"><tspan
         style="font-style:oblique;font-weight:bold;text-align:center;text-anchor:middle;font-family:LMMathSymbols10;-inkscape-font-specification:LMMathSymbols10"
         y="171.12836"
         x="979.14978"
         id="tspan5322"
         sodipodi:role="line">Sinal de Banda Larga</tspan><tspan
         style="font-style:oblique;font-weight:bold;text-align:center;text-anchor:middle;font-family:LMMathSymbols10;-inkscape-font-specification:LMMathSymbols10"
         id="tspan5324"
         y="193.40396"
         x="979.14978"
         sodipodi:role="line">Canal Seletivo em Frequencia</tspan></text>
  </g>
  <text
     xml:space="preserve"
     style="font-size:24px;font-style:normal;font-variant:normal;font-weight:normal;font-stretch:normal;line-height:125%;letter-spacing:0px;word-spacing:0px;fill:#000000;fill-opacity:1;stroke:none;font-family:Agency FB;-inkscape-font-specification:Agency FB"
     x="796.65503"
     y="171.80669"
     id="text5326"
     sodipodi:linespacing="125%"><tspan
       sodipodi:role="line"
       id="tspan5328"
       x="796.65503"
       y="171.80669"
       style="font-size:18px;font-style:oblique;font-weight:bold;font-family:LMMathSymbols10;-inkscape-font-specification:LMMathSymbols10">f</tspan></text>
  <text
     xml:space="preserve"
     style="font-size:18px;font-style:normal;font-variant:normal;font-weight:normal;font-stretch:normal;line-height:125%;letter-spacing:0px;word-spacing:0px;fill:#000000;fill-opacity:1;stroke:none;font-family:LMMathSymbols10;-inkscape-font-specification:LMMathSymbols10"
     x="451.65979"
     y="35.45649"
     id="text5330"
     sodipodi:linespacing="125%"><tspan
       sodipodi:role="line"
       id="tspan5332"
       x="451.65979"
       y="35.45649"
       style="font-size:18px;font-style:oblique;font-weight:bold;font-family:LMMathSymbols10;-inkscape-font-specification:LMMathSymbols10">H(f)</tspan></text>
  <g
     id="g5401"
     transform="translate(-92.52595,-314.00449)">
    <g
       id="g5412"
       transform="translate(0.48443,-19.999998)">
      <path
         style="fill:none;stroke:#000000;stroke-width:1;stroke-linecap:butt;stroke-linejoin:miter;stroke-miterlimit:4;stroke-opacity:1;stroke-dasharray:none"
         d="m 527.47404,397.42781 10.48443,25 -10.48443,25"
         id="path5338"
         inkscape:connector-curvature="0" />
      <path
         style="fill:none;stroke:#000000;stroke-width:1;stroke-linecap:butt;stroke-linejoin:miter;stroke-miterlimit:4;stroke-opacity:1;stroke-dasharray:none"
         d="m 527.47404,397.42781 0,16.66667"
         id="path5340"
         inkscape:connector-curvature="0" />
      <path
         style="fill:none;stroke:#000000;stroke-width:1;stroke-linecap:butt;stroke-linejoin:miter;stroke-miterlimit:4;stroke-opacity:1;stroke-dasharray:none"
         d="m 527.47404,447.42781 0,-16.66666 -13.97923,0"
         id="path5342"
         inkscape:connector-curvature="0" />
      <path
         style="fill:none;stroke:#000000;stroke-width:1;stroke-linecap:butt;stroke-linejoin:miter;stroke-miterlimit:4;stroke-opacity:1;stroke-dasharray:none"
         d="m 527.47404,414.09448 -27.95847,0"
         id="path5344"
         inkscape:connector-curvature="0" />
      <path
         style="fill:none;stroke:#000000;stroke-width:1;stroke-linecap:butt;stroke-linejoin:miter;stroke-miterlimit:4;stroke-opacity:1;stroke-dasharray:none"
         d="m 478.54671,397.42781 -10.48443,25 10.48443,25"
         id="path5338-3"
         inkscape:connector-curvature="0" />
      <path
         style="fill:none;stroke:#000000;stroke-width:1;stroke-linecap:butt;stroke-linejoin:miter;stroke-miterlimit:4;stroke-opacity:1;stroke-dasharray:none"
         d="m 510,414.09448 -27.95848,0"
         id="path5344-5"
         inkscape:connector-curvature="0" />
      <path
         style="fill:none;stroke:#000000;stroke-width:1;stroke-linecap:butt;stroke-linejoin:miter;stroke-miterlimit:4;stroke-opacity:1;stroke-dasharray:none"
         d="m 513.49481,430.76115 -31.45329,0"
         id="path5395"
         inkscape:connector-curvature="0" />
      <path
         style="fill:none;stroke:#000000;stroke-width:1;stroke-linecap:butt;stroke-linejoin:miter;stroke-miterlimit:4;stroke-opacity:1;stroke-dasharray:none"
         d="m 482.04152,414.09448 -3.49481,0 0,-16.66667"
         id="path5397"
         inkscape:connector-curvature="0" />
      <path
         style="fill:none;stroke:#000000;stroke-width:1;stroke-linecap:butt;stroke-linejoin:miter;stroke-miterlimit:4;stroke-opacity:1;stroke-dasharray:none"
         d="m 482.04152,430.76115 -3.49481,0 0,16.66666"
         id="path5399"
         inkscape:connector-curvature="0" />
    </g>
  </g>
  <path
     style="fill:none;stroke:#000000;stroke-width:1.47097623;stroke-linecap:butt;stroke-linejoin:miter;stroke-miterlimit:4;stroke-opacity:1;stroke-dasharray:none;marker-start:url(#Arrow1Lstart);marker-end:url(#Arrow1Lend)"
     d="m 55.46618,21.492167 0,130.909073 290.54546,0"
     id="path4122-6"
     inkscape:connector-curvature="0" />
  <text
     xml:space="preserve"
     style="font-size:18px;font-style:normal;font-variant:normal;font-weight:normal;font-stretch:normal;line-height:125%;letter-spacing:0px;word-spacing:0px;fill:#000000;fill-opacity:1;stroke:none;font-family:LMMathSymbols10;-inkscape-font-specification:LMMathSymbols10"
     x="350.17419"
     y="167.74129"
     id="text5453"
     sodipodi:linespacing="125%"><tspan
       sodipodi:role="line"
       id="tspan5455"
       x="350.17419"
       y="167.74129"
       style="font-size:18px;font-style:oblique;font-weight:bold;font-family:LMMathSymbols10;-inkscape-font-specification:LMMathSymbols10">t</tspan></text>
  <text
     xml:space="preserve"
     style="font-size:18px;font-style:normal;font-variant:normal;font-weight:normal;font-stretch:normal;line-height:125%;letter-spacing:0px;word-spacing:0px;fill:#000000;fill-opacity:1;stroke:none;font-family:LMMathSymbols10;-inkscape-font-specification:LMMathSymbols10"
     x="16.011642"
     y="32.401253"
     id="text5457"
     sodipodi:linespacing="125%"><tspan
       sodipodi:role="line"
       id="tspan5459"
       x="16.011642"
       y="32.401253"
       style="font-size:18px;font-style:oblique;font-weight:bold;font-family:LMMathSymbols10;-inkscape-font-specification:LMMathSymbols10">h(t)</tspan></text>
  <path
     style="fill:none;stroke:#000000;stroke-width:2;stroke-linecap:butt;stroke-linejoin:miter;stroke-miterlimit:4;stroke-opacity:1;stroke-dasharray:none"
     d="m 86.01164,152.40124 0,-79.999986"
     id="path5461"
     inkscape:connector-curvature="0" />
  <path
     style="fill:none;stroke:#000000;stroke-width:2;stroke-linecap:butt;stroke-linejoin:miter;stroke-miterlimit:4;stroke-opacity:1;stroke-dasharray:none"
     d="m 146.01164,92.401264 0,59.999976"
     id="path5463"
     inkscape:connector-curvature="0" />
  <path
     style="fill:none;stroke:#000000;stroke-width:2;stroke-linecap:butt;stroke-linejoin:miter;stroke-miterlimit:4;stroke-opacity:1;stroke-dasharray:none"
     d="m 236.01164,122.40125 0,29.99999"
     id="path5465"
     inkscape:connector-curvature="0" />
  <text
     xml:space="preserve"
     style="font-size:18px;font-style:normal;font-variant:normal;font-weight:normal;font-stretch:normal;line-height:125%;letter-spacing:0px;word-spacing:0px;fill:#000000;fill-opacity:1;stroke:none;font-family:LMMathSymbols10;-inkscape-font-specification:LMMathSymbols10"
     x="56.011642"
     y="172.40125"
     id="text5625"
     sodipodi:linespacing="125%"><tspan
       sodipodi:role="line"
       id="tspan5627"
       x="56.011642"
       y="172.40125"
       style="font-size:18px;font-style:oblique;font-weight:bold;font-family:LMMathSymbols10;-inkscape-font-specification:LMMathSymbols10">Espalhamento de Atraso</tspan></text>
  <path
     id="path4781"
     title="sin(x)"
     d="m 506.96304,78.558826 c 2.12551,-2.553524 4.25102,-5.106986 6.37653,-7.62748 2.12551,-2.52049 4.25102,-5.007754 6.37656,-7.429931 2.12551,-2.422176 4.25102,-4.778824 6.37653,-7.039953 2.12551,-2.261129 4.25102,-4.426121 6.37653,-6.467642 2.12551,-2.041521 4.25102,-3.958786 6.37656,-5.727825 2.12551,-1.769036 4.25102,-3.38892 6.37653,-4.839657 2.12551,-1.450737 4.25102,-2.731284 6.37653,-3.826145 2.12551,-1.094865 4.25105,-2.002909 6.37656,-2.713543 2.12551,-0.710632 4.25102,-1.222658 6.37653,-1.530654 2.12551,-0.307999 4.25102,-0.410743 6.37653,-0.308128 2.12554,0.102629 4.25105,0.411814 6.37656,0.922381 2.12551,0.51057 4.25102,1.223703 6.37653,2.129002 2.12551,0.9053 4.25102,2.003899 6.37653,3.280484 2.12554,1.276583 4.25105,2.732191 6.37656,4.346996 2.12551,1.614806 4.25102,3.389725 6.37653,5.300931 2.12551,1.911204 4.25102,3.959466 6.37655,6.11757 2.12552,2.158104 4.25103,4.42666 6.37654,6.775771 2.12551,2.349109 4.25102,4.779203 6.37653,7.258478 2.12551,2.479277 4.25104,5.007969 6.37655,7.5532 2.12551,2.545228 4.25103,5.107032 6.37654,7.652292 2.12551,2.545262 4.25102,5.073825 6.37653,7.5532 2.12551,2.479373 4.25104,4.909207 6.37655,7.258477 2.12551,2.349273 4.25102,4.61745 6.37654,6.77577 2.12551,2.15833 4.25102,4.2061 6.37653,6.11758 2.12553,1.91147 4.25104,3.6858 6.37655,5.30093 2.12551,1.61512 4.25102,3.07005 6.37653,4.347 2.12552,1.27694 4.25103,2.37479 6.37656,3.28048 2.12551,0.90568 4.25102,1.61803 6.37653,2.129 2.12551,0.51097 4.25102,0.81935 6.37653,0.92238 2.12551,0.10302 4.25103,-5.4e-4 6.37656,-0.30813 2.12551,-0.30759 4.25102,-0.82041 6.37653,-1.53065 2.12551,-0.71024 4.25102,-1.61905 6.37653,-2.71354 2.12551,-1.09449 4.25105,-2.37575 6.37656,-3.82615 2.12551,-1.4504 4.25102,-3.07092 6.37653,-4.83966 2.12551,-1.76874 4.25102,-3.68655 6.37653,-5.72782 2.12554,-2.04127 4.25105,-4.20671 6.37656,-6.46765 2.12551,-2.260939 4.25102,-4.617906 6.37653,-7.039951 2.12551,-2.422048 4.25102,-4.909508 6.37653,-7.429933 2.12554,-2.520425 4.25105,-5.073954 6.37656,-7.62748"
     style="fill:none;stroke:#000000;stroke-width:2.41972113;stroke-miterlimit:4;stroke-opacity:1;stroke-dasharray:none"
     inkscape:connector-curvature="0" />
</svg>
