<?xml version="1.0" encoding="UTF-8" standalone="no"?>
<!-- Created with Inkscape (http://www.inkscape.org/) -->

<svg
   xmlns:dc="http://purl.org/dc/elements/1.1/"
   xmlns:cc="http://creativecommons.org/ns#"
   xmlns:rdf="http://www.w3.org/1999/02/22-rdf-syntax-ns#"
   xmlns:svg="http://www.w3.org/2000/svg"
   xmlns="http://www.w3.org/2000/svg"
   xmlns:xlink="http://www.w3.org/1999/xlink"
   xmlns:sodipodi="http://sodipodi.sourceforge.net/DTD/sodipodi-0.dtd"
   xmlns:inkscape="http://www.inkscape.org/namespaces/inkscape"
   width="450.35999"
   height="250.09"
   id="svg3081"
   version="1.1"
   inkscape:version="0.48.2 r9819"
   sodipodi:docname="cap_max_pr.svg">
  <sodipodi:namedview
     id="base"
     pagecolor="#ffffff"
     bordercolor="#666666"
     borderopacity="1.0"
     inkscape:pageopacity="0.0"
     inkscape:pageshadow="2"
     inkscape:zoom="2.8"
     inkscape:cx="183.27291"
     inkscape:cy="86.605625"
     inkscape:document-units="px"
     inkscape:current-layer="layer1"
     showgrid="true"
     inkscape:window-width="1920"
     inkscape:window-height="1025"
     inkscape:window-x="-3"
     inkscape:window-y="-3"
     inkscape:window-maximized="1"
     inkscape:snap-global="false">
    <inkscape:grid
       snapvisiblegridlinesonly="true"
       enabled="true"
       visible="true"
       empspacing="5"
       id="grid4241"
       type="xygrid" />
  </sodipodi:namedview>
  <defs
     id="defs3083">
    <path
       id="path4347-4-6"
       inkscape:connector-curvature="0"
       d="M 80.000005,830.96855 395,990.96855"
       style="fill:none;stroke:#000000;stroke-width:0.93541431px;stroke-linecap:butt;stroke-linejoin:miter;stroke-opacity:1" />
    <path
       id="path4347-4-6-0"
       inkscape:connector-curvature="0"
       d="M 80.000005,830.96855 395,990.96855"
       style="fill:none;stroke:#000000;stroke-width:0.93541431px;stroke-linecap:butt;stroke-linejoin:miter;stroke-opacity:1" />
    <linearGradient
       inkscape:collect="always"
       xlink:href="#linearGradient6208"
       id="linearGradient10002"
       gradientUnits="userSpaceOnUse"
       gradientTransform="translate(5136,-24)"
       x1="-1198.8699"
       y1="-1938.3995"
       x2="-2161.4014"
       y2="-1611.1102" />
    <linearGradient
       id="linearGradient6208">
      <stop
         style="stop-color:#e9e9e9;stop-opacity:1;"
         offset="0"
         id="stop6210" />
      <stop
         id="stop6216"
         offset="0.046875"
         style="stop-color:#bbbbbb;stop-opacity:1;" />
      <stop
         style="stop-color:#aea6a6;stop-opacity:1;"
         offset="0.75"
         id="stop6218" />
      <stop
         id="stop6220"
         offset="0.875"
         style="stop-color:#d6d2d2;stop-opacity:1;" />
      <stop
         style="stop-color:#a6a2a2;stop-opacity:1;"
         offset="0.90537763"
         id="stop6222" />
      <stop
         id="stop6224"
         offset="0.9497757"
         style="stop-color:#fff7f7;stop-opacity:1;" />
      <stop
         style="stop-color:#978b8b;stop-opacity:1;"
         offset="0.98760986"
         id="stop6226" />
      <stop
         style="stop-color:#d6d2d2;stop-opacity:1;"
         offset="1"
         id="stop6212" />
    </linearGradient>
    <linearGradient
       inkscape:collect="always"
       xlink:href="#linearGradient6208"
       id="linearGradient10004"
       gradientUnits="userSpaceOnUse"
       gradientTransform="translate(5136,-24)"
       x1="-1617.4335"
       y1="-1232.4856"
       x2="-2389.3174"
       y2="-2441.1802" />
    <linearGradient
       id="linearGradient3608">
      <stop
         style="stop-color:#e9e9e9;stop-opacity:1;"
         offset="0"
         id="stop3610" />
      <stop
         id="stop3612"
         offset="0.046875"
         style="stop-color:#bbbbbb;stop-opacity:1;" />
      <stop
         style="stop-color:#aea6a6;stop-opacity:1;"
         offset="0.75"
         id="stop3614" />
      <stop
         id="stop3616"
         offset="0.875"
         style="stop-color:#d6d2d2;stop-opacity:1;" />
      <stop
         style="stop-color:#a6a2a2;stop-opacity:1;"
         offset="0.90537763"
         id="stop3618" />
      <stop
         id="stop3620"
         offset="0.9497757"
         style="stop-color:#fff7f7;stop-opacity:1;" />
      <stop
         style="stop-color:#978b8b;stop-opacity:1;"
         offset="0.98760986"
         id="stop3622" />
      <stop
         style="stop-color:#d6d2d2;stop-opacity:1;"
         offset="1"
         id="stop3624" />
    </linearGradient>
    <linearGradient
       inkscape:collect="always"
       xlink:href="#linearGradient6198"
       id="linearGradient10006"
       gradientUnits="userSpaceOnUse"
       gradientTransform="translate(5136,-24)"
       x1="-1763.0724"
       y1="-1563.9766"
       x2="-1274.5155"
       y2="-1217.7599" />
    <linearGradient
       id="linearGradient6198">
      <stop
         style="stop-color:#555555;stop-opacity:1;"
         offset="0"
         id="stop6200" />
      <stop
         id="stop6206"
         offset="0.5"
         style="stop-color:#8e8e8e;stop-opacity:0.58039218;" />
      <stop
         style="stop-color:#555555;stop-opacity:0.32352942;"
         offset="1"
         id="stop6202" />
    </linearGradient>
    <filter
       color-interpolation-filters="sRGB"
       inkscape:collect="always"
       id="filter16069">
      <feGaussianBlur
         inkscape:collect="always"
         stdDeviation="4.0640846"
         id="feGaussianBlur16071" />
    </filter>
    <linearGradient
       inkscape:collect="always"
       xlink:href="#linearGradient9141"
       id="linearGradient10008"
       gradientUnits="userSpaceOnUse"
       gradientTransform="translate(5136,-24)"
       x1="-1736.6543"
       y1="-599.43921"
       x2="-1185.111"
       y2="-738.03217" />
    <linearGradient
       inkscape:collect="always"
       id="linearGradient9141">
      <stop
         style="stop-color:#000000;stop-opacity:1;"
         offset="0"
         id="stop9143" />
      <stop
         style="stop-color:#000000;stop-opacity:0;"
         offset="1"
         id="stop9145" />
    </linearGradient>
    <linearGradient
       y2="-738.03217"
       x2="-1185.111"
       y1="-599.43921"
       x1="-1736.6543"
       gradientTransform="translate(5136,-24)"
       gradientUnits="userSpaceOnUse"
       id="linearGradient3654"
       xlink:href="#linearGradient9141"
       inkscape:collect="always" />
  </defs>
  <metadata
     id="metadata3086">
    <rdf:RDF>
      <cc:Work
         rdf:about="">
        <dc:format>image/svg+xml</dc:format>
        <dc:type
           rdf:resource="http://purl.org/dc/dcmitype/StillImage" />
        <dc:title />
      </cc:Work>
    </rdf:RDF>
  </metadata>
  <g
     transform="translate(0,-802.27217)"
     id="layer1"
     inkscape:groupmode="layer"
     inkscape:label="Camada 1">
    <g
       id="g2987"
       transform="matrix(0.87778508,0,0,0.6174617,-525.67171,677.56659)">
      <polygon
         id="polygon2989"
         points="640.833,486.4 690,459.85 739.167,486.4 690,510 "
         style="fill:#ffffff" />
      <path
         id="path2991"
         d="M 685.083,286.783 690,288.75"
         style="fill:none;stroke:#000000;stroke-width:2"
         inkscape:connector-curvature="0" />
      <path
         id="path2993"
         d="M 680.167,307.433 690,312.35"
         style="fill:none;stroke:#000000;stroke-width:2"
         inkscape:connector-curvature="0" />
      <path
         id="path2995"
         d="M 675.25,330.05 690,338.9"
         style="fill:none;stroke:#000000;stroke-width:2"
         inkscape:connector-curvature="0" />
      <path
         id="path2997"
         d="M 670.333,352.667 690,362.5"
         style="fill:none;stroke:#000000;stroke-width:2"
         inkscape:connector-curvature="0" />
      <path
         id="path2999"
         d="M 665.417,374.3 690,386.1"
         style="fill:none;stroke:#000000;stroke-width:2"
         inkscape:connector-curvature="0" />
      <path
         id="path3001"
         d="M 660.5,396.917 690,412.65"
         style="fill:none;stroke:#000000;stroke-width:2"
         inkscape:connector-curvature="0" />
      <path
         id="path3003"
         d="M 655.583,419.533 690,436.25"
         style="fill:none;stroke:#000000;stroke-width:2"
         inkscape:connector-curvature="0" />
      <path
         id="path3005"
         d="M 650.667,441.167 690,459.85"
         style="fill:none;stroke:#000000;stroke-width:2"
         inkscape:connector-curvature="0" />
      <path
         id="path3007"
         d="M 645.75,462.8 690,486.4"
         style="fill:none;stroke:#000000;stroke-width:2"
         inkscape:connector-curvature="0" />
      <path
         id="path3009"
         d="M 694.917,286.783 690,288.75"
         style="fill:none;stroke:#000000;stroke-width:2"
         inkscape:connector-curvature="0" />
      <path
         id="path3011"
         d="M 699.833,307.433 690,312.35"
         style="fill:none;stroke:#000000;stroke-width:2"
         inkscape:connector-curvature="0" />
      <path
         id="path3013"
         d="M 704.75,331.033 690,338.9"
         style="fill:none;stroke:#000000;stroke-width:2"
         inkscape:connector-curvature="0" />
      <path
         id="path3015"
         d="M 708.683,352.667 690,362.5"
         style="fill:none;stroke:#000000;stroke-width:2"
         inkscape:connector-curvature="0" />
      <path
         id="path3017"
         d="M 714.583,374.3 690,386.1"
         style="fill:none;stroke:#000000;stroke-width:2"
         inkscape:connector-curvature="0" />
      <path
         id="path3019"
         d="M 720.483,396.917 690,412.65"
         style="fill:none;stroke:#000000;stroke-width:2"
         inkscape:connector-curvature="0" />
      <path
         id="path3021"
         d="M 724.417,419.533 690,436.25"
         style="fill:none;stroke:#000000;stroke-width:2"
         inkscape:connector-curvature="0" />
      <path
         id="path3023"
         d="M 729.333,441.167 690,459.85"
         style="fill:none;stroke:#000000;stroke-width:2"
         inkscape:connector-curvature="0" />
      <path
         id="path3025"
         d="M 734.25,462.8 690,486.4"
         style="fill:none;stroke:#000000;stroke-width:2"
         inkscape:connector-curvature="0" />
      <path
         id="path3027"
         d="M 690,265.15 684.1,238.6 690,251.875 677.708,215"
         style="fill:none;stroke:#000000;stroke-width:2"
         inkscape:connector-curvature="0" />
      <polygon
         id="polygon3029"
         points="690,265.15 739.167,486.4 690,510 640.833,486.4 "
         style="fill:none;stroke:#000000;stroke-width:4" />
      <path
         id="path3031"
         d="M 640.833,486.4 690,459.85 739.167,486.4"
         style="fill:none;stroke:#000000;stroke-width:4"
         inkscape:connector-curvature="0" />
      <path
         id="path3033"
         d="M 690,265.15 690,510"
         style="fill:none;stroke:#000000;stroke-width:4"
         inkscape:connector-curvature="0" />
      <text
         id="text3035"
         y="531.83301"
         x="690"
         style="font-size:12.79979992px;font-style:normal;font-weight:normal;text-anchor:middle;fill:#000000;font-family:sanserif">
        <tspan
           id="tspan3037"
           y="531.83301"
           x="690" />
      </text>
    </g>
    <path
       inkscape:connector-curvature="0"
       id="path4349-1"
       d="m 102.85487,912.53846 292.1474,133.43234"
       style="fill:none;stroke:#000000;stroke-width:0.82265997px;stroke-linecap:butt;stroke-linejoin:miter;stroke-opacity:1" />
    <text
       sodipodi:linespacing="75.999999%"
       id="text4369"
       y="882.36218"
       x="150"
       style="font-size:22px;font-style:italic;font-variant:normal;font-weight:bold;font-stretch:normal;line-height:75.99999905%;letter-spacing:0px;word-spacing:0px;fill:#000000;fill-opacity:1;stroke:none;font-family:LMMathSymbols10;-inkscape-font-specification:LMMathSymbols10 Bold Italic"
       xml:space="preserve"><tspan
         style="line-height:75.99999905%"
         y="882.36218"
         x="150"
         id="tspan4371"
         sodipodi:role="line">.</tspan><tspan
         style="line-height:75.99999905%"
         id="tspan4373"
         y="899.08215"
         x="150"
         sodipodi:role="line">.</tspan><tspan
         style="line-height:75.99999905%"
         id="tspan4375"
         y="915.80219"
         x="150"
         sodipodi:role="line">.</tspan></text>
    <text
       transform="translate(122.07618,27.548958)"
       sodipodi:linespacing="125%"
       id="text4377"
       style="font-size:18.05181885px;font-style:italic;font-variant:normal;font-weight:bold;font-stretch:normal;line-height:125%;letter-spacing:0px;word-spacing:0px;fill:#000000;fill-opacity:1;stroke:none;font-family:LMMathSymbols10;-inkscape-font-specification:LMMathSymbols10 Bold Italic"
       xml:space="preserve"><textPath
         id="textPath4449"
         xlink:href="#path4347-4"><tspan
   id="tspan4379"
   style="letter-spacing:0px;word-spacing:1.68210125px">N  subportadoras</tspan></textPath></text>
    <path
       id="path4347-4"
       inkscape:connector-curvature="0"
       d="M 80.353757,833.10802 395.00339,990.97194"
       style="fill:none;stroke:#000000;stroke-width:0.92863238px;stroke-linecap:butt;stroke-linejoin:miter;stroke-opacity:1" />
    <text
       sodipodi:linespacing="75.999999%"
       id="text4369-1"
       y="967.36218"
       x="320"
       style="font-size:22px;font-style:italic;font-variant:normal;font-weight:bold;font-stretch:normal;line-height:75.99999905%;letter-spacing:0px;word-spacing:0px;fill:#000000;fill-opacity:1;stroke:none;font-family:LMMathSymbols10;-inkscape-font-specification:LMMathSymbols10 Bold Italic"
       xml:space="preserve"><tspan
         style="line-height:75.99999905%"
         y="967.36218"
         x="320"
         id="tspan4371-1"
         sodipodi:role="line">.</tspan><tspan
         style="line-height:75.99999905%"
         id="tspan4373-6"
         y="984.08215"
         x="320"
         sodipodi:role="line">.</tspan><tspan
         style="line-height:75.99999905%"
         id="tspan4375-5"
         y="1000.8022"
         x="320"
         sodipodi:role="line">.</tspan></text>
    <g
       transform="matrix(1.7515275,0,0,1.7515275,109.83814,801.51244)"
       id="equation_00"
       style="fill:#000000">
      <defs
         id="defs3432">
        <path
           inkscape:connector-curvature="0"
           d="m 2.345,-4.452 c 0,-0.189 -0.014,-0.196 -0.21,-0.196 C 1.687,-4.207 1.05,-4.2 0.763,-4.2 v 0.252 c 0.168,0 0.63,0 1.015,-0.196 v 3.57 c 0,0.231 0,0.322 -0.7,0.322 H 0.812 V 0 c 0.126,-0.007 0.987,-0.028 1.246,-0.028 0.217,0 1.099,0.021 1.253,0.028 V -0.252 H 3.045 c -0.7,0 -0.7,-0.091 -0.7,-0.322 v -3.878 z"
           id="equation_00_00" />
        <path
           inkscape:connector-curvature="0"
           d="m 2.87,-6.83 c 0,-0.01 0,-0.11 -0.13,-0.11 -0.23,0 -0.96,0.08 -1.22,0.1 -0.08,0.01 -0.19,0.02 -0.19,0.2 0,0.12 0.09,0.12 0.24,0.12 0.48,0 0.5,0.07 0.5,0.17 l -0.03,0.2 -1.45,5.76 c -0.04,0.14 -0.04,0.16 -0.04,0.22 0,0.23 0.2,0.28 0.29,0.28 0.16,0 0.32,-0.12 0.37,-0.26 L 1.4,-0.91 1.62,-1.81 C 1.68,-2.03 1.74,-2.25 1.79,-2.48 1.81,-2.54 1.89,-2.87 1.9,-2.93 1.93,-3.02 2.24,-3.58 2.58,-3.85 2.8,-4.01 3.11,-4.2 3.54,-4.2 c 0.43,0 0.54,0.34 0.54,0.7 0,0.54 -0.38,1.63 -0.62,2.24 -0.08,0.23 -0.13,0.35 -0.13,0.55 0,0.47 0.35,0.82 0.82,0.82 0.94,0 1.31,-1.46 1.31,-1.54 0,-0.1 -0.09,-0.1 -0.12,-0.1 -0.1,0 -0.1,0.03 -0.15,0.18 -0.15,0.53 -0.47,1.24 -1.02,1.24 -0.17,0 -0.24,-0.1 -0.24,-0.33 0,-0.25 0.09,-0.49 0.18,-0.71 0.16,-0.43 0.61,-1.62 0.61,-2.2 0,-0.65 -0.4,-1.07 -1.15,-1.07 -0.63,0 -1.11,0.31 -1.48,0.77 l 0.78,-3.18 z"
           id="equation_00_01" />
      </defs>
      <g
         id="equation_00_g">
        <use
           height="250.09"
           width="450.35999"
           x="77"
           xlink:href="#equation_00_01"
           y="63"
           id="use3437" />
        <use
           height="250.09"
           width="450.35999"
           x="82.761597"
           xlink:href="#equation_00_00"
           y="64.5"
           id="use3439" />
      </g>
    </g>
    <g
       transform="matrix(1.7191257,0,0,1.7191257,114.50544,867.91746)"
       style="fill:#000000"
       id="equation_01">
      <defs
         id="defs3561">
        <path
           inkscape:connector-curvature="0"
           id="equation_01_00"
           d="m 5.838,-4.018 c 0.07,-0.266 0.182,-0.497 0.742,-0.511 0.035,0 0.14,-0.007 0.14,-0.154 0,-0.042 -0.035,-0.098 -0.105,-0.098 -0.231,0 -0.49,0.028 -0.728,0.028 -0.168,0 -0.574,-0.028 -0.742,-0.028 -0.035,0 -0.14,0 -0.14,0.154 0,0.091 0.091,0.098 0.154,0.098 0.329,0.007 0.448,0.112 0.448,0.287 0,0.056 -0.007,0.091 -0.028,0.168 L 4.816,-1.022 3.038,-4.662 C 2.982,-4.781 2.968,-4.781 2.8,-4.781 H 1.841 c -0.133,0 -0.224,0 -0.224,0.154 0,0.098 0.084,0.098 0.231,0.098 0.147,0 0.301,0.007 0.448,0.035 l -0.938,3.745 c -0.063,0.266 -0.182,0.476 -0.728,0.497 -0.049,0 -0.147,0.007 -0.147,0.147 C 0.483,-0.028 0.539,0 0.588,0 0.819,0 1.078,-0.028 1.316,-0.028 1.484,-0.028 1.89,0 2.058,0 c 0.07,0 0.14,-0.035 0.14,-0.147 0,-0.098 -0.084,-0.105 -0.161,-0.105 -0.441,-0.014 -0.441,-0.196 -0.441,-0.294 0,-0.028 0,-0.063 0.028,-0.175 L 2.52,-4.305 4.564,-0.119 C 4.62,-0.007 4.648,0 4.718,0 4.83,0 4.83,-0.021 4.865,-0.147 l 0.973,-3.871 z" />
        <path
           inkscape:connector-curvature="0"
           id="equation_01_01"
           d="m 2.87,-6.83 c 0,-0.01 0,-0.11 -0.13,-0.11 -0.23,0 -0.96,0.08 -1.22,0.1 -0.08,0.01 -0.19,0.02 -0.19,0.2 0,0.12 0.09,0.12 0.24,0.12 0.48,0 0.5,0.07 0.5,0.17 l -0.03,0.2 -1.45,5.76 c -0.04,0.14 -0.04,0.16 -0.04,0.22 0,0.23 0.2,0.28 0.29,0.28 0.16,0 0.32,-0.12 0.37,-0.26 L 1.4,-0.91 1.62,-1.81 C 1.68,-2.03 1.74,-2.25 1.79,-2.48 1.81,-2.54 1.89,-2.87 1.9,-2.93 1.93,-3.02 2.24,-3.58 2.58,-3.85 2.8,-4.01 3.11,-4.2 3.54,-4.2 c 0.43,0 0.54,0.34 0.54,0.7 0,0.54 -0.38,1.63 -0.62,2.24 -0.08,0.23 -0.13,0.35 -0.13,0.55 0,0.47 0.35,0.82 0.82,0.82 0.94,0 1.31,-1.46 1.31,-1.54 0,-0.1 -0.09,-0.1 -0.12,-0.1 -0.1,0 -0.1,0.03 -0.15,0.18 -0.15,0.53 -0.47,1.24 -1.02,1.24 -0.17,0 -0.24,-0.1 -0.24,-0.33 0,-0.25 0.09,-0.49 0.18,-0.71 0.16,-0.43 0.61,-1.62 0.61,-2.2 0,-0.65 -0.4,-1.07 -1.15,-1.07 -0.63,0 -1.11,0.31 -1.48,0.77 l 0.78,-3.18 z" />
      </defs>
      <g
         id="equation_01_g">
        <use
           height="1052.3622"
           width="744.09448"
           id="use3566"
           y="63"
           xlink:href="#equation_01_01"
           x="77" />
        <use
           height="1052.3622"
           width="744.09448"
           id="use3568"
           y="64.5"
           xlink:href="#equation_01_00"
           x="82.761597" />
      </g>
    </g>
    <g
       style="font-size:225.16009521px;font-style:normal;font-weight:normal;fill:#1a1a1a;fill-opacity:1;stroke:none;display:inline;font-family:Eras Bold ITC"
       transform="matrix(0.02943802,0,0,0.02825903,297.22257,1062.9098)"
       id="g28380">
      <path
         sodipodi:nodetypes="ccccccccc"
         id="path28382"
         d="m 2881.1646,-2543.7721 486.7644,-30.3961 c 69.1666,-5.9591 120.7942,12.3765 155.6529,110.6738 l 575.4159,1470.60052 c 17.0848,73.10201 22.9528,160.20741 -48.4672,203.89197 l -442.6715,321.19882 c -94.047,67.65643 -230.3329,19.55938 -270.732,-84.19869 L 2726.3378,-2374.7301 c -8.3341,-75.459 18.0345,-153.5679 154.8268,-169.042 z"
         style="fill:url(#linearGradient10002);fill-opacity:1;stroke:none"
         inkscape:connector-curvature="0" />
      <path
         style="fill:url(#linearGradient10004);fill-opacity:1;stroke:none"
         d="m 2895.2472,-2547.4661 506.9675,-36.457 c 69.1666,-5.9591 120.7942,12.3765 155.6529,110.6738 l 544.1012,1476.66144 c 17.0847,73.10201 19.9223,131.92313 -51.4976,175.60769 l -472.9761,324.22928 c -84.7041,28.93683 -150.9454,-4.93517 -178.8082,-88.2393 l -595.637,-1803.53541 c -16.1525,-68.8314 -7.1707,-147.2148 92.1973,-158.9405 z"
         id="path28384"
         sodipodi:nodetypes="ccccccccc"
         inkscape:connector-curvature="0" />
      <path
         sodipodi:nodetypes="ccccccccc"
         id="path28386"
         d="m 2917.9799,-2537.041 489.2072,-42.8571 c 68.1004,-5.8673 118.9322,12.1857 153.2536,108.9678 l 535.7142,1449.9215 c 16.8215,71.97527 15.637,143.81386 -54.6821,186.82505 l -461.7072,309.28571 c -83.3984,28.49079 -124.7487,-14.80492 -152.182,-96.82498 L 2836.155,-2389.5017 c -15.9036,-67.7704 -16.0115,-135.9943 81.8249,-147.5393 z"
         style="fill:#1a1a1a;fill-opacity:1;stroke:none"
         inkscape:connector-curvature="0" />
      <path
         style="opacity:0.67914441;fill:#000000;fill-opacity:1;stroke:none"
         d="m 3427.875,-2580.875 c -6.0815,0.084 -12.3031,0.4187 -18.6875,0.9688 l -489.2187,42.875 c -97.8365,11.545 -97.7162,79.7608 -81.8126,147.5312 l 50.9376,152.25 718.7812,-110.7188 -45.4375,-122.9687 c -31.1038,-87.7088 -75.7748,-110.7535 -134.5625,-109.9375 z"
         id="path28388"
         inkscape:connector-curvature="0" />
      <path
         style="opacity:0.79144383;fill:#020202;fill-opacity:1;stroke:none"
         d="m 4038.0124,-1132.259 -644.8517,351.79624 48.5298,144.0313 c 26.2494,77.91232 65.7904,119.02784 145.5895,91.96392 l 441.792,-293.79179 c 67.2842,-40.85711 68.4228,-109.08596 52.3272,-177.45657 l -43.3868,-116.5431 z"
         id="path28390"
         inkscape:connector-curvature="0" />
      <path
         style="opacity:0.70588235;fill:url(#linearGradient10006);fill-opacity:1;stroke:none;filter:url(#filter16069)"
         d="m 3204.625,-2557.9688 -262.7812,23.0313 -58.7188,255.9375 548.4688,1651.28125 c 27.4333,82.02006 68.7578,125.30329 152.1562,96.8125 l 459.7188,-309.28125 c 70.3191,-43.01119 59.3872,-112.87785 42.5656,-184.8531 l -287.1219,-740.3032 -594.2875,-792.625 z"
         id="path28392"
         sodipodi:nodetypes="ccccccccc"
         inkscape:connector-curvature="0" />
      <g
         id="g28394"
         transform="translate(5136,-24)">
        <path
           sodipodi:nodetypes="ccccccccc"
           id="path28396"
           d="m -1976.5035,-2420.4725 127.0959,-11.8469 c 7.6401,-0.7121 15.2008,4.7289 16.9521,12.1995 l 1.4458,9.0466 c 1.7514,7.4707 -2.9894,14.7725 -10.6295,15.4847 l -125.6672,14.3468 c -7.6401,0.7122 -15.2008,-4.7288 -16.9522,-12.1995 l -2.8743,-12.2608 c -1.7514,-7.4706 2.9893,-14.0583 10.6294,-14.7704 z"
           style="opacity:0.79144383;fill:#4c4c4c;fill-opacity:1;stroke:none"
           inkscape:connector-curvature="0" />
        <path
           style="fill:#000000;fill-opacity:1;stroke:none"
           d="m -1977.3044,-2420.6308 4.6609,-0.011 c 0,0 -1.6991,5.8077 2.4999,7.8305 4.7487,2.2877 106.7458,-8.808 106.7458,-8.808 7.0835,-0.5532 14.4471,-2.6881 21.0742,3.048 5.1539,4.4609 4.9119,13.8131 4.9119,13.8131 1.6237,5.8033 -0.6287,9.3324 -7.7122,9.8856 l -123.6536,13.6446 c -7.0835,0.5532 -13.2004,-4.3876 -14.8242,-10.1909 l -3.5577,-14.5241 c -1.6238,-5.8032 2.7715,-14.1348 9.855,-14.688 z"
           id="path28398"
           sodipodi:nodetypes="ccscscccccc"
           inkscape:connector-curvature="0" />
        <path
           id="path28400"
           d="m -1847.7842,-2409.3383 c -43.1806,3.0307 -86.4288,14.1668 -129.665,9.1793 -3.4748,-3.9745 -0.4304,5.3031 -0.037,7.6907 0.3987,5.9788 3.7087,11.5153 8.7444,9.7158 29.9121,-5.1943 60.2914,-6.8749 90.3539,-11.2145 12.304,-1.673 24.9356,-3.2708 36.9989,-5.9095 -0.3299,-4.5063 -2.0115,-10.443 -6.3956,-9.4618 z"
           style="opacity:0.79144383;fill:#1c1c1c;fill-opacity:1;stroke:none"
           inkscape:connector-curvature="0" />
      </g>
      <path
         transform="matrix(1.0470522,-0.06103691,0.06103691,1.0470522,4060.1146,-4.128706)"
         d="m -145.71428,-806.20923 c 0,59.96234 -35.81722,108.57143 -80,108.57143 -44.18278,0 -80,-48.60909 -80,-108.57143 0,-59.96234 35.81722,-108.57142 80,-108.57142 44.18278,0 80,48.60908 80,108.57142 z"
         sodipodi:ry="108.57143"
         sodipodi:rx="80"
         sodipodi:cy="-806.20923"
         sodipodi:cx="-225.71428"
         id="path28402"
         style="fill:#1a1a1a;fill-opacity:1;stroke:none"
         sodipodi:type="arc" />
      <rect
         style="opacity:0.67914441;fill:#ffffff;fill-opacity:1;stroke:none"
         id="rect28404"
         width="54.367176"
         height="69.796158"
         x="3850.3035"
         y="1059.7017"
         ry="15.211982"
         transform="matrix(0.8771274,-0.4802578,0.3379445,0.941166,0,0)" />
      <path
         sodipodi:type="arc"
         style="opacity:0.67914441;fill:#4b4b4b;fill-opacity:1;stroke:none"
         id="path28406"
         sodipodi:cx="-225.71428"
         sodipodi:cy="-806.20923"
         sodipodi:rx="80"
         sodipodi:ry="108.57143"
         d="m -145.71428,-806.20923 c 0,59.96234 -35.81722,108.57143 -80,108.57143 -44.18278,0 -80,-48.60909 -80,-108.57143 0,-59.96234 35.81722,-108.57142 80,-108.57142 44.18278,0 80,48.60908 80,108.57142 z"
         transform="matrix(0.9722783,-0.05667803,0.05667803,0.9722783,4039.0483,-63.428224)" />
      <rect
         transform="matrix(0.8771274,-0.4802578,0.3379445,0.941166,0,0)"
         ry="13.25837"
         y="1064.1835"
         x="3853.7944"
         height="60.832527"
         width="47.385029"
         id="rect28408"
         style="fill:#4e4e4e;fill-opacity:1;stroke:none" />
      <path
         id="path28410"
         d="m 2854.8625,-2537.3764 c -97.8365,11.545 -111.8583,85.8217 -95.9547,153.5921 l 34.6421,113.9573 249.2549,725.313 c 160.8738,455.0111 -242.226,-708.3838 -246.8107,-725.9308 -12.3842,-47.398 -28.3068,-117.7946 1.2821,-166.7626 -3.2685,-19.354 -2.9338,-19.3839 6.409,-48.2068 11.0933,-26.9264 63.3108,-58.5995 63.3108,-58.5995 l -12.1335,6.6373 z"
         style="opacity:0.85026736;fill:#000000;fill-opacity:1;stroke:none"
         sodipodi:nodetypes="ccccscccc"
         inkscape:connector-curvature="0" />
      <path
         sodipodi:nodetypes="csccccssscssccc"
         style="opacity:0.96256684;fill:url(#linearGradient3654);fill-opacity:1;stroke:none"
         d="m 3591.7381,-457.54843 c -84.9863,49.8258 -199.2013,4.04774 -236.9559,-61.19978 -18.6563,-32.24186 -38.4255,-96.42583 -38.4255,-96.42583 l -33.7035,-99.24179 16.7935,-20.28437 -197.917,-634.3757 c -146.2542,-459.9186 234.2591,711.0582 241.1905,727.81746 6.815,16.47774 15.0946,35.66819 25.4324,54.43566 1.9359,3.51438 -37.2958,-120.41504 -34.472,-117.52195 6.5528,6.71371 7.1018,5.04408 19.6082,16.41632 20.7529,55.39546 75.2439,177.98302 112.9951,188.07446 46.9861,12.56009 71.7319,15.6967 109.8527,3.74042 7.9703,-2.49983 363.1304,-252.01435 371.9228,-255.81082 l 31.7497,14.15729 c -82.5237,59.23954 -306.7851,222.21683 -388.071,280.21863 z"
         id="path28412"
         inkscape:connector-curvature="0" />
    </g>
  </g>
</svg>
