<?xml version="1.0" encoding="UTF-8" standalone="no"?>
<!-- Created with Inkscape (http://www.inkscape.org/) -->

<svg
   xmlns:dc="http://purl.org/dc/elements/1.1/"
   xmlns:cc="http://creativecommons.org/ns#"
   xmlns:rdf="http://www.w3.org/1999/02/22-rdf-syntax-ns#"
   xmlns:svg="http://www.w3.org/2000/svg"
   xmlns="http://www.w3.org/2000/svg"
   xmlns:xlink="http://www.w3.org/1999/xlink"
   xmlns:sodipodi="http://sodipodi.sourceforge.net/DTD/sodipodi-0.dtd"
   xmlns:inkscape="http://www.inkscape.org/namespaces/inkscape"
   width="400.35999"
   height="170.09"
   id="svg2"
   version="1.1"
   inkscape:version="0.48.2 r9819"
   sodipodi:docname="water_filling.svg">
  <sodipodi:namedview
     id="base"
     pagecolor="#ffffff"
     bordercolor="#666666"
     borderopacity="1.0"
     inkscape:pageopacity="0.0"
     inkscape:pageshadow="2"
     inkscape:zoom="1.979899"
     inkscape:cx="185.4445"
     inkscape:cy="88.676526"
     inkscape:document-units="px"
     inkscape:current-layer="layer1"
     showgrid="true"
     inkscape:window-width="1280"
     inkscape:window-height="949"
     inkscape:window-x="0"
     inkscape:window-y="24"
     inkscape:window-maximized="1">
    <inkscape:grid
       snapvisiblegridlinesonly="true"
       enabled="true"
       visible="true"
       empspacing="5"
       id="grid2985"
       type="xygrid" />
  </sodipodi:namedview>
  <defs
     id="defs4">
    <marker
       inkscape:stockid="Arrow1Mend"
       orient="auto"
       refY="0"
       refX="0"
       id="Arrow1Mend"
       style="overflow:visible">
      <path
         id="path4167"
         d="M 0,0 5,-5 -12.5,0 5,5 0,0 z"
         style="fill-rule:evenodd;stroke:#000000;stroke-width:1pt;marker-start:none"
         transform="matrix(-0.4,0,0,-0.4,-4,0)"
         inkscape:connector-curvature="0" />
    </marker>
    <marker
       inkscape:stockid="Arrow2Mstart"
       orient="auto"
       refY="0"
       refX="0"
       id="Arrow2Mstart"
       style="overflow:visible">
      <path
         id="path4182"
         style="font-size:12px;fill-rule:evenodd;stroke-width:0.625;stroke-linejoin:round"
         d="M 8.7185878,4.0337352 -2.2072895,0.01601326 8.7185884,-4.0017078 c -1.7454984,2.3720609 -1.7354408,5.6174519 -6e-7,8.035443 z"
         transform="scale(0.6,0.6)"
         inkscape:connector-curvature="0" />
    </marker>
    <marker
       inkscape:stockid="Arrow1Send"
       orient="auto"
       refY="0"
       refX="0"
       id="Arrow1Send"
       style="overflow:visible">
      <path
         id="path4173"
         d="M 0,0 5,-5 -12.5,0 5,5 0,0 z"
         style="fill-rule:evenodd;stroke:#000000;stroke-width:1pt;marker-start:none"
         transform="matrix(-0.2,0,0,-0.2,-1.2,0)"
         inkscape:connector-curvature="0" />
    </marker>
    <marker
       inkscape:stockid="Arrow1Sstart"
       orient="auto"
       refY="0"
       refX="0"
       id="Arrow1Sstart"
       style="overflow:visible">
      <path
         id="path4170"
         d="M 0,0 5,-5 -12.5,0 5,5 0,0 z"
         style="fill-rule:evenodd;stroke:#000000;stroke-width:1pt;marker-start:none"
         transform="matrix(0.2,0,0,0.2,1.2,0)"
         inkscape:connector-curvature="0" />
    </marker>
    <marker
       inkscape:stockid="Arrow1Lend"
       orient="auto"
       refY="0"
       refX="0"
       id="Arrow1Lend"
       style="overflow:visible">
      <path
         id="path4161"
         d="M 0,0 5,-5 -12.5,0 5,5 0,0 z"
         style="fill-rule:evenodd;stroke:#000000;stroke-width:1pt;marker-start:none"
         transform="matrix(-0.8,0,0,-0.8,-10,0)"
         inkscape:connector-curvature="0" />
    </marker>
    <marker
       inkscape:stockid="Arrow1Lstart"
       orient="auto"
       refY="0"
       refX="0"
       id="Arrow1Lstart"
       style="overflow:visible">
      <path
         id="path4158"
         d="M 0,0 5,-5 -12.5,0 5,5 0,0 z"
         style="fill-rule:evenodd;stroke:#000000;stroke-width:1pt;marker-start:none"
         transform="matrix(0.8,0,0,0.8,10,0)"
         inkscape:connector-curvature="0" />
    </marker>
    <defs
       id="defs3037">
      <path
         d="m 2.84,-6.25 c 0,-0.2 -0.14,-0.36 -0.37,-0.36 -0.27,0 -0.54,0.26 -0.54,0.53 0,0.19 0.14,0.36 0.38,0.36 0.23,0 0.53,-0.23 0.53,-0.53 z M 2.08,-2.49 C 2.2,-2.78 2.2,-2.8 2.3,-3.07 c 0.08,-0.2 0.13,-0.34 0.13,-0.53 0,-0.45 -0.32,-0.82 -0.82,-0.82 -0.94,0 -1.32,1.45 -1.32,1.54 0,0.1 0.1,0.1 0.12,0.1 0.1,0 0.11,-0.02 0.16,-0.18 0.27,-0.94 0.67,-1.24 1.01,-1.24 0.08,0 0.25,0 0.25,0.32 0,0.21 -0.07,0.42 -0.11,0.52 -0.08,0.26 -0.53,1.42 -0.69,1.85 -0.1,0.26 -0.23,0.59 -0.23,0.8 0,0.47 0.34,0.82 0.82,0.82 0.94,0 1.31,-1.45 1.31,-1.54 0,-0.1 -0.09,-0.1 -0.12,-0.1 -0.1,0 -0.1,0.03 -0.15,0.18 -0.18,0.63 -0.51,1.24 -1.02,1.24 -0.17,0 -0.24,-0.1 -0.24,-0.33 0,-0.25 0.06,-0.39 0.29,-1 l 0.39,-1.05 z"
         id="equation_00_00"
         inkscape:connector-curvature="0" />
    </defs>
    <marker
       inkscape:stockid="Arrow2Mstart"
       orient="auto"
       refY="0"
       refX="0"
       id="Arrow2Mstart-7"
       style="overflow:visible">
      <path
         id="path4182-4"
         style="font-size:12px;fill-rule:evenodd;stroke-width:0.625;stroke-linejoin:round"
         d="M 8.7185878,4.0337352 -2.2072895,0.01601326 8.7185884,-4.0017078 c -1.7454984,2.3720609 -1.7354408,5.6174519 -6e-7,8.035443 z"
         transform="scale(0.6,0.6)"
         inkscape:connector-curvature="0" />
    </marker>
    <marker
       inkscape:stockid="Arrow1Mend"
       orient="auto"
       refY="0"
       refX="0"
       id="Arrow1Mend-5"
       style="overflow:visible">
      <path
         id="path4167-1"
         d="M 0,0 5,-5 -12.5,0 5,5 0,0 z"
         style="fill-rule:evenodd;stroke:#000000;stroke-width:1pt;marker-start:none"
         transform="matrix(-0.4,0,0,-0.4,-4,0)"
         inkscape:connector-curvature="0" />
    </marker>
    <marker
       inkscape:stockid="Arrow2Mstart"
       orient="auto"
       refY="0"
       refX="0"
       id="marker7501"
       style="overflow:visible">
      <path
         id="path7503"
         style="font-size:12px;fill-rule:evenodd;stroke-width:0.625;stroke-linejoin:round"
         d="M 8.7185878,4.0337352 -2.2072895,0.01601326 8.7185884,-4.0017078 c -1.7454984,2.3720609 -1.7354408,5.6174519 -6e-7,8.035443 z"
         transform="scale(0.6,0.6)"
         inkscape:connector-curvature="0" />
    </marker>
    <marker
       inkscape:stockid="Arrow1Mend"
       orient="auto"
       refY="0"
       refX="0"
       id="marker7505"
       style="overflow:visible">
      <path
         id="path7507"
         d="M 0,0 5,-5 -12.5,0 5,5 0,0 z"
         style="fill-rule:evenodd;stroke:#000000;stroke-width:1pt;marker-start:none"
         transform="matrix(-0.4,0,0,-0.4,-4,0)"
         inkscape:connector-curvature="0" />
    </marker>
  </defs>
  <metadata
     id="metadata7">
    <rdf:RDF>
      <cc:Work
         rdf:about="">
        <dc:format>image/svg+xml</dc:format>
        <dc:type
           rdf:resource="http://purl.org/dc/dcmitype/StillImage" />
        <dc:title />
      </cc:Work>
    </rdf:RDF>
  </metadata>
  <g
     transform="translate(0,-882.27216)"
     id="layer1"
     inkscape:groupmode="layer"
     inkscape:label="Camada 1">
    <g
       transform="translate(-300,349.99983)"
       id="g7440">
      <path
         style="fill:none;stroke:#000000;stroke-width:0.5;stroke-linecap:butt;stroke-linejoin:miter;stroke-miterlimit:4;stroke-opacity:1;stroke-dasharray:none"
         d="m 350,234.09448 0,130"
         id="path2989"
         inkscape:connector-curvature="0"
         transform="translate(0,308.2677)" />
      <path
         style="fill:none;stroke:#000000;stroke-width:0.5;stroke-linecap:butt;stroke-linejoin:miter;stroke-miterlimit:4;stroke-opacity:1;stroke-dasharray:none"
         d="m 480,672.36218 -130,0"
         id="path2989-9"
         inkscape:connector-curvature="0" />
      <path
         style="fill:none;stroke:#000000;stroke-width:0.5;stroke-linecap:butt;stroke-linejoin:miter;stroke-miterlimit:4;stroke-opacity:1;stroke-dasharray:none"
         d="m 610,672.36218 -130,0"
         id="path2989-5"
         inkscape:connector-curvature="0" />
      <path
         transform="translate(0,308.2677)"
         inkscape:connector-curvature="0"
         id="path3356"
         d="m 350,344.09448 20,0 0,-20 20,0 0,-60 20,0 0,30 0,20 30,0 0,40 20,0 0,-20 20,0 0,-40 20,0 0,10 20,0 0,-30 20,0 0,10 10,0 0,40 20,0 0,30 20,0 0,-40 20,0"
         style="fill:none;stroke:#000000;stroke-width:0.5;stroke-linecap:butt;stroke-linejoin:miter;stroke-miterlimit:4;stroke-opacity:1;stroke-dasharray:none" />
      <path
         transform="translate(0,308.2677)"
         inkscape:connector-curvature="0"
         id="path3368"
         d="m 350.91972,313.91087 0,-29.28571 19.28571,0 19.28572,0 0,19.28571 0,19.28572 -10,0 -10,0 0,10 0,10 -9.28572,0 -9.28571,0 0,-29.28572 z"
         style="fill:#e3e2db;fill-opacity:1;stroke:none" />
      <path
         transform="translate(0,308.2677)"
         inkscape:connector-curvature="0"
         id="path3370"
         d="m 440.91972,333.19659 0,-20 -15,0 -15,0 0,-14.28572 0,-14.28571 54.28572,0 54.28571,0 0,9.28571 0,9.28572 -9.28571,0 -9.28572,0 0,-5 0,-5 -10.71428,0 -10.71429,0 0,20 0,20 -10,0 -10,0 0,10 0,10 -9.28571,0 -9.28572,0 0,-20 z"
         style="fill:#e3e2db;fill-opacity:1;stroke:none" />
      <path
         transform="translate(0,308.2677)"
         inkscape:connector-curvature="0"
         id="path3372"
         d="m 570.91972,338.19659 0,-15 -10,0 -10,0 0,-19.28572 0,-19.28571 29.28572,0 29.28571,0 0,14.28571 0,14.28572 -10,0 -10,0 0,20 0,20 -9.28571,0 -9.28572,0 0,-15 z"
         style="fill:#e3e2db;fill-opacity:1;stroke:none" />
    </g>
    <path
       style="fill:none;stroke:#000000;stroke-width:0.5;stroke-linecap:butt;stroke-linejoin:miter;stroke-miterlimit:0.80000001;stroke-opacity:1;stroke-dasharray:none;marker-start:url(#Arrow2Mstart);marker-end:url(#Arrow1Mend)"
       d="m 320,972.36201 0,50.00019"
       id="path4153"
       inkscape:connector-curvature="0" />
    <path
       style="fill:none;stroke:#000000;stroke-width:0.5;stroke-linecap:butt;stroke-linejoin:miter;stroke-miterlimit:4;stroke-opacity:1;stroke-dasharray:none;marker-start:url(#Arrow2Mstart);marker-end:url(#Arrow1Mend)"
       d="m 320,942.36201 0,30"
       id="path5163"
       inkscape:connector-curvature="0" />
    <g
       id="equation_03"
       style="fill:#000000"
       transform="matrix(1.7295929,0,0,1.8113,-123.73444,842.16291)">
      <defs
         id="defs3138">
        <path
           d="m 4.77,-2.36 c 0,-1.57 -0.93,-2.06 -1.67,-2.06 -1.37,0 -2.69,1.43 -2.69,2.84 0,0.93 0.6,1.69 1.62,1.69 0.63,0 1.35,-0.23 2.11,-0.84 0.13,0.53 0.46,0.84 0.91,0.84 0.53,0 0.84,-0.55 0.84,-0.71 0,-0.07 -0.06,-0.1 -0.12,-0.1 -0.07,0 -0.1,0.03 -0.13,0.1 -0.18,0.49 -0.54,0.49 -0.56,0.49 -0.31,0 -0.31,-0.78 -0.31,-1.02 0,-0.21 0,-0.23 0.1,-0.35 0.94,-1.18 1.15,-2.34 1.15,-2.35 0,-0.02 -0.01,-0.1 -0.12,-0.1 -0.1,0 -0.1,0.03 -0.15,0.21 -0.18,0.63 -0.51,1.39 -0.98,1.98 V -2.36 z M 4.1,-0.99 c -0.88,0.77 -1.65,0.88 -2.05,0.88 -0.6,0 -0.9,-0.45 -0.9,-1.09 0,-0.49 0.26,-1.57 0.58,-2.08 0.47,-0.73 1.01,-0.92 1.36,-0.92 0.99,0 0.99,1.31 0.99,2.09 0,0.37 0,0.95 0.02,1.12 z"
           id="equation_03_00"
           inkscape:connector-curvature="0" />
        <path
           d="m 4.39,-7.12 c 0.05,-0.13 0.05,-0.17 0.05,-0.18 0,-0.11 -0.09,-0.2 -0.2,-0.2 -0.07,0 -0.14,0.03 -0.17,0.09 L 0.6,2.12 C 0.55,2.25 0.55,2.29 0.55,2.3 c 0,0.11 0.09,0.2 0.2,0.2 0.13,0 0.16,-0.07 0.22,-0.24 l 3.42,-9.38 z"
           id="equation_03_01"
           inkscape:connector-curvature="0" />
        <path
           d="m 2.261,-1.743 c 0.574,-0.252 0.833,-0.35 1.008,-0.434 0.133,-0.056 0.196,-0.084 0.196,-0.217 0,-0.119 -0.091,-0.224 -0.217,-0.224 -0.049,0 -0.063,0 -0.147,0.063 l -0.952,0.637 0.105,-1.036 c 0.014,-0.126 0,-0.301 -0.21,-0.301 -0.084,0 -0.217,0.056 -0.217,0.21 0,0.063 0.028,0.273 0.035,0.343 0.014,0.119 0.063,0.623 0.077,0.784 L 0.994,-2.555 C 0.924,-2.597 0.903,-2.618 0.84,-2.618 c -0.126,0 -0.217,0.105 -0.217,0.224 0,0.14 0.084,0.175 0.147,0.203 l 1.057,0.441 c -0.574,0.252 -0.833,0.35 -1.008,0.434 -0.133,0.056 -0.196,0.084 -0.196,0.217 0,0.119 0.091,0.224 0.217,0.224 0.049,0 0.063,0 0.147,-0.063 l 0.952,-0.637 -0.112,1.127 c 0,0.154 0.133,0.21 0.217,0.21 0.084,0 0.217,-0.056 0.217,-0.21 0,-0.063 -0.028,-0.273 -0.035,-0.343 C 2.212,-0.91 2.163,-1.414 2.149,-1.575 l 0.84,0.56 c 0.182,0.14 0.196,0.14 0.259,0.14 0.126,0 0.217,-0.105 0.217,-0.224 0,-0.14 -0.084,-0.175 -0.147,-0.203 L 2.261,-1.743 z"
           id="equation_03_02"
           inkscape:connector-curvature="0" />
        <path
           d="m 2.94,-6.4 c 0,-0.24 0,-0.26 -0.23,-0.26 -0.62,0.64 -1.5,0.64 -1.82,0.64 v 0.31 c 0.2,0 0.79,0 1.31,-0.26 v 5.18 c 0,0.36 -0.03,0.48 -0.93,0.48 H 0.95 V 0 c 0.35,-0.03 1.22,-0.03 1.62,-0.03 0.4,0 1.27,0 1.62,0.03 V -0.31 H 3.87 c -0.9,0 -0.93,-0.11 -0.93,-0.48 V -6.4 z"
           id="equation_03_03"
           inkscape:connector-curvature="0" />
      </defs>
      <g
         id="equation_03_g">
        <use
           x="77"
           xlink:href="#equation_03_03"
           y="63"
           id="use3145"
           width="744.09448"
           height="1052.3622" />
        <use
           x="82"
           xlink:href="#equation_03_01"
           y="63"
           id="use3147"
           width="744.09448"
           height="1052.3622" />
        <use
           x="87"
           xlink:href="#equation_03_00"
           y="63"
           id="use3149"
           width="744.09448"
           height="1052.3622" />
        <use
           x="93.434097"
           xlink:href="#equation_03_02"
           y="59.371101"
           id="use3151"
           width="744.09448"
           height="1052.3622" />
      </g>
    </g>
    <g
       transform="matrix(1.7071891,0,0,2.1496855,197.20021,823.19177)"
       style="fill:#000000"
       id="equation_01">
      <defs
         id="defs3139">
        <path
           inkscape:connector-curvature="0"
           id="equation_01_00"
           d="m 0.854,-0.441 c -0.028,0.091 -0.07,0.266 -0.07,0.287 0,0.154 0.126,0.224 0.238,0.224 0.126,0 0.238,-0.091 0.273,-0.154 0.035,-0.063 0.091,-0.287 0.126,-0.434 0.035,-0.133 0.112,-0.455 0.154,-0.63 0.042,-0.154 0.084,-0.308 0.119,-0.469 0.077,-0.287 0.091,-0.343 0.294,-0.63 0.196,-0.28 0.525,-0.644 1.05,-0.644 0.406,0 0.413,0.357 0.413,0.49 0,0.42 -0.301,1.197 -0.413,1.491 -0.077,0.196 -0.105,0.259 -0.105,0.378 0,0.371 0.308,0.602 0.665,0.602 0.7,0 1.008,-0.966 1.008,-1.071 0,-0.091 -0.091,-0.091 -0.112,-0.091 -0.098,0 -0.105,0.042 -0.133,0.119 -0.161,0.56 -0.462,0.847 -0.742,0.847 -0.147,0 -0.175,-0.098 -0.175,-0.245 0,-0.161 0.035,-0.252 0.161,-0.567 0.084,-0.217 0.371,-0.959 0.371,-1.351 0,-0.679 -0.539,-0.798 -0.91,-0.798 -0.581,0 -0.973,0.357 -1.183,0.637 -0.049,-0.483 -0.462,-0.637 -0.749,-0.637 -0.301,0 -0.462,0.217 -0.553,0.378 -0.154,0.259 -0.252,0.658 -0.252,0.693 0,0.091 0.098,0.091 0.119,0.091 0.098,0 0.105,-0.021 0.154,-0.21 0.105,-0.413 0.238,-0.756 0.511,-0.756 0.182,0 0.231,0.154 0.231,0.343 0,0.133 -0.063,0.392 -0.112,0.581 -0.049,0.189 -0.119,0.476 -0.154,0.63 l -0.224,0.896 z" />
        <path
           inkscape:connector-curvature="0"
           id="equation_01_01"
           d="m 0.45,1.22 c -0.08,0.34 -0.1,0.41 -0.54,0.41 -0.12,0 -0.23,0 -0.23,0.19 0,0.08 0.05,0.12 0.13,0.12 0.27,0 0.56,-0.03 0.84,-0.03 0.33,0 0.67,0.03 0.99,0.03 0.05,0 0.18,0 0.18,-0.2 0,-0.11 -0.1,-0.11 -0.24,-0.11 -0.5,0 -0.5,-0.07 -0.5,-0.16 0,-0.12 0.42,-1.75 0.49,-2 0.13,0.29 0.41,0.64 0.92,0.64 1.16,0 2.41,-1.46 2.41,-2.93 0,-0.94 -0.57,-1.6 -1.33,-1.6 -0.5,0 -0.98,0.36 -1.31,0.75 -0.1,-0.54 -0.53,-0.75 -0.9,-0.75 -0.46,0 -0.65,0.39 -0.74,0.57 -0.18,0.34 -0.31,0.94 -0.31,0.97 0,0.1 0.1,0.1 0.12,0.1 0.1,0 0.11,-0.01 0.17,-0.23 0.17,-0.71 0.37,-1.19 0.73,-1.19 0.17,0 0.31,0.08 0.31,0.46 0,0.23 -0.03,0.34 -0.07,0.51 L 0.45,1.22 z m 1.76,-4.34 c 0.07,-0.27 0.34,-0.55 0.52,-0.7 0.35,-0.31 0.64,-0.38 0.81,-0.38 0.4,0 0.64,0.35 0.64,0.94 0,0.59 -0.33,1.74 -0.51,2.12 -0.34,0.7 -0.82,1.03 -1.19,1.03 -0.66,0 -0.79,-0.83 -0.79,-0.89 0,-0.02 0,-0.04 0.03,-0.16 l 0.49,-1.96 z" />
      </defs>
      <g
         id="equation_01_g">
        <use
           height="1052.3622"
           width="744.09448"
           id="use3144"
           y="63"
           xlink:href="#equation_01_01"
           x="77" />
        <use
           height="1052.3622"
           width="744.09448"
           id="use3146"
           y="64.5"
           xlink:href="#equation_01_00"
           x="82.031303" />
      </g>
    </g>
    <g
       transform="matrix(1.3441382,0,0,1.2686396,225.06701,919.65995)"
       id="equation_04"
       style="fill:#000000">
      <defs
         id="defs3761">
        <path
           inkscape:connector-curvature="0"
           d="m 1.72,-7.16 c 0,-0.16 0,-0.34 -0.2,-0.34 -0.2,0 -0.2,0.22 -0.2,0.37 v 9.26 c 0,0.16 0,0.37 0.2,0.37 0.2,0 0.2,-0.18 0.2,-0.34 v -9.32 z m 1.95,0.03 c 0,-0.16 0,-0.37 -0.2,-0.37 -0.2,0 -0.2,0.18 -0.2,0.34 v 9.32 c 0,0.16 0,0.34 0.2,0.34 0.2,0 0.2,-0.22 0.2,-0.37 v -9.26 z"
           id="equation_04_00" />
        <path
           inkscape:connector-curvature="0"
           d="m 4.39,-7.12 c 0.05,-0.13 0.05,-0.17 0.05,-0.18 0,-0.11 -0.09,-0.2 -0.2,-0.2 -0.07,0 -0.14,0.03 -0.17,0.09 L 0.6,2.12 C 0.55,2.25 0.55,2.29 0.55,2.3 c 0,0.11 0.09,0.2 0.2,0.2 0.13,0 0.16,-0.07 0.22,-0.24 l 3.42,-9.38 z"
           id="equation_04_01" />
        <path
           inkscape:connector-curvature="0"
           d="m 2.87,-6.83 c 0,-0.01 0,-0.11 -0.13,-0.11 -0.23,0 -0.96,0.08 -1.22,0.1 -0.08,0.01 -0.19,0.02 -0.19,0.2 0,0.12 0.09,0.12 0.24,0.12 0.48,0 0.5,0.07 0.5,0.17 l -0.03,0.2 -1.45,5.76 c -0.04,0.14 -0.04,0.16 -0.04,0.22 0,0.23 0.2,0.28 0.29,0.28 0.16,0 0.32,-0.12 0.37,-0.26 L 1.4,-0.91 1.62,-1.81 C 1.68,-2.03 1.74,-2.25 1.79,-2.48 1.81,-2.54 1.89,-2.87 1.9,-2.93 1.93,-3.02 2.24,-3.58 2.58,-3.85 2.8,-4.01 3.11,-4.2 3.54,-4.2 c 0.43,0 0.54,0.34 0.54,0.7 0,0.54 -0.38,1.63 -0.62,2.24 -0.08,0.23 -0.13,0.35 -0.13,0.55 0,0.47 0.35,0.82 0.82,0.82 0.94,0 1.31,-1.46 1.31,-1.54 0,-0.1 -0.09,-0.1 -0.12,-0.1 -0.1,0 -0.1,0.03 -0.15,0.18 -0.15,0.53 -0.47,1.24 -1.02,1.24 -0.17,0 -0.24,-0.1 -0.24,-0.33 0,-0.25 0.09,-0.49 0.18,-0.71 0.16,-0.43 0.61,-1.62 0.61,-2.2 0,-0.65 -0.4,-1.07 -1.15,-1.07 -0.63,0 -1.11,0.31 -1.48,0.77 l 0.78,-3.18 z"
           id="equation_04_02" />
        <path
           inkscape:connector-curvature="0"
           d="m 0.45,1.22 c -0.08,0.34 -0.1,0.41 -0.54,0.41 -0.12,0 -0.23,0 -0.23,0.19 0,0.08 0.05,0.12 0.13,0.12 0.27,0 0.56,-0.03 0.84,-0.03 0.33,0 0.67,0.03 0.99,0.03 0.05,0 0.18,0 0.18,-0.2 0,-0.11 -0.1,-0.11 -0.24,-0.11 -0.5,0 -0.5,-0.07 -0.5,-0.16 0,-0.12 0.42,-1.75 0.49,-2 0.13,0.29 0.41,0.64 0.92,0.64 1.16,0 2.41,-1.46 2.41,-2.93 0,-0.94 -0.57,-1.6 -1.33,-1.6 -0.5,0 -0.98,0.36 -1.31,0.75 -0.1,-0.54 -0.53,-0.75 -0.9,-0.75 -0.46,0 -0.65,0.39 -0.74,0.57 -0.18,0.34 -0.31,0.94 -0.31,0.97 0,0.1 0.1,0.1 0.12,0.1 0.1,0 0.11,-0.01 0.17,-0.23 0.17,-0.71 0.37,-1.19 0.73,-1.19 0.17,0 0.31,0.08 0.31,0.46 0,0.23 -0.03,0.34 -0.07,0.51 L 0.45,1.22 z m 1.76,-4.34 c 0.07,-0.27 0.34,-0.55 0.52,-0.7 0.35,-0.31 0.64,-0.38 0.81,-0.38 0.4,0 0.64,0.35 0.64,0.94 0,0.59 -0.33,1.74 -0.51,2.12 -0.34,0.7 -0.82,1.03 -1.19,1.03 -0.66,0 -0.79,-0.83 -0.79,-0.89 0,-0.02 0,-0.04 0.03,-0.16 l 0.49,-1.96 z"
           id="equation_04_03" />
        <path
           inkscape:connector-curvature="0"
           d="m 0.854,-0.441 c -0.028,0.091 -0.07,0.266 -0.07,0.287 0,0.154 0.126,0.224 0.238,0.224 0.126,0 0.238,-0.091 0.273,-0.154 0.035,-0.063 0.091,-0.287 0.126,-0.434 0.035,-0.133 0.112,-0.455 0.154,-0.63 0.042,-0.154 0.084,-0.308 0.119,-0.469 0.077,-0.287 0.091,-0.343 0.294,-0.63 0.196,-0.28 0.525,-0.644 1.05,-0.644 0.406,0 0.413,0.357 0.413,0.49 0,0.42 -0.301,1.197 -0.413,1.491 -0.077,0.196 -0.105,0.259 -0.105,0.378 0,0.371 0.308,0.602 0.665,0.602 0.7,0 1.008,-0.966 1.008,-1.071 0,-0.091 -0.091,-0.091 -0.112,-0.091 -0.098,0 -0.105,0.042 -0.133,0.119 -0.161,0.56 -0.462,0.847 -0.742,0.847 -0.147,0 -0.175,-0.098 -0.175,-0.245 0,-0.161 0.035,-0.252 0.161,-0.567 0.084,-0.217 0.371,-0.959 0.371,-1.351 0,-0.679 -0.539,-0.798 -0.91,-0.798 -0.581,0 -0.973,0.357 -1.183,0.637 -0.049,-0.483 -0.462,-0.637 -0.749,-0.637 -0.301,0 -0.462,0.217 -0.553,0.378 -0.154,0.259 -0.252,0.658 -0.252,0.693 0,0.091 0.098,0.091 0.119,0.091 0.098,0 0.105,-0.021 0.154,-0.21 0.105,-0.413 0.238,-0.756 0.511,-0.756 0.182,0 0.231,0.154 0.231,0.343 0,0.133 -0.063,0.392 -0.112,0.581 -0.049,0.189 -0.119,0.476 -0.154,0.63 l -0.224,0.896 z"
           id="equation_04_04" />
        <path
           inkscape:connector-curvature="0"
           d="m 1.645,-1.414 c 0.007,-0.042 0.168,-0.672 0.182,-0.707 0.014,-0.056 0.217,-0.406 0.441,-0.574 0.077,-0.056 0.266,-0.196 0.567,-0.196 0.07,0 0.245,0.007 0.385,0.098 -0.224,0.063 -0.308,0.259 -0.308,0.385 0,0.154 0.119,0.259 0.28,0.259 0.161,0 0.392,-0.133 0.392,-0.427 0,-0.364 -0.385,-0.511 -0.742,-0.511 -0.364,0 -0.679,0.147 -0.987,0.497 -0.126,-0.427 -0.553,-0.497 -0.721,-0.497 -0.259,0 -0.434,0.161 -0.546,0.357 -0.161,0.273 -0.259,0.679 -0.259,0.714 0,0.091 0.098,0.091 0.119,0.091 0.098,0 0.105,-0.021 0.154,-0.21 0.105,-0.427 0.238,-0.756 0.511,-0.756 0.182,0 0.231,0.154 0.231,0.343 0,0.133 -0.063,0.392 -0.112,0.581 -0.049,0.189 -0.119,0.476 -0.154,0.63 l -0.224,0.896 c -0.028,0.091 -0.07,0.266 -0.07,0.287 0,0.154 0.126,0.224 0.238,0.224 0.105,0 0.245,-0.063 0.301,-0.203 0.014,-0.042 0.091,-0.35 0.133,-0.525 l 0.189,-0.756 z"
           id="equation_04_05" />
        <path
           inkscape:connector-curvature="0"
           d="M 3.535,-1.274 H 3.297 C 3.276,-1.12 3.206,-0.707 3.115,-0.637 3.059,-0.595 2.52,-0.595 2.422,-0.595 H 1.134 c 0.735,-0.651 0.98,-0.847 1.4,-1.176 0.518,-0.413 1.001,-0.847 1.001,-1.512 0,-0.847 -0.742,-1.365 -1.638,-1.365 -0.868,0 -1.456,0.609 -1.456,1.253 0,0.357 0.301,0.392 0.371,0.392 0.168,0 0.371,-0.119 0.371,-0.371 0,-0.126 -0.049,-0.371 -0.413,-0.371 0.217,-0.497 0.693,-0.651 1.022,-0.651 0.7,0 1.064,0.546 1.064,1.113 0,0.609 -0.434,1.092 -0.658,1.344 L 0.511,-0.273 C 0.441,-0.21 0.441,-0.196 0.441,0 h 2.884 l 0.21,-1.274 z"
           id="equation_04_06" />
      </defs>
      <g
         id="equation_04_g">
        <use
           height="1052.3622"
           width="744.09448"
           x="77"
           xlink:href="#equation_04_03"
           y="63"
           id="use3771" />
        <use
           height="1052.3622"
           width="744.09448"
           x="82.031303"
           xlink:href="#equation_04_05"
           y="64.5"
           id="use3773" />
        <use
           height="1052.3622"
           width="744.09448"
           x="86.459503"
           xlink:href="#equation_04_01"
           y="63"
           id="use3775" />
        <use
           height="1052.3622"
           width="744.09448"
           x="91.459503"
           xlink:href="#equation_04_00"
           y="63"
           id="use3777" />
        <use
           height="1052.3622"
           width="744.09448"
           x="96.459602"
           xlink:href="#equation_04_02"
           y="63"
           id="use3779" />
        <use
           height="1052.3622"
           width="744.09448"
           x="102.221"
           xlink:href="#equation_04_04"
           y="64.5"
           id="use3781" />
        <use
           height="1052.3622"
           width="744.09448"
           x="107.664"
           xlink:href="#equation_04_00"
           y="63"
           id="use3783" />
        <use
           height="1052.3622"
           width="744.09448"
           x="112.664"
           xlink:href="#equation_04_06"
           y="59.371101"
           id="use3785" />
      </g>
    </g>
  </g>
  <g
     transform="matrix(2.4752768,0,0,2.4569536,-12.243051,1.5067509)"
     style="fill:#000000"
     id="equation_00">
    <defs
       id="defs6058">
      <path
         inkscape:connector-curvature="0"
         id="equation_00_00-8"
         d="m 0.88,-0.59 c -0.03,0.15 -0.09,0.38 -0.09,0.43 0,0.18 0.14,0.27 0.29,0.27 0.12,0 0.3,-0.08 0.37,-0.28 0.01,-0.02 0.13,-0.49 0.19,-0.74 l 0.22,-0.9 c 0.06,-0.22 0.12,-0.44 0.17,-0.67 0.04,-0.17 0.12,-0.46 0.13,-0.5 0.15,-0.31 0.68,-1.22 1.63,-1.22 0.45,0 0.54,0.37 0.54,0.7 0,0.62 -0.49,1.9 -0.65,2.33 -0.09,0.23 -0.1,0.35 -0.1,0.46 0,0.47 0.35,0.82 0.82,0.82 0.94,0 1.31,-1.46 1.31,-1.54 0,-0.1 -0.09,-0.1 -0.12,-0.1 -0.1,0 -0.1,0.03 -0.15,0.18 -0.2,0.68 -0.53,1.24 -1.02,1.24 -0.17,0 -0.24,-0.1 -0.24,-0.33 0,-0.25 0.09,-0.49 0.18,-0.71 0.19,-0.53 0.61,-1.63 0.61,-2.2 0,-0.67 -0.43,-1.07 -1.15,-1.07 -0.9,0 -1.39,0.64 -1.56,0.87 -0.05,-0.56 -0.46,-0.87 -0.92,-0.87 -0.46,0 -0.65,0.39 -0.75,0.57 -0.16,0.34 -0.3,0.93 -0.3,0.97 0,0.1 0.1,0.1 0.12,0.1 0.1,0 0.11,-0.01 0.17,-0.23 0.17,-0.71 0.37,-1.19 0.73,-1.19 0.2,0 0.31,0.13 0.31,0.46 0,0.21 -0.03,0.32 -0.16,0.84 l -0.58,2.31 z" />
    </defs>
    <g
       id="equation_00_g-7">
      <use
         height="1052.3622"
         width="744.09448"
         id="use6062"
         y="63"
         xlink:href="#equation_00_00-8"
         x="77" />
    </g>
  </g>
</svg>
